<svg width="32" height="32" fill="none" xmlns="http://www.w3.org/2000/svg"><g clip-path="url(#clip0_277_70)" fill="#E8145A"><path d="M26.178 31.086h-32V32h32v-.914zM-2.11 22.025l2.606 2.03c.416.323.927.5 1.454.503a2.34 2.34 0 001.124-.293l4.928-2.66 15.946-8.622c.202-.126.397-.264.585-.412 1.334-1.07 1.956-2.514 1.398-3.483-.557-.97-1.828-1.106-3.218-.695a4.06 4.06 0 00-1.051.402l-5.577 3.219-14.702-6.5-3.081 1.773s6.948 5.102 9.828 7.46c1.244 1.006 1.692.714 1.692.714l.091.155-7.853 5.266-5.806-2.916-2.076 1.207c.074 0 1.829 1.435 3.658 2.852"/></g><defs><clipPath id="clip0_277_70"><path fill="#fff" d="M0 0h32v32H0z"/></clipPath></defs></svg>