<svg width="24" height="25" fill="none" xmlns="http://www.w3.org/2000/svg"><path d="M16.396 8.737a1 1 0 010 1.415l-2.982 2.981 2.676 2.675a1 1 0 11-1.415 1.415L12 14.547l-2.675 2.676a1 1 0 01-1.415-1.415l2.676-2.675-2.982-2.981A1 1 0 119.02 8.736L12 11.72l2.981-2.982a1 1 0 011.415 0z" fill="#4E106F"/><path fill-rule="evenodd" clip-rule="evenodd" d="M4 1.98a3 3 0 00-3 3v16a3 3 0 003 3h16a3 3 0 003-3v-16a3 3 0 00-3-3H4zm16 2H4a1 1 0 00-1 1v16a1 1 0 001 1h16a1 1 0 001-1v-16a1 1 0 00-1-1z" fill="#4E106F"/></svg>