<svg width="17" height="17" fill="none" xmlns="http://www.w3.org/2000/svg"><path d="M13.003 2.5H3a1.5 1.5 0 00-1.5 1.501v9.002a1.5 1.5 0 001.5 1.5h10.002a1.5 1.5 0 001.5-1.5V4.001a1.5 1.5 0 00-1.5-1.5z" stroke="#000" stroke-width="1.002" stroke-linejoin="round"/><path d="M9.256 8.01a.754.754 0 100-1.508.754.754 0 000 1.507zm2.499 0a.754.754 0 100-1.508.754.754 0 000 1.507zm-2.499 2.5a.754.754 0 100-1.508.754.754 0 000 1.508zm2.499 0a.754.754 0 100-1.508.754.754 0 000 1.508zm-7.5 0a.754.754 0 100-1.508.754.754 0 000 1.508zm2.5 0a.754.754 0 100-1.508.754.754 0 000 1.508zm-2.5 2.5a.754.754 0 100-1.507.754.754 0 000 1.507zm2.5 0a.754.754 0 100-1.507.754.754 0 000 1.507zm2.501 0a.754.754 0 100-1.507.754.754 0 000 1.507z" fill="#000"/><path d="M4 1.5v1.01m8.003-1.01v1.01" stroke="#000" stroke-width="1.002" stroke-linecap="round" stroke-linejoin="round"/><path d="M14.503 5.001H1.5" stroke="#000" stroke-width="1.002" stroke-linejoin="round"/></svg>