<svg width="32" height="32" fill="none" xmlns="http://www.w3.org/2000/svg"><g clip-path="url(#clip0_277_79)" fill="currentColor"><path d="M26.178 31.086h-32V32h32v-.914zM-3.488 10.385l.12 3.3c.02.527.214 1.032.55 1.438.254.3.58.532.947.673l5.205 2.065 16.854 6.673c.227.074.458.135.692.184 1.677.334 3.183-.118 3.567-1.168.384-1.05-.328-2.112-1.536-2.912a4.06 4.06 0 00-.984-.547l-6.05-2.204-4.47-15.44-3.34-1.22s.558 8.602.603 12.324c.028 1.6.54 1.755.54 1.755l-.06.17-9.082-2.632-1.498-6.322-2.258-.814c.047.056.075 2.323.165 4.635"/></g><defs><clipPath id="clip0_277_79"><rect width="32" height="32" rx="4" fill="#fff"/></clipPath></defs></svg>