<svg width="16" height="16" fill="none" xmlns="http://www.w3.org/2000/svg"><g clip-path="url(#clip0_583_725)"><path d="M3.78 13.58l2.707-3.282 1.239 1.58-2.387 3.035c-.914 1.161-2.605-.063-1.559-1.332zm3.162-7.474c.258-.842.14-1.56-.83-2.628L3.745.63c-.336-.394-1.127.185-.797.663l1.894 2.332c.358.435-.308 1.01-.677.563L2.206 1.776c-.364-.418-1.118.134-.737.612.552.664 1.406 1.749 1.959 2.413.382.39-.2.966-.577.48L.907 2.885c-.285-.31-.752-.117-.875.245-.133.387.194.67.416.956l2.17 2.802c.673.78 1.425 1.242 2.3.98.135-.04.299-.122.474-.23l5.828 7.524c.314.404.92.447 1.313.12l.09-.074c.443-.368.514-1.041.135-1.476L6.586 6.64c.18-.2.312-.39.356-.535zm1.65 1.64l.96-1.164c-1.235-3.06 3.34-7.138 5.557-5.263 2.694 2.28-1.31 7.775-4.124 6.417L9.848 9.18 8.592 7.746z" fill="#000"/></g><defs><clipPath id="clip0_583_725"><path fill="#fff" d="M0 0h16v16H0z"/></clipPath></defs></svg>