<svg width="16" height="16" fill="none" xmlns="http://www.w3.org/2000/svg"><path d="M2.237 13.512v1.176c0 .362.3.662.663.662h4.812c.363 0 .663-.3.663-.662v-1.176H2.237z" fill="#000"/><path d="M1.375 7.375h-.312c-.363 0-.663.3-.663.662v4.813c0 .363.3.662.663.662h1.175V7.375h-.863zM9.2 14.037v1.313h5.938V13.5H9.2v.537zm3.987-10.199V2.675H8.912L9.7 3.838h3.487zM9.713 4.3L9 5.225h.975c0 .888.713 1.6 1.6 1.6.888 0 1.6-.712 1.6-1.6V4.3H9.712zm5.425 8.388V8.436c0-.587-.475-1.062-1.063-1.062h-.137l-2.263 3.063-1.662 2.25h5.125zM9.2 9.438v2.974l3.725-5.037H8.987c-.35 0-.85.275-1.1.612-.25.338-.45.613-.45.613l-2.162 2.912a.703.703 0 00.15.988l.075.05c.312.225.75.162.987-.15L9.2 8.75v.688z" fill="#000"/></svg>