<svg width="16" height="16" fill="none" xmlns="http://www.w3.org/2000/svg"><path d="M8.123 2.366c0 .842.636 1.413 1.42 1.413.785 0 1.421-.571 1.421-1.413 0-.842-.636-1.413-1.42-1.413-.785 0-1.42.571-1.42 1.413zM5.048 7.187c0 .167-.03.582.004.831l1.24-1.491c.256-.281.552-.478.704-.425.151.053.235.232.185.398L5.13 13.295c-.237.794.21 1.574 1.3 1.752 1.594 0 2.541-1.079 3.473-2.478 0-.167.056-.606.022-.856l-1.24 1.491c-.256.281-.575.477-.727.425-.14-.049-.222-.205-.194-.36L9.83 6.441c.172-.867-.295-1.656-1.282-1.757-1.038 0-2.568 1.104-3.5 2.502z" fill="#000"/></svg>