<svg width="16" height="16" fill="none" xmlns="http://www.w3.org/2000/svg"><g clip-path="url(#clip0_583_807)" fill="#3F48CC"><path d="M4.906 3.622a1.27 1.27 0 110-2.539 1.27 1.27 0 010 2.539zM.081 7.264l.842-1.266c.204-.299.475-.546.791-.723l1.65-.925c.303-.14.532-.23.819-.192l.79.107c.294.04.562.19.75.42l1.504 1.6 1.376.507c.261.096.401.38.319.645l-.007.02a.522.522 0 01-.616.354l-1.122-.259a2.347 2.347 0 01-.783-.34l-.78-.525-.276 2.095c-.02.154.01.31.088.444l2.336 4.058a.606.606 0 01-.22.827l-.02.011a.607.607 0 01-.803-.176l-2.611-3.735-.791 1.579a1.171 1.171 0 01-.23.314L1.332 13.82a.593.593 0 01-.804.022L.5 13.818a.592.592 0 01-.05-.842l1.481-1.65.805-2.915.003.003.231-2.28-.816.367L.849 7.876a.484.484 0 01-.626.065l-.013-.01a.484.484 0 01-.129-.667z"/><path d="M11.965 3.158l2.682-1.832H7.79V.28H16v13.61h-1.353l-2.682 1.832V13.89H8.694v-1.047h3.27V3.158z"/></g><defs><clipPath id="clip0_583_807"><path fill="#fff" transform="matrix(-1 0 0 1 16 0)" d="M0 0h16v16H0z"/></clipPath></defs></svg>