<svg width="16" height="16" fill="none" xmlns="http://www.w3.org/2000/svg"><g clip-path="url(#clip0_583_730)"><path d="M11.604 3.587H9.775v-2.18c.316-.07.527-.352.527-.704A.705.705 0 009.6 0H6.4a.705.705 0 00-.703.703.72.72 0 00.563.704v2.215H4.43c-.597 0-1.054.492-1.054 1.055v8.791c0 .598.457 1.055 1.055 1.055h.563v.422c0 .598.492 1.055 1.055 1.055.597 0 1.054-.492 1.054-1.055v-.422h1.794v.422c0 .598.492 1.055 1.055 1.055.598 0 1.055-.492 1.055-1.055v-.422h.562c.598 0 1.055-.492 1.055-1.055V4.677a1.016 1.016 0 00-1.02-1.09zM9.74 6.435c.457 0 .844.387.844.844a.856.856 0 01-.844.844.856.856 0 01-.844-.844c-.035-.492.352-.844.844-.844zM7.278 1.407H8.72v2.18H7.278v-2.18zM5.801 12.8c-.597 0-1.09-.492-1.09-1.09 0-.598.493-1.09 1.09-1.09.598 0 1.09.492 1.09 1.09 0 .598-.492 1.09-1.09 1.09zm0-4.15l-.879-2.637 2.321-.773.88 2.637L5.8 8.65zm4.959 3.2a1.2 1.2 0 01-.528.774 1.21 1.21 0 01-.914.176 1.21 1.21 0 01-.95-1.442l.317-1.547 2.391.527-.316 1.513z" fill="#000"/></g><defs><clipPath id="clip0_583_730"><path fill="#fff" d="M0 0h16v16H0z"/></clipPath></defs></svg>