<svg width="16" height="16" fill="none" xmlns="http://www.w3.org/2000/svg"><g clip-path="url(#clip0_583_718)" fill="#000"><path d="M8.658.579h-.936v14.813h.936V.579zM3.339 3.054a1.238 1.238 0 100-2.475 1.238 1.238 0 000 2.475zm2.412 1.765c-.25-.847-.812-1.408-1.445-1.408H2.373c-.633 0-1.195.561-1.446 1.408L.015 8.052a.51.51 0 00.371.617A.501.501 0 001 8.304l.908-3.223h.268l-1.58 5.606h1.49v4.159a.575.575 0 001.15 0v-4.159h.318v4.159a.576.576 0 001.15 0v-4.159h1.38l-1.58-5.606h.268l.908 3.223a.5.5 0 00.612.365.51.51 0 00.371-.617l-.91-3.233zm7.473-1.765a1.237 1.237 0 100-2.475 1.237 1.237 0 000 2.475zm1.524.349h-3.252c-.6 0-1.252.653-1.252 1.252v4.16a.543.543 0 001.086 0v-3.42h.25v9.283a.713.713 0 101.427 0V9.291h.23v5.387a.713.713 0 101.427 0V5.395h.25v3.42a.543.543 0 001.086 0v-4.16c0-.6-.653-1.252-1.252-1.252z"/></g><defs><clipPath id="clip0_583_718"><path fill="#fff" d="M0 0h16v16H0z"/></clipPath></defs></svg>