<svg width="16" height="16" fill="none" xmlns="http://www.w3.org/2000/svg"><g clip-path="url(#clip0_583_802)" fill="#10752E"><path d="M11.094 3.622a1.27 1.27 0 100-2.539 1.27 1.27 0 000 2.539zm4.825 3.642l-.842-1.266a2.352 2.352 0 00-.791-.723l-1.65-.925c-.303-.14-.532-.23-.819-.192l-.79.107c-.294.04-.562.19-.75.42l-1.504 1.6-1.376.507a.523.523 0 00-.319.645l.007.02c.08.261.35.415.616.354l1.122-.259c.28-.064.545-.18.783-.34l.78-.525.276 2.095c.02.154-.01.31-.088.444l-2.336 4.058a.606.606 0 00.22.827l.02.011a.607.607 0 00.803-.176l2.611-3.735.791 1.579c.059.117.136.223.23.314l1.755 1.716a.593.593 0 00.804.022l.028-.024a.592.592 0 00.05-.842l-1.481-1.65-.805-2.915-.003.003-.231-2.28.816.367 1.305 1.374c.164.173.43.2.626.065l.013-.009a.484.484 0 00.129-.667z"/><path d="M4.035 3.158L1.353 1.326H8.21V.28H0v13.61h1.353l2.682 1.832V13.89h3.271v-1.047h-3.27V3.158z"/></g><defs><clipPath id="clip0_583_802"><path fill="#fff" d="M0 0h16v16H0z"/></clipPath></defs></svg>