<svg width="16" height="16" fill="none" xmlns="http://www.w3.org/2000/svg"><g clip-path="url(#clip0_583_734)" fill="#000"><path d="M12 0H4c-.85 0-1.5.65-1.5 1.5v14c0 .3.2.5.5.5h1.5c.3 0 .5-.2.5-.5v-11c0-.3.2-.5.5-.5h5c.3 0 .5.2.5.5v11c0 .3.2.5.5.5H13c.3 0 .5-.2.5-.5v-14C13.5.65 12.85 0 12 0zM6.85 2.35c-.1.1-.2.15-.35.15-.15 0-.25-.05-.35-.15-.1-.1-.15-.2-.15-.35 0-.15.05-.25.15-.35.2-.2.5-.2.7 0 .1.1.15.2.15.35 0 .15-.05.25-.15.35zm1.5 0c-.1.1-.2.15-.35.15-.15 0-.25-.05-.35-.15-.1-.1-.15-.2-.15-.35 0-.15.05-.25.15-.35.2-.2.5-.2.7 0 .1.1.15.2.15.35 0 .15-.05.25-.15.35zm1.5 0c-.1.1-.2.15-.35.15-.15 0-.25-.05-.35-.15-.1-.1-.15-.2-.15-.35 0-.15.05-.25.15-.35.2-.2.5-.2.7 0 .1.1.15.2.15.35 0 .15-.05.25-.15.35zM15.5 7.5h-1c-.3 0-.5.2-.5.5s.2.5.5.5h1c.3 0 .5-.2.5-.5s-.2-.5-.5-.5zm-1.4-.2c.1 0 .2-.05.3-.1l.8-.6c.2-.15.25-.5.1-.7-.15-.2-.45-.25-.7-.1l-.8.6c-.2.15-.25.5-.1.7.1.15.25.2.4.2zm.3 1.45c-.2-.15-.55-.1-.7.1-.15.2-.1.55.1.7l.8.6c.1.05.2.1.3.1.15 0 .3-.05.4-.2.15-.2.1-.55-.1-.7l-.8-.6zM2 8c0-.3-.2-.5-.5-.5h-1c-.3 0-.5.2-.5.5s.2.5.5.5h1c.3 0 .5-.2.5-.5zm-.6-2.15c-.2-.15-.55-.1-.7.1-.15.2-.1.55.1.7l.8.6c.1.05.2.1.3.1.15 0 .3-.05.4-.2.15-.2.1-.55-.1-.7l-.8-.6zm.2 2.9l-.8.6c-.2.15-.25.5-.1.7.1.15.25.2.4.2.1 0 .2-.05.3-.1l.8-.6c.2-.15.25-.5.1-.7-.15-.2-.45-.25-.7-.1z"/><path d="M10.1 8c-.45-.1-.9-.2-1.35-.2.45-.25.75-.75.75-1.3C9.5 5.65 8.85 5 8 5s-1.5.65-1.5 1.5c0 .55.3 1.05.75 1.3-.45.05-.9.1-1.35.2-.2.05-.4.25-.4.5V12c0 .3.2.5.5.5h.5v3c0 .3.2.5.5.5h2c.3 0 .5-.2.5-.5v-3h.5c.3 0 .5-.2.5-.5V8.5c0-.25-.15-.45-.4-.5z"/></g><defs><clipPath id="clip0_583_734"><path fill="#fff" d="M0 0h16v16H0z"/></clipPath></defs></svg>