<svg width="17" height="17" fill="none" xmlns="http://www.w3.org/2000/svg"><g clip-path="url(#clip0_2302_682)" stroke="#000" stroke-width="1.002" stroke-linejoin="round"><path d="M2.831 9.591a.502.502 0 00.419-.414c.378-2.295 2.051-3.676 4-3.676 1.812 0 3.02 1.18 3.508 2.43a.495.495 0 00.381.309c1.563.255 2.863 1.298 2.863 3.113 0 1.856-1.519 3.15-3.375 3.15H3.312C1.766 14.503.5 13.731.5 12.028c0-1.515 1.21-2.258 2.332-2.437z"/><path d="M12.027 8.484a2.5 2.5 0 10-3.862-2.876m6.338.894h1.009M10.502 1.5v1.01m-3.536.456l.714.714m6.365-.714l-.714.714" stroke-linecap="round"/></g><defs><clipPath id="clip0_2302_682"><path fill="#fff" d="M0 0h16.003v16.003H0z"/></clipPath></defs></svg>