<svg width="16" height="16" fill="none" xmlns="http://www.w3.org/2000/svg"><path d="M3.391 1.946h3.756a.458.458 0 00.422-.29L8.163.168A.124.124 0 008.05 0H3.391a.447.447 0 00-.446.454v1.028c0 .251.195.464.446.464zM5.29 5.647a2.363 2.363 0 002.34-2.091h.426c.046 0 .09-.02.109-.063a.109.109 0 00-.017-.122l-.59-.695-4.162.008a.446.446 0 00-.452.4A2.348 2.348 0 005.29 5.647zm3.597 8.709h-4.86a.52.52 0 010-1.04h3.42c.07 0 .133-.033.166-.094a.18.18 0 00-.013-.19s-4.516-6.462-4.531-6.5l-.226-.003A1.162 1.162 0 001.67 7.67l-.122 6.712a1.09 1.09 0 001.083 1.112.457.457 0 00.456.506H8.55a.456.456 0 00.455-.506l-.118-1.138zm3.427-5.646a.965.965 0 00-.706.227l-.769.652-2.721-2.71a1.162 1.162 0 00-.82-.338H4.32l4.219 6.027a.085.085 0 00.155-.057l-.275-2.627 1.372 1.4a1.422 1.422 0 001.935.091l1.134-.961a.97.97 0 00.113-1.364.963.963 0 00-.659-.34zm1.266-5.859h-2.05a.87.87 0 00-.869.87v3.091c0 .48.388.87.868.87h.102a.61.61 0 00.233.411c.15.115.341.145.516.084 0 0 1.48-.537 1.522-.556.342-.159.55-.441.55-.808V3.72a.87.87 0 00-.871-.87zm-1.558.973a.601.601 0 00-.388.575V7.01h-.116a.19.19 0 01-.186-.185V3.73c0-.099.087-.175.186-.175h1.26l-.756.268z" fill="#000"/></svg>