<svg width="24" height="24" fill="none" xmlns="http://www.w3.org/2000/svg"><path d="M12 .001c-6.656 0-12 5.39-12 12 0 6.656 5.344 12 12 12 6.61 0 12-5.344 12-12 0-6.61-5.39-12-12-12zm0 22.5c-5.813 0-10.5-4.688-10.5-10.5 0-5.766 4.688-10.5 10.5-10.5 5.766 0 10.5 4.734 10.5 10.5 0 5.813-4.734 10.5-10.5 10.5zm0-13.875a1.11 1.11 0 001.125-1.125A1.14 1.14 0 0012 6.376a1.11 1.11 0 00-1.125 1.125c0 .656.469 1.125 1.125 1.125zm2.25 7.875h-1.5v-5.25c0-.375-.375-.75-.75-.75h-1.5c-.422 0-.75.375-.75.75 0 .422.328.75.75.75h.75v4.5h-1.5c-.422 0-.75.375-.75.75 0 .422.328.75.75.75h4.5c.375 0 .75-.328.75-.75 0-.375-.375-.75-.75-.75z" fill="#510C76"/></svg>