<svg width="15" height="14" fill="none" xmlns="http://www.w3.org/2000/svg"><path d="M1.333 3.167A1.333 1.333 0 000 4.5v7.667A1.333 1.333 0 001.333 13.5h1V3.167h-1zm12 0h-1V13.5h1a1.333 1.333 0 001.334-1.333V4.5a1.333 1.333 0 00-1.334-1.333zm-3-1.334A1.333 1.333 0 009 .5H5.667a1.333 1.333 0 00-1.334 1.333v1.334h-.666V13.5H11V3.167h-.667V1.833zm-4.666 0H9v1.334H5.667V1.833zm3.333 7H8v1a.667.667 0 01-1.333 0v-1h-1a.667.667 0 110-1.333h1v-1A.667.667 0 118 6.5v1h1a.667.667 0 010 1.333z" fill="#000"/></svg>