<svg width="874" height="175" fill="none" xmlns="http://www.w3.org/2000/svg"><g clip-path="url(#clip0_567_901)"><path d="M306.641 155.248V34.838l71.204 60.194-71.204 60.216z" stroke="#4E106F" stroke-width=".34" stroke-miterlimit="10"/><path d="M0 154h303V36H0l37.553 60.168L0 154z" fill="#F7F7F8"/><path d="M304.92 157.343c-.945 0-1.719-.953-1.719-2.117V34.838c0-1.164.774-2.116 1.719-2.116.946 0 1.719.952 1.719 2.116v120.388c0 1.164-.773 2.117-1.719 2.117z" fill="#4E106F"/><path d="M835.597 95.032a37.518 37.518 0 00-26.066-19.324 596.466 596.466 0 00-113.585-10.921H462.143a52.103 52.103 0 01-44.735-14.54L366.909 0h-35.94l21.106 43.05c7.396 15.07 14.156 30.457 19.348 46.416 3.2 9.82 10.85 17.842 20.979 21.313l19.835 6.794a528.496 528.496 0 00171.353 28.531h168.725c39.119 0 77.942-6.582 114.857-19.493a8.74 8.74 0 005.849-8.233 8.735 8.735 0 00-4.959-7.874l-32.444-15.472h-.021z" fill="#F7F7F8"/><path d="M579.777 146.062c-17.081-.233-36.937-2.032-54.801-4.127-27.867-3.281-56.263-7.937-91.822-48.151-38.759-43.834-82.625-53.866-82.625-53.866l1.526 3.111s0 .042.021.064c1.759 3.598 4.641 6.519 8.244 8.275l1.589.783a246.236 246.236 0 0192.034 77.825c41.09 10.392 83.345 15.79 125.812 16.107l.022-.021z" fill="#4E106F"/><path d="M431.267 79.455c23.692 19.768 47.172 45.484 124.499 45.484h190.128c32.254 0 58.933 6.265 78.133 13.673a354.69 354.69 0 0029.837-7.662 352.34 352.34 0 00-105.681-16.234H558.055c-24.518 0-48.91-3.429-72.474-10.202-20.831-5.99-37.784-21.165-46.007-41.208-8.264-2.413-15.935-6.837-22.208-13.06l-26.68-26.54-48.252-.212 5.17 10.519c4.26.804 39.925 8.974 83.621 45.42l.042.022z" fill="#E8145A"/><path d="M503.87 99.16a3.642 3.642 0 003.644-3.64 3.642 3.642 0 00-3.644-3.641 3.642 3.642 0 00-3.645 3.64c0 2.01 1.631 3.64 3.645 3.64z" fill="#E1F5FE" stroke="#373F51" stroke-width=".35" stroke-miterlimit="10"/><path d="M503.87 99.16a3.642 3.642 0 003.644-3.64 3.642 3.642 0 00-3.644-3.641 3.642 3.642 0 00-3.645 3.64c0 2.01 1.631 3.64 3.645 3.64zm11.507 0a3.643 3.643 0 003.645-3.64 3.643 3.643 0 00-3.645-3.641 3.643 3.643 0 00-3.645 3.64c0 2.01 1.632 3.64 3.645 3.64z" fill="#E1F5FE" stroke="#373F51" stroke-width=".35" stroke-miterlimit="10"/><path d="M515.377 99.16a3.643 3.643 0 003.645-3.64 3.643 3.643 0 00-3.645-3.641 3.643 3.643 0 00-3.645 3.64c0 2.01 1.632 3.64 3.645 3.64zm11.506 0a3.643 3.643 0 003.645-3.64 3.643 3.643 0 00-3.645-3.641 3.643 3.643 0 00-3.645 3.64c0 2.01 1.632 3.64 3.645 3.64z" fill="#E1F5FE" stroke="#373F51" stroke-width=".35" stroke-miterlimit="10"/><path d="M526.883 99.16a3.643 3.643 0 003.645-3.64 3.643 3.643 0 00-3.645-3.641 3.643 3.643 0 00-3.645 3.64c0 2.01 1.632 3.64 3.645 3.64zm11.508 0a3.643 3.643 0 003.645-3.64 3.643 3.643 0 00-3.645-3.641 3.643 3.643 0 00-3.645 3.64c0 2.01 1.632 3.64 3.645 3.64z" fill="#E1F5FE" stroke="#373F51" stroke-width=".35" stroke-miterlimit="10"/><path d="M538.391 99.16a3.643 3.643 0 003.645-3.64 3.643 3.643 0 00-3.645-3.641 3.643 3.643 0 00-3.645 3.64c0 2.01 1.632 3.64 3.645 3.64zm11.484 0a3.643 3.643 0 003.645-3.64 3.643 3.643 0 00-3.645-3.641 3.643 3.643 0 00-3.645 3.64c0 2.01 1.632 3.64 3.645 3.64z" fill="#E1F5FE" stroke="#373F51" stroke-width=".35" stroke-miterlimit="10"/><path d="M549.875 99.16a3.643 3.643 0 003.645-3.64 3.643 3.643 0 00-3.645-3.641 3.643 3.643 0 00-3.645 3.64c0 2.01 1.632 3.64 3.645 3.64zm11.508 0a3.643 3.643 0 003.645-3.64 3.643 3.643 0 00-3.645-3.641 3.643 3.643 0 00-3.645 3.64c0 2.01 1.632 3.64 3.645 3.64z" fill="#E1F5FE" stroke="#373F51" stroke-width=".35" stroke-miterlimit="10"/><path d="M561.383 99.16a3.643 3.643 0 003.645-3.64 3.643 3.643 0 00-3.645-3.641 3.643 3.643 0 00-3.645 3.64c0 2.01 1.632 3.64 3.645 3.64zm7.861-3.64c0 2.01 1.632 3.64 3.645 3.64a3.643 3.643 0 003.645-3.64 3.642 3.642 0 00-3.645-3.641 3.643 3.643 0 00-3.645 3.64z" fill="#E1F5FE" stroke="#373F51" stroke-width=".35" stroke-miterlimit="10"/><path d="M569.244 95.52c0 2.01 1.632 3.64 3.645 3.64a3.643 3.643 0 003.645-3.64 3.642 3.642 0 00-3.645-3.641 3.643 3.643 0 00-3.645 3.64zm11.508 0c0 2.01 1.632 3.64 3.645 3.64a3.643 3.643 0 003.645-3.64 3.642 3.642 0 00-3.645-3.641 3.643 3.643 0 00-3.645 3.64z" fill="#E1F5FE" stroke="#373F51" stroke-width=".35" stroke-miterlimit="10"/><path d="M580.752 95.52c0 2.01 1.632 3.64 3.645 3.64a3.643 3.643 0 003.645-3.64 3.642 3.642 0 00-3.645-3.641 3.643 3.643 0 00-3.645 3.64zm11.506 0c0 2.01 1.632 3.64 3.645 3.64a3.643 3.643 0 003.645-3.64 3.642 3.642 0 00-3.645-3.641 3.643 3.643 0 00-3.645 3.64z" fill="#E1F5FE" stroke="#373F51" stroke-width=".35" stroke-miterlimit="10"/><path d="M592.258 95.52c0 2.01 1.632 3.64 3.645 3.64a3.643 3.643 0 003.645-3.64 3.642 3.642 0 00-3.645-3.641 3.643 3.643 0 00-3.645 3.64zm11.486 0c0 2.01 1.632 3.64 3.645 3.64a3.643 3.643 0 003.645-3.64 3.642 3.642 0 00-3.645-3.641 3.643 3.643 0 00-3.645 3.64z" fill="#E1F5FE" stroke="#373F51" stroke-width=".35" stroke-miterlimit="10"/><path d="M603.744 95.52c0 2.01 1.632 3.64 3.645 3.64a3.643 3.643 0 003.645-3.64 3.642 3.642 0 00-3.645-3.641 3.643 3.643 0 00-3.645 3.64zm11.506 0c0 2.01 1.632 3.64 3.645 3.64a3.643 3.643 0 003.645-3.64 3.642 3.642 0 00-3.645-3.641 3.643 3.643 0 00-3.645 3.64z" fill="#E1F5FE" stroke="#373F51" stroke-width=".35" stroke-miterlimit="10"/><path d="M615.25 95.52c0 2.01 1.632 3.64 3.645 3.64a3.643 3.643 0 003.645-3.64 3.642 3.642 0 00-3.645-3.641 3.643 3.643 0 00-3.645 3.64zm15.131 3.64a3.643 3.643 0 003.645-3.64 3.643 3.643 0 00-3.645-3.641 3.643 3.643 0 00-3.645 3.64c0 2.01 1.632 3.64 3.645 3.64z" fill="#E1F5FE" stroke="#373F51" stroke-width=".35" stroke-miterlimit="10"/><path d="M630.381 99.16a3.643 3.643 0 003.645-3.64 3.643 3.643 0 00-3.645-3.641 3.643 3.643 0 00-3.645 3.64c0 2.01 1.632 3.64 3.645 3.64zm11.508 0a3.643 3.643 0 003.645-3.64 3.643 3.643 0 00-3.645-3.641 3.643 3.643 0 00-3.645 3.64c0 2.01 1.632 3.64 3.645 3.64z" fill="#E1F5FE" stroke="#373F51" stroke-width=".35" stroke-miterlimit="10"/><path d="M641.889 99.16a3.643 3.643 0 003.645-3.64 3.643 3.643 0 00-3.645-3.641 3.643 3.643 0 00-3.645 3.64c0 2.01 1.632 3.64 3.645 3.64zm7.861-3.64c0 2.01 1.632 3.64 3.645 3.64a3.643 3.643 0 003.645-3.64 3.642 3.642 0 00-3.645-3.641 3.643 3.643 0 00-3.645 3.64z" fill="#E1F5FE" stroke="#373F51" stroke-width=".35" stroke-miterlimit="10"/><path d="M649.75 95.52c0 2.01 1.632 3.64 3.645 3.64a3.643 3.643 0 003.645-3.64 3.642 3.642 0 00-3.645-3.641 3.643 3.643 0 00-3.645 3.64zm15.153 3.64a3.643 3.643 0 003.645-3.64 3.643 3.643 0 00-3.645-3.641 3.643 3.643 0 00-3.645 3.64c0 2.01 1.632 3.64 3.645 3.64z" fill="#E1F5FE" stroke="#373F51" stroke-width=".35" stroke-miterlimit="10"/><path d="M664.903 99.16a3.643 3.643 0 003.645-3.64 3.643 3.643 0 00-3.645-3.641 3.643 3.643 0 00-3.645 3.64c0 2.01 1.632 3.64 3.645 3.64zm11.484 0a3.643 3.643 0 003.645-3.64 3.643 3.643 0 00-3.645-3.641 3.643 3.643 0 00-3.645 3.64c0 2.01 1.632 3.64 3.645 3.64z" fill="#E1F5FE" stroke="#373F51" stroke-width=".35" stroke-miterlimit="10"/><path d="M676.387 99.16a3.643 3.643 0 003.645-3.64 3.643 3.643 0 00-3.645-3.641 3.643 3.643 0 00-3.645 3.64c0 2.01 1.632 3.64 3.645 3.64zm11.508 0a3.643 3.643 0 003.645-3.64 3.643 3.643 0 00-3.645-3.641 3.643 3.643 0 00-3.645 3.64c0 2.01 1.632 3.64 3.645 3.64z" fill="#E1F5FE" stroke="#373F51" stroke-width=".35" stroke-miterlimit="10"/><path d="M687.895 99.16a3.643 3.643 0 003.645-3.64 3.643 3.643 0 00-3.645-3.641 3.643 3.643 0 00-3.645 3.64c0 2.01 1.632 3.64 3.645 3.64zm7.861-3.64c0 2.01 1.632 3.64 3.645 3.64a3.643 3.643 0 003.645-3.64 3.642 3.642 0 00-3.645-3.641 3.643 3.643 0 00-3.645 3.64z" fill="#E1F5FE" stroke="#373F51" stroke-width=".35" stroke-miterlimit="10"/><path d="M695.756 95.52c0 2.01 1.632 3.64 3.645 3.64a3.643 3.643 0 003.645-3.64 3.642 3.642 0 00-3.645-3.641 3.643 3.643 0 00-3.645 3.64zm11.508 0c0 2.01 1.631 3.64 3.645 3.64a3.642 3.642 0 003.644-3.64 3.641 3.641 0 00-3.644-3.641 3.642 3.642 0 00-3.645 3.64z" fill="#E1F5FE" stroke="#373F51" stroke-width=".35" stroke-miterlimit="10"/><path d="M707.264 95.52c0 2.01 1.631 3.64 3.645 3.64a3.642 3.642 0 003.644-3.64 3.641 3.641 0 00-3.644-3.641 3.642 3.642 0 00-3.645 3.64zm11.506 0c0 2.01 1.631 3.64 3.644 3.64a3.642 3.642 0 003.645-3.64 3.642 3.642 0 00-3.645-3.641 3.642 3.642 0 00-3.644 3.64z" fill="#E1F5FE" stroke="#373F51" stroke-width=".35" stroke-miterlimit="10"/><path d="M718.77 95.52c0 2.01 1.631 3.64 3.644 3.64a3.642 3.642 0 003.645-3.64 3.642 3.642 0 00-3.645-3.641 3.642 3.642 0 00-3.644 3.64zm11.486 0c0 2.01 1.632 3.64 3.645 3.64a3.643 3.643 0 003.645-3.64 3.642 3.642 0 00-3.645-3.641 3.643 3.643 0 00-3.645 3.64z" fill="#E1F5FE" stroke="#373F51" stroke-width=".35" stroke-miterlimit="10"/><path d="M730.256 95.52c0 2.01 1.632 3.64 3.645 3.64a3.643 3.643 0 003.645-3.64 3.642 3.642 0 00-3.645-3.641 3.643 3.643 0 00-3.645 3.64zm11.508 0c0 2.01 1.631 3.64 3.645 3.64a3.642 3.642 0 003.644-3.64 3.641 3.641 0 00-3.644-3.641 3.642 3.642 0 00-3.645 3.64z" fill="#E1F5FE" stroke="#373F51" stroke-width=".35" stroke-miterlimit="10"/><path d="M741.764 95.52c0 2.01 1.631 3.64 3.645 3.64a3.642 3.642 0 003.644-3.64 3.641 3.641 0 00-3.644-3.641 3.642 3.642 0 00-3.645 3.64zm11.506 0c0 2.01 1.631 3.64 3.644 3.64a3.642 3.642 0 003.645-3.64 3.642 3.642 0 00-3.645-3.641 3.642 3.642 0 00-3.644 3.64z" fill="#E1F5FE" stroke="#373F51" stroke-width=".35" stroke-miterlimit="10"/><path d="M753.27 95.52c0 2.01 1.631 3.64 3.644 3.64a3.642 3.642 0 003.645-3.64 3.642 3.642 0 00-3.645-3.641 3.642 3.642 0 00-3.644 3.64zm15.131 3.64a3.643 3.643 0 003.645-3.64 3.643 3.643 0 00-3.645-3.641 3.643 3.643 0 00-3.645 3.64c0 2.01 1.632 3.64 3.645 3.64z" fill="#E1F5FE" stroke="#373F51" stroke-width=".35" stroke-miterlimit="10"/><path d="M768.401 99.16a3.643 3.643 0 003.645-3.64 3.643 3.643 0 00-3.645-3.641 3.643 3.643 0 00-3.645 3.64c0 2.01 1.632 3.64 3.645 3.64z" fill="#E1F5FE" stroke="#373F51" stroke-width=".35" stroke-miterlimit="10"/><path d="M548.116 125.743l-82.011-46.288h34.5l198.711 54.754-121.681-.635a60.859 60.859 0 01-29.519-7.831z" fill="#D9D9DA"/><path d="M497.003 74.12l-39.904-32.255h-10.892l19.899 37.59h30.176l203.013 54.754c0-7.662-5.298-14.286-12.758-16.001L497.003 74.121z" fill="#FDFFFF"/><path d="M457.121 41.865h-10.914l17.08 32.256h33.716l-39.882-32.256z" fill="#E8145A"/><path d="M622.943 165.089l46.811 8.128a52.578 52.578 0 0016.191.296l13.011-1.778a4.976 4.976 0 004.302-4.931V138.95a4.976 4.976 0 00-4.302-4.931l-13.011-1.778a52.578 52.578 0 00-16.191.296l-46.811 8.128a4.976 4.976 0 00-4.132 4.91V160.2a4.994 4.994 0 004.132 4.911v-.022z" fill="#F4F4F5"/><path d="M618.811 145.554v14.625a4.992 4.992 0 004.132 4.91v-24.445a4.976 4.976 0 00-4.132 4.91z" fill="#F8FEFF"/><path d="M703.278 166.804V138.95a4.976 4.976 0 00-4.301-4.931v37.716a4.976 4.976 0 004.301-4.931z" fill="#4E106F"/><path d="M582.785 154.359l46.811 8.127a52.572 52.572 0 0016.19.296l13.012-1.778a4.976 4.976 0 004.302-4.931v-27.854a4.977 4.977 0 00-4.302-4.931l-13.012-1.778a52.584 52.584 0 00-16.19.296l-46.811 8.128a4.977 4.977 0 00-4.133 4.91v14.625a4.995 4.995 0 004.133 4.911v-.021z" fill="#F4F4F5"/><path d="M578.652 134.823v14.625a4.995 4.995 0 004.133 4.911v-24.446a4.977 4.977 0 00-4.133 4.91z" fill="#F8FEFF"/><path d="M663.12 156.073v-27.854a4.976 4.976 0 00-4.302-4.931v37.717a4.977 4.977 0 004.302-4.932z" fill="#4E106F"/><path d="M412.345 102.885a5.446 5.446 0 005.446-5.461 5.446 5.446 0 00-5.446-5.46h-.424l-60.48 4.465c-1.208.085-1.208 1.863 0 1.968l60.48 4.466h.424v.022z" fill="#D9D9DA"/><path d="M824.472 95.032h11.104a37.315 37.315 0 00-8.053-10.328h-4.344a2.638 2.638 0 00-2.564 3.26l1.271 5.058a2.653 2.653 0 002.565 1.99l.021.02zm-9.684-10.307h-3.815a4.312 4.312 0 00-4.323 4.318v1.693a4.312 4.312 0 004.323 4.317h5.086a2.637 2.637 0 002.564-3.26l-1.271-5.058a2.652 2.652 0 00-2.564-1.99v-.02z" fill="#373F51"/></g><path d="M133.056 121.112v-10.824h-5.72V98.584h-11v11.704h-13.112l21.472-42.944H112.2l-21.472 42.944v10.824h25.608V130h11v-8.888h5.72zm47.429-9.24v-26.4c0-11.968-8.8-18.656-19.008-18.656-10.208 0-19.096 6.688-19.096 18.656v26.4c0 11.968 8.888 18.656 19.096 18.656s19.008-6.688 19.008-18.656zm-11.44-.088c0 5.28-3.08 8.448-7.568 8.448-4.488 0-7.656-3.168-7.656-8.448V85.648c0-5.28 3.168-8.536 7.656-8.536 4.488 0 7.568 3.256 7.568 8.536v26.136zm63.093 9.328v-10.824h-5.72V98.584h-11v11.704h-13.112l21.472-42.944h-12.496l-21.472 42.944v10.824h25.608V130h11v-8.888h5.72z" fill="#4E106F"/><defs><clipPath id="clip0_567_901"><path fill="#fff" d="M0 0h874v175H0z"/></clipPath></defs></svg>