<svg width="231" height="44" fill="none" xmlns="http://www.w3.org/2000/svg"><g clip-path="url(#clip0_291_199)"><path d="M117.632 13.728c-.922.096-3.735.334-4.78.334-3.457 0-4.695-.906-5.327-1.389-1.871-1.42-2.129-3.452-2.129-5.143V.296h5.005v5.819c0 .97 0 2.038.987 2.848.542.418 1.935.573 3.496.573.921 0 1.84-.075 2.748-.225V.309h4.741v21.463h-4.741v-8.044zM22.556 6.61h-5.23v15.136h5.23V6.61zm-16.325 0H1v15.136h5.231V6.61z" fill="#510C76"/><path d="M11.778 13.554L22.556 6.61V0s-7.172 4.945-9.817 6.642c-.148.097-.303.206-.445.309a.972.972 0 00-.413.482h-.2a.965.965 0 00-.419-.482 5.984 5.984 0 00-.445-.309C8.18 4.945 1 0 1 0v6.61l10.778 6.944z" fill="#E7004C"/><path d="M192.312 7.446h.116c.073.395.201.778.381 1.138l5.457 13.181h5.689L194.731.264h-4.838l-9.23 21.476h5.683l5.463-13.182c.18-.36.308-.742.381-1.138h.116M68.12 10.719l-2.154-2.752-4.94-7.69h-6.212l7.398 10.493-7.379 10.957h6.212l5.037-7.935 2.038-2.97v-.103z" fill="#510C76"/><path d="M62.212 10.777l1.748 2.649 5.483 8.359h6.256s-4.953-7.466-6.663-10.102a7.724 7.724 0 00-.31-.443.947.947 0 00-.477-.412v-.2a.987.987 0 00.478-.417c.103-.135.212-.29.31-.444 1.709-2.63 6.662-9.471 6.662-9.471h-6.314l-7.173 10.5v-.02z" fill="#E7004C"/><path d="M136.408 10.777l7.231 10.988h5.805s-4.96-7.465-6.663-10.101a7.471 7.471 0 00-.31-.444.968.968 0 00-.483-.411v-.2c.202-.084.371-.23.483-.418.104-.135.213-.289.31-.443 1.703-2.63 6.663-9.471 6.663-9.471h-5.889l-7.147 10.5zM136.092.43h-4.947v21.348h4.947V.431zM45.893 21.74h5.096L41.752.264h-4.831L27.67 21.74h5.077l2.025-4.945h9.088l2.032 4.945zm-9.43-9.047l2.374-5.787c.179-.362.307-.747.38-1.145h.245c.07.397.197.783.374 1.145l2.368 5.787h-5.741zm66.301 9.047L93.528.264h-4.832l-9.23 21.476h5.077s.948-2.309 2.09-5.106v.161h9.03l2.012 4.945h5.089zm-14.525-9.047l2.373-5.787a4.36 4.36 0 00.38-1.145h.246c.07.397.196.783.374 1.145 0 .051 1.116 2.733 2.367 5.787h-5.74zM171.6 21.74h5.07L167.434.264h-4.831l-9.231 21.476h5.077l2.025-4.945h9.101l2.025 4.945zm-9.43-9.047l2.374-5.787c.179-.362.307-.747.381-1.145h.245c.07.397.196.783.374 1.145l2.367 5.787h-5.741zm63.741 9.047h5.095L221.77.264h-4.831l-9.231 21.476h5.083l2.026-4.945h9.088l2.006 4.945zm-9.43-9.047l2.373-5.787a4.32 4.32 0 00.381-1.145h.245c.071.397.197.783.374 1.145l2.367 5.787h-5.74zM24.224 40.882V32.94l-2.87 6.59h-.723l-2.928-6.59v7.94H17v-9.644h.716l3.302 7.433 3.226-7.433h.722v9.645h-.742zm3.78-3.112c-.017.47.06.94.226 1.382a1.846 1.846 0 001.877 1.196c.31.005.62-.052.91-.167.324-.154.614-.373.85-.643l.504.411a3.129 3.129 0 01-1.078.785 3.074 3.074 0 01-1.212.212c-1.806 0-2.754-1.151-2.754-3.382 0-2.058.974-3.305 2.58-3.305s2.58 1.202 2.58 3.182v.31l-4.483.019zm3.664-1.486a1.812 1.812 0 00-1.61-1.386 1.824 1.824 0 00-1.828 1.084 3.206 3.206 0 00-.226 1.235h3.78a3.42 3.42 0 00-.116-.933zM37.68 37.5v-3.138h.683v3.137l2.993-3.137h.877L39.24 37.46l3.296 3.427h-.929l-3.225-3.363v3.357H37.7v-3.363l-3.283 3.363h-.936l3.303-3.428-2.993-3.099h.877L37.68 37.5zm11.164 5.42v-2.038h-5.16v2.031h-.677v-2.61h.78c.497-.714.936-1.653.936-4.051v-1.89h3.805v5.94h1v2.618h-.684zm-.993-7.98h-2.47v1.492c0 2.193-.387 3.26-.813 3.858h3.29l-.007-5.35zm4.709 7.723a1.682 1.682 0 01-.439.758c-.335.29-.77.44-1.212.418h-.316v-.643h.251c.645 0 .916-.186 1.174-.893l.516-1.447-2.341-6.527h.748l1.935 5.71 1.935-5.71h.742l-2.993 8.334zm8.637-1.781v-3.087H57.7v3.087h-.678v-6.52h.678v2.855h3.496v-2.855h.683v6.52h-.683zm7.03 0v-.643a3.14 3.14 0 01-3.87.135 1.875 1.875 0 01-.47-1.286c0-1.196.838-1.884 2.237-1.884h2.077v-.733c0-1.042-.51-1.595-1.812-1.595a1.824 1.824 0 00-1.767.823l-.497-.43a2.425 2.425 0 012.264-1.004c1.69 0 2.49.772 2.49 2.141v4.476h-.652zm0-3.119h-2c-1.102 0-1.631.45-1.631 1.286 0 .836.516 1.286 1.677 1.286a2.105 2.105 0 001.593-.502c.281-.351.411-.8.361-1.247v-.823zm5.748 3.202a1.991 1.991 0 01-1.865-.92V44h-.677v-9.645h.677v.836a1.99 1.99 0 011.852-.92c1.65 0 2.45 1.1 2.45 3.357s-.812 3.337-2.438 3.337zm-.052-6.076c-1.252 0-1.813.836-1.813 2.733 0 1.896.549 2.739 1.813 2.739 1.264 0 1.812-.843 1.812-2.726 0-1.884-.548-2.746-1.812-2.746zm8.688 5.35a2.584 2.584 0 01-3.567 0c-.554-.573-.793-1.37-.793-2.63 0-1.26.239-2.058.793-2.624a2.445 2.445 0 011.787-.72c1.651 0 2.58 1.19 2.58 3.305.026 1.312-.239 2.096-.8 2.669zm-.451-4.81a1.88 1.88 0 00-2.664 0c-.406.437-.568 1.029-.568 2.18 0 1.15.142 1.736.568 2.18a1.863 1.863 0 002.054.412 1.85 1.85 0 00.61-.413c.413-.43.574-1.028.574-2.154 0-1.125-.148-1.742-.587-2.192l.013-.013zm8.372 7.491v-2.038h-5.16v2.031h-.71v-2.61h.787c.49-.714.929-1.653.929-4.051v-1.89h3.805v5.94h.994v2.618h-.645zm-1-7.98h-2.477v1.492c0 2.193-.38 3.26-.806 3.858h3.283v-5.35zm7.598 5.942v-3.087h-3.496v3.087h-.677v-6.52h.677v2.855h3.496v-2.855h.684v6.52h-.684zm5.954 0h-2.69v-6.52h.645v2.662h2.013c.513 0 1.005.203 1.368.565a1.926 1.926 0 010 2.728 1.938 1.938 0 01-1.368.565h.032zm-.11-3.267h-1.935v2.681h1.935a1.352 1.352 0 001.33-.804 1.335 1.335 0 00-.317-1.519 1.35 1.35 0 00-1.013-.358zm3.193 3.267v-6.52h.684v6.52h-.684zm7.631 0v-5.53l-3.69 5.53h-.677v-6.52h.677v5.523l3.69-5.523h.677v6.52h-.677zm-1.839-7.813c-1.115 0-1.767-.501-1.864-1.627h.678a1.193 1.193 0 002.373 0h.677c-.07 1.132-.715 1.634-1.864 1.634v-.007zm12.256 7.813v-.643a3.141 3.141 0 01-3.87.135 1.92 1.92 0 01-.465-1.286c0-1.196.839-1.884 2.238-1.884h2.071v-.733c0-1.042-.503-1.595-1.806-1.595a1.839 1.839 0 00-1.774.823l-.49-.43a2.42 2.42 0 012.264-1.004c1.69 0 2.49.772 2.49 2.141v4.476h-.658zm0-3.119h-1.993c-1.103 0-1.639.45-1.639 1.286 0 .836.523 1.286 1.677 1.286a2.11 2.11 0 001.6-.502 1.7 1.7 0 00.355-1.247v-.823zm4.702 3.202a2.478 2.478 0 01-2.077-.997l.464-.437a2 2 0 001.639.83c1.554 0 2.154-1.196 2.154-2.572h-3.044v-.553h3.031c-.064-1.286-.742-2.328-2.154-2.328a1.996 1.996 0 00-1.632.83l-.465-.431a2.476 2.476 0 012.077-1.003c1.781 0 2.858 1.286 2.858 3.343 0 2.058-1.071 3.318-2.851 3.318zm7.611 0a1.975 1.975 0 01-1.864-.92V44h-.677v-9.645h.677v.836a1.99 1.99 0 011.851-.92c1.652 0 2.451 1.1 2.451 3.357s-.812 3.337-2.438 3.337zm-.051-6.076c-1.252 0-1.813.836-1.813 2.733 0 1.896.548 2.739 1.813 2.739 1.264 0 1.806-.843 1.806-2.726 0-1.884-.542-2.746-1.806-2.746zm8.688 5.35a2.584 2.584 0 01-3.567 0c-.555-.573-.8-1.37-.8-2.63 0-1.26.245-2.058.8-2.624a2.442 2.442 0 011.787-.72c1.651 0 2.58 1.19 2.58 3.305 0 1.312-.239 2.096-.8 2.669zm-.452-4.81a1.878 1.878 0 00-2.664 0c-.412.437-.567 1.029-.567 2.18 0 1.15.142 1.736.567 2.18a1.866 1.866 0 002.664 0c.413-.431.574-1.03.574-2.155 0-1.125-.148-1.742-.574-2.192v-.013zm7.638 5.453v-5.948h-3.496v5.948h-.678v-6.52h4.857v6.52h-.683zm7.256-.643a2.584 2.584 0 01-3.567 0c-.561-.573-.8-1.37-.8-2.63 0-1.26.239-2.058.8-2.624a2.442 2.442 0 011.786-.72c1.645 0 2.581 1.19 2.581 3.305 0 1.312-.213 2.096-.8 2.669zm-.452-4.81a1.878 1.878 0 00-2.664 0c-.412.437-.574 1.029-.574 2.18 0 1.15.149 1.736.574 2.18a1.866 1.866 0 002.664 0c.413-.431.574-1.03.574-2.155 0-1.125-.148-1.742-.574-2.192v-.013zm5.999 5.536a1.97 1.97 0 01-1.858-.92V44h-.683v-9.645h.683v.836a1.98 1.98 0 011.845-.92c1.651 0 2.451 1.1 2.451 3.357s-.813 3.337-2.438 3.337zm-.052-6.076c-1.251 0-1.806.836-1.806 2.733 0 1.896.542 2.739 1.806 2.739 1.265 0 1.813-.843 1.813-2.727 0-1.883-.548-2.745-1.813-2.745zm6.534.051v5.942h-.677v-5.948h-2.315v-.579h5.16v.579l-2.168.006zm9.895-4.096h-.665v12.153h.665V30.844zm8.553 4.347h-1.974v5.671h1.974v-5.67zm6.102 0h-1.974v5.671h1.974v-5.67z" fill="#510C76"/><path d="M192.148 37.802l4.037-2.572v-2.476s-2.689 1.852-3.676 2.489a1.475 1.475 0 00-.168.115.357.357 0 00-.155.18h-.077a.353.353 0 00-.155-.18 1.475 1.475 0 00-.168-.115c-.986-.644-3.676-2.489-3.676-2.489v2.476l4.038 2.572z" fill="#E7004C"/><path d="M210.55 36.747l-.813-1.029-1.851-2.887h-2.322l2.767 3.935-2.76 4.11h2.328l1.884-2.978.767-1.112v-.039z" fill="#510C76"/><path d="M208.338 36.766l.645.997 2.051 3.125h2.348s-1.858-2.797-2.496-3.787l-.116-.167a.386.386 0 00-.181-.155v-.07a.378.378 0 00.181-.161c.038-.045.077-.11.116-.161.645-.99 2.496-3.55 2.496-3.55h-2.361l-2.683 3.93z" fill="#E7004C"/><path d="M203.687 38.4a2.72 2.72 0 01-2.019.92 2.48 2.48 0 01-1.608-.793 2.465 2.465 0 010-3.334 2.48 2.48 0 011.608-.793 2.629 2.629 0 011.974.875l1.045-1.216a3.865 3.865 0 00-3.012-1.285 3.997 3.997 0 00-2.903 1.18 3.962 3.962 0 00-1.148 2.909 4.143 4.143 0 001.135 2.906 4.24 4.24 0 006.038-.16l-1.11-1.21z" fill="#510C76"/></g><defs><clipPath id="clip0_291_199"><path fill="#fff" transform="translate(.5)" d="M0 0h230v44H0z"/></clipPath></defs></svg>