<svg width="188" height="36" fill="none" xmlns="http://www.w3.org/2000/svg"><g clip-path="url(#clip0_291_84)"><path d="M95.121 11.232c-.752.079-3.04.268-3.898.268-2.82 0-3.83-.736-4.346-1.136-1.525-1.163-1.73-2.825-1.73-4.225V.242h4.077v4.761c0 .794-.021 1.668.805 2.33.442.343 1.557.469 2.851.469.826 0 1.336-.053 2.241-.184V.242h3.867v17.56h-3.867v-6.57zM17.582 5.408h-4.267v12.384h4.267V5.408zm-13.315 0H0v12.384h4.267V5.408z" fill="#fff"/><path d="M8.79 11.09l8.792-5.682V0s-5.85 4.04-8.007 5.434a6.314 6.314 0 00-.363.253c-.284.195-.342.395-.342.395H8.7s-.052-.2-.336-.395a15.43 15.43 0 00-.363-.253C5.85 4.04 0 0 0 0v5.408l8.79 5.682z" fill="#E7004C"/><path d="M156.031 6.066h.1c.027.268.153.557.311.936l4.45 10.78h4.646L158.004.21h-3.94l-7.528 17.572h4.634s4.42-10.685 4.456-10.78c.158-.379.284-.668.311-.936h.1M54.745 8.77l-1.758-2.252-4.03-6.292h-5.066l6.035 8.586-6.019 8.964h5.066l4.11-6.492 1.662-2.43V8.77z" fill="#fff"/><path d="M49.925 8.812l1.42 2.173 4.473 6.823h5.103s-4.04-6.108-5.435-8.265a6.294 6.294 0 00-.252-.363c-.195-.284-.395-.342-.395-.342V8.67s.2-.053.395-.342c.078-.11.168-.237.252-.363 1.394-2.157 5.435-7.75 5.435-7.75h-5.15l-5.85 8.586.004.01z" fill="#E7004C"/><path d="M110.441 8.812l5.892 8.996h4.761s-4.04-6.108-5.434-8.265a6.452 6.452 0 00-.253-.363c-.194-.284-.394-.342-.394-.342V8.67s.2-.053.394-.342c.079-.11.169-.237.253-.363 1.394-2.157 5.434-7.75 5.434-7.75h-4.803l-5.85 8.586v.01zm-.258-8.46h-4.035v17.466h4.035V.352zm-73.568 17.43h4.151L33.238.21h-3.94l-7.529 17.572h4.146s.742-1.82 1.646-4.046h7.413c.905 2.23 1.647 4.046 1.647 4.046h-.006zm-7.691-7.402l1.936-4.75c.158-.38.284-.669.31-.937h.2c.027.268.153.557.31.936l1.931 4.75h-4.687zm54.071 7.402L75.467.21h-3.94l-7.529 17.572h4.146s.768-1.889 1.7-4.172v.126h7.359c.905 2.23 1.647 4.046 1.647 4.046H83h-.005zM71.153 10.38l1.936-4.75c.158-.38.284-.669.31-.937h.2c.027.268.153.557.31.936l1.931 4.75h-4.687zm67.991 7.402h4.151L135.767.21h-3.941l-7.528 17.572h4.146l1.646-4.046h7.413c.905 2.23 1.646 4.046 1.646 4.046h-.005zm-7.691-7.402l1.936-4.75c.158-.38.284-.669.31-.937h.2c.026.268.153.557.311.936.015.042.91 2.236 1.93 4.75h-4.687zm51.988 7.402h4.15L180.063.21h-3.94l-7.529 17.572h4.146s.742-1.82 1.647-4.046h7.412c.905 2.23 1.647 4.046 1.647 4.046h-.005zm-7.692-7.402l1.936-4.75c.158-.38.284-.669.311-.937h.2c.026.268.152.557.31.936l1.931 4.75h-4.688zM6.076 33.449v-6.503L3.73 32.344h-.584L.758 26.946v6.503h-.59v-7.886h.59l2.693 6.081 2.625-6.081h.584v7.886h-.584zm3.084-2.547c.02.579.052.821.183 1.131.263.653.784.974 1.531.974.284 0 .521-.042.737-.132.236-.1.378-.21.694-.51l.41.331c-.378.379-.562.51-.878.642-.284.121-.61.179-.99.179-1.477 0-2.245-.942-2.245-2.773 0-1.683.794-2.704 2.093-2.704 1.3 0 2.094.984 2.094 2.605v.252H9.154l.005.005zm2.982-1.22c-.205-.72-.747-1.142-1.441-1.142-.61 0-1.12.342-1.358.9-.12.279-.163.51-.184 1.01h3.083c-.021-.421-.032-.552-.1-.763v-.005zm4.908.999V28.11h.553v2.572l2.441-2.572h.715l-2.44 2.535 2.693 2.805h-.758l-2.646-2.747v2.747h-.552v-2.747L14.41 33.45h-.758l2.694-2.804-2.441-2.536h.715l2.441 2.572h-.01zm9.107 4.43v-1.662h-4.214v1.662h-.552v-2.136h.641c.4-.59.758-1.352.758-3.314v-1.552h3.104v4.866h.815v2.136h-.552zm-.816-6.523h-2.02v1.22c0 1.794-.315 2.667-.663 3.167h2.683v-4.388zm3.846 6.312c-.12.332-.205.48-.358.621-.236.221-.573.342-.989.342h-.263v-.5h.206c.541 0 .747-.152.957-.73l.42-1.184-1.909-5.34h.61l1.573 4.677 1.573-4.677h.61l-2.43 6.791zm7.044-1.451v-2.526h-2.856v2.526h-.553v-5.34h.553v2.336h2.856v-2.336h.553v5.34h-.553zm5.729 0v-.532c-.447.453-.857.6-1.593.6-.737 0-1.205-.132-1.542-.49-.237-.252-.379-.641-.379-1.041 0-.973.684-1.541 1.826-1.541h1.694v-.6c0-.852-.41-1.305-1.479-1.305-.736 0-1.12.19-1.441.674l-.4-.353c.447-.631 1-.82 1.847-.82 1.378 0 2.03.63 2.03 1.751v3.657h-.562zm0-2.547h-1.625c-.9 0-1.336.369-1.336 1.073 0 .706.42 1.042 1.367 1.042.48 0 .932-.042 1.305-.41.195-.19.295-.521.295-1.02v-.69l-.005.005zm4.693 2.615c-.794 0-1.141-.242-1.52-.752V36h-.552v-7.886h.552v.69c.41-.532.747-.753 1.51-.753 1.347 0 1.999.9 1.999 2.746 0 1.847-.663 2.725-1.989 2.725v-.005zm-.042-4.977c-1.02 0-1.478.69-1.478 2.236 0 1.547.447 2.236 1.478 2.236s1.479-.69 1.479-2.226-.448-2.251-1.479-2.251v.005zm7.087 4.388c-.369.379-.879.589-1.452.589-.574 0-1.084-.21-1.452-.59-.458-.462-.653-1.12-.653-2.151 0-1.031.195-1.683.653-2.146.368-.38.878-.59 1.452-.59 1.346 0 2.104.974 2.104 2.704 0 1.063-.195 1.705-.652 2.184zm-.369-3.935a1.498 1.498 0 00-1.083-.453c-.41 0-.816.169-1.084.453-.337.352-.468.841-.468 1.783s.12 1.42.468 1.784c.273.289.673.452 1.084.452.41 0 .815-.168 1.083-.453.337-.352.469-.841.469-1.762 0-.92-.121-1.441-.469-1.804zm6.803 6.118v-1.662h-4.214v1.662h-.553v-2.136h.642c.4-.59.758-1.352.758-3.314v-1.552h3.103v4.866h.816v2.136h-.552zm-.816-6.523h-2.02v1.22c0 1.794-.316 2.667-.663 3.167h2.683v-4.388zm6.224 4.861v-2.526h-2.857v2.526h-.552v-5.34h.552v2.336h2.857v-2.336h.552v5.34h-.552zm4.85 0h-2.194v-5.34h.553v2.193h1.641c.979 0 1.615.621 1.615 1.573 0 .953-.641 1.574-1.615 1.574zm-.09-2.673h-1.55v2.194h1.55c.747 0 1.152-.39 1.152-1.1 0-.71-.4-1.1-1.152-1.1v.006zm2.605 2.673v-5.34h.552v5.34h-.552zm6.224 0v-4.52l-3.004 4.52h-.553v-5.34h.553v4.519l3.004-4.52h.552v5.34h-.552zm-1.5-6.392c-.91 0-1.441-.41-1.52-1.331h.552c.053.573.379.883.968.883.59 0 .91-.31.968-.883h.553c-.074.92-.61 1.33-1.52 1.33zm10.001 6.392v-.532c-.447.453-.858.6-1.594.6-.737 0-1.205-.132-1.541-.49-.237-.252-.38-.641-.38-1.041 0-.973.685-1.541 1.826-1.541h1.694v-.6c0-.852-.41-1.305-1.478-1.305-.737 0-1.12.19-1.441.674l-.4-.353c.447-.631 1-.82 1.846-.82 1.378 0 2.03.63 2.03 1.751v3.657h-.562zm0-2.547h-1.626c-.9 0-1.336.369-1.336 1.073 0 .706.421 1.042 1.368 1.042.479 0 .931-.042 1.305-.41.194-.19.294-.521.294-1.02v-.69l-.005.005zm3.83 2.615c-.784 0-1.173-.253-1.694-.82l.379-.353c.4.442.726.673 1.336.673 1.268 0 1.757-.973 1.757-2.115h-2.483v-.452h2.473c-.053-1.073-.61-1.905-1.758-1.905-.594 0-.93.242-1.325.674l-.38-.353c.532-.563.911-.82 1.695-.82 1.452 0 2.336 1.03 2.336 2.735 0 1.705-.879 2.736-2.336 2.736zm6.213 0c-.794 0-1.142-.242-1.52-.752V36H95.6v-7.886h.553v.69c.41-.532.747-.753 1.51-.753 1.346 0 1.999.9 1.999 2.746 0 1.847-.663 2.725-1.989 2.725v-.005zm-.042-4.977c-1.02 0-1.478.69-1.478 2.236 0 1.547.447 2.236 1.478 2.236s1.478-.69 1.478-2.226-.447-2.251-1.478-2.251v.005zm7.086 4.388c-.368.379-.878.589-1.452.589-.573 0-1.084-.21-1.452-.59-.457-.462-.652-1.12-.652-2.151 0-1.031.195-1.683.652-2.146.368-.38.879-.59 1.452-.59 1.347 0 2.105.974 2.105 2.704 0 1.063-.195 1.705-.653 2.184zm-.368-3.935a1.498 1.498 0 00-1.084-.453c-.41 0-.815.169-1.084.453-.336.352-.468.841-.468 1.783s.121 1.42.468 1.784a1.5 1.5 0 001.084.452c.411 0 .816-.168 1.084-.453.337-.352.468-.841.468-1.762 0-.92-.121-1.441-.468-1.804zm6.229 4.456v-4.867h-2.857v4.867h-.552v-5.34h3.961v5.34h-.552zm5.918-.521c-.368.379-.878.589-1.452.589-.573 0-1.083-.21-1.452-.59-.457-.462-.652-1.12-.652-2.151 0-1.031.195-1.683.652-2.146.369-.38.879-.59 1.452-.59 1.347 0 2.105.974 2.105 2.704 0 1.063-.195 1.705-.653 2.184zm-.368-3.935a1.498 1.498 0 00-1.084-.453c-.41 0-.815.169-1.083.453-.337.352-.469.841-.469 1.783s.121 1.42.469 1.784c.273.289.673.452 1.083.452.411 0 .816-.168 1.084-.453.337-.352.468-.841.468-1.762 0-.92-.121-1.441-.468-1.804zm4.893 4.524c-.795 0-1.142-.242-1.521-.752V36h-.552v-7.886h.552v.69c.411-.532.747-.753 1.51-.753 1.347 0 1.999.9 1.999 2.746 0 1.847-.663 2.725-1.988 2.725v-.005zm-.042-4.977c-1.021 0-1.479.69-1.479 2.236 0 1.547.448 2.236 1.479 2.236 1.031 0 1.478-.69 1.478-2.226s-.447-2.251-1.478-2.251v.005zm5.329.047v4.867h-.553v-4.867h-1.888v-.478h4.224v.478h-1.783zm8.07-3.351h-.542v9.943h.542v-9.943zm6.976 3.557h-1.61v4.64h1.61v-4.64zm4.977 0h-1.61v4.64h1.61v-4.64z" fill="#fff"/><path d="M143.037 30.923l3.293-2.13v-2.026s-2.193 1.515-2.998 2.036a2.646 2.646 0 00-.137.095c-.105.073-.126.147-.126.147h-.063s-.021-.074-.127-.147a3.114 3.114 0 00-.136-.095c-.805-.52-2.999-2.036-2.999-2.036v2.026l3.293 2.13zm15.01-.857l-.663-.842-1.51-2.362h-1.899l2.262 3.22-2.252 3.361h1.899l1.536-2.435.627-.91v-.032z" fill="#fff"/><path d="M156.237 30.082l.531.815 1.673 2.557h1.915s-1.515-2.289-2.036-3.099c-.032-.047-.063-.095-.095-.137-.073-.105-.147-.126-.147-.126v-.063s.074-.021.147-.126c.032-.042.063-.09.095-.137.521-.805 2.036-2.904 2.036-2.904h-1.931l-2.194 3.22h.006zm-3.788 1.336l-.011.01c-.515.474-.947.753-1.652.753-1.036 0-1.815-.863-1.815-2.01 0-1.147.784-2.01 1.815-2.01.711 0 1.116.253 1.616.716l.01.01.847-1-.01-.01c-.548-.547-1.221-1.052-2.457-1.052-1.884 0-3.309 1.442-3.309 3.346 0 .91.331 1.757.926 2.378.599.626 1.431.968 2.325.968 1.131 0 1.883-.321 2.599-1.1l.01-.01-.905-.99h.011z" fill="#fff"/></g><defs><clipPath id="clip0_291_84"><path fill="#fff" d="M0 0h187.591v36H0z"/></clipPath></defs></svg>