<svg width="238" height="49" fill="none" xmlns="http://www.w3.org/2000/svg"><g clip-path="url(#clip0_695_251)"><path d="M73.983 18.985c-.585.061-2.365.208-3.032.208-2.193 0-2.978-.573-3.38-.884-1.186-.904-1.346-2.197-1.346-3.285v-4.587h3.172v3.703c0 .618-.017 1.297.625 1.813.344.266 1.212.364 2.218.364.643 0 1.04-.041 1.743-.143v-5.737h3.008v13.658h-3.008v-5.11zm-60.308-4.53h-3.319v9.632h3.319v-9.632zm-10.357 0H0v9.632h3.318v-9.632z" fill="#fff"/><path d="M6.837 18.874l6.838-4.419v-4.206s-4.55 3.142-6.228 4.226a5.019 5.019 0 00-.282.197c-.221.151-.266.307-.266.307h-.131s-.041-.156-.262-.307a10.583 10.583 0 00-.282-.197C4.55 13.392 0 10.25 0 10.25v4.206l6.837 4.42z" fill="#E8145A"/><path d="M121.358 14.966h.078c.02.21.118.434.241.729l3.462 8.384h3.613l-5.86-13.667h-3.065l-5.855 13.667h3.605s3.437-8.31 3.466-8.384c.122-.295.221-.52.241-.729h.078M42.579 17.07l-1.367-1.752-3.134-4.893h-3.94l4.693 6.677-4.681 6.973h3.94l3.196-5.05 1.293-1.89v-.065z" fill="#fff"/><path d="M38.831 17.102l1.105 1.69 3.478 5.307h3.969s-3.143-4.75-4.227-6.428a4.9 4.9 0 00-.196-.282c-.152-.221-.307-.266-.307-.266v-.131s.155-.041.307-.266c.061-.086.13-.184.196-.282 1.084-1.678 4.227-6.028 4.227-6.028h-4.006l-4.55 6.678.004.008z" fill="#E8145A"/><path d="M85.898 17.102l4.583 6.997h3.703s-3.142-4.75-4.227-6.428a4.95 4.95 0 00-.196-.282c-.151-.221-.307-.266-.307-.266v-.131s.156-.041.307-.266c.061-.086.131-.184.197-.282 1.084-1.678 4.226-6.028 4.226-6.028h-3.736l-4.55 6.678v.008zm-.2-6.579H82.56v13.585h3.138V10.523zM28.479 24.079h3.228l-5.855-13.667h-3.065L16.932 24.08h3.224l1.28-3.147h5.766c.704 1.735 1.28 3.147 1.28 3.147h-.003zm-5.983-5.757c.798-1.956 1.494-3.662 1.506-3.695.123-.295.221-.52.242-.729h.155c.02.21.119.434.241.729.013.033.708 1.739 1.502 3.695h-3.646zm42.056 5.757l-5.856-13.667h-3.064L49.776 24.08h3.225s.597-1.47 1.321-3.245v.098h5.725c.704 1.735 1.28 3.147 1.28 3.147h3.229-.004zm-9.21-5.757c.797-1.956 1.493-3.662 1.505-3.695.123-.295.22-.52.241-.729h.156c.02.21.118.434.241.729.013.033.708 1.739 1.502 3.695H55.34zm52.881 5.757h3.229l-5.856-13.667h-3.064L96.676 24.08h3.225l1.28-3.147h5.766c.703 1.735 1.28 3.147 1.28 3.147h-.004zm-5.982-5.757c.798-1.956 1.494-3.662 1.506-3.695.123-.295.221-.52.241-.729h.156c.02.21.118.434.241.729.012.033.708 1.739 1.502 3.695h-3.646zm40.435 5.757h3.228l-5.855-13.667h-3.065l-5.855 13.667h3.224l1.281-3.147h5.765c.704 1.735 1.281 3.147 1.281 3.147h-.004zm-5.982-5.757c.798-1.956 1.493-3.662 1.505-3.695.123-.295.221-.52.242-.729h.155c.021.21.119.434.242.729.012.033.708 1.739 1.501 3.695h-3.645zM4.726 36.264v-5.057L2.9 35.405h-.454L.589 31.207v5.057H.131v-6.133h.458l2.095 4.73 2.042-4.73h.454v6.133h-.454zm2.398-1.98c.016.45.04.638.143.88.204.507.61.756 1.19.756.222 0 .406-.032.573-.102.185-.078.295-.163.54-.397l.32.258c-.295.295-.438.397-.684.5-.22.093-.474.138-.769.138-1.15 0-1.747-.732-1.747-2.156 0-1.31.618-2.103 1.628-2.103 1.011 0 1.629.765 1.629 2.025v.197H7.12l.004.004zm2.32-.95c-.16-.56-.581-.887-1.121-.887a1.12 1.12 0 00-1.056.7c-.094.216-.127.396-.143.785H9.52c-.016-.327-.024-.43-.077-.593v-.005zm3.817.778v-2h.43v2l1.899-2h.556l-1.898 1.971 2.095 2.181h-.59l-2.058-2.136v2.136h-.43v-2.136l-2.058 2.136h-.589l2.095-2.18-1.898-1.973h.556l1.899 2.001h-.009zm7.083 3.445v-1.293h-3.277v1.293h-.43v-1.661h.5c.31-.458.588-1.052.588-2.578v-1.207h2.415v3.785h.634v1.661h-.43zm-.634-5.074h-1.571v.95c0 1.395-.246 2.074-.516 2.463h2.087v-3.413zm2.991 4.911c-.094.257-.16.372-.278.482-.184.172-.446.266-.77.266h-.204v-.388h.16c.421 0 .58-.119.744-.57l.328-.92-1.486-4.153h.475l1.223 3.638 1.224-3.638h.474l-1.89 5.283zm5.479-1.13V34.3h-2.222v1.964h-.43v-4.153h.43v1.817h2.222V32.11h.43v4.153h-.43zm4.456 0v-.413c-.348.352-.667.466-1.24.466s-.937-.102-1.199-.38c-.184-.197-.294-.5-.294-.81 0-.757.532-1.2 1.42-1.2h1.317v-.466c0-.663-.32-1.014-1.15-1.014-.573 0-.871.147-1.121.523l-.31-.274c.347-.49.776-.638 1.435-.638 1.072 0 1.58.49 1.58 1.362v2.844h-.438zm0-1.98H31.37c-.7 0-1.039.286-1.039.834 0 .549.328.81 1.064.81.372 0 .724-.032 1.015-.319.151-.147.229-.405.229-.793v-.536l-.004.004zm3.65 2.033c-.618 0-.888-.188-1.183-.585v2.517h-.43v-6.134h.43v.536c.32-.413.581-.585 1.175-.585 1.047 0 1.554.7 1.554 2.136 0 1.436-.515 2.12-1.546 2.12v-.005zm-.033-3.87c-.794 0-1.15.536-1.15 1.739s.348 1.739 1.15 1.739c.802 0 1.15-.536 1.15-1.731s-.348-1.752-1.15-1.752v.005zm5.512 3.413a1.549 1.549 0 01-1.13.457 1.55 1.55 0 01-1.13-.458c-.355-.36-.507-.871-.507-1.673s.152-1.31.508-1.67a1.549 1.549 0 011.13-.458c1.047 0 1.636.757 1.636 2.103 0 .827-.151 1.326-.507 1.698zm-.287-3.062a1.165 1.165 0 00-.843-.351c-.319 0-.634.13-.843.351-.261.275-.364.655-.364 1.388 0 .732.094 1.104.364 1.387.213.225.524.352.843.352.32 0 .635-.131.843-.352.262-.275.364-.655.364-1.371s-.094-1.121-.364-1.404zm5.291 4.759v-1.293H43.49v1.293h-.43v-1.661h.5c.31-.458.59-1.052.59-2.578v-1.207h2.413v3.785h.635v1.661h-.43zm-.634-5.074h-1.572v.95c0 1.395-.245 2.074-.515 2.463h2.087v-3.413zm4.84 3.781V34.3h-2.222v1.964h-.43v-4.153h.43v1.817h2.222V32.11h.43v4.153h-.43zm3.773 0h-1.706v-4.153h.43v1.706h1.276c.76 0 1.256.483 1.256 1.224 0 .74-.5 1.223-1.256 1.223zm-.07-2.078h-1.207v1.706h1.207c.581 0 .896-.303.896-.855 0-.553-.31-.855-.896-.855v.004zm2.026 2.078v-4.153h.43v4.153h-.43zm4.84 0V32.75l-2.336 3.515h-.43v-4.153h.43v3.515l2.336-3.515h.43v4.153h-.43zm-1.166-4.971c-.708 0-1.121-.32-1.183-1.036h.43c.041.446.295.688.753.688s.708-.242.753-.688h.43c-.058.716-.475 1.036-1.183 1.036zm7.779 4.971v-.413c-.348.352-.667.466-1.24.466s-.937-.102-1.2-.38a1.213 1.213 0 01-.294-.81c0-.757.532-1.2 1.42-1.2h1.318v-.466c0-.663-.32-1.014-1.15-1.014-.573 0-.872.147-1.121.523l-.311-.274c.348-.49.777-.638 1.436-.638 1.072 0 1.58.49 1.58 1.362v2.844h-.438zm0-1.98h-1.265c-.7 0-1.039.286-1.039.834 0 .549.327.81 1.064.81.372 0 .724-.032 1.015-.319.151-.147.229-.405.229-.793v-.536l-.004.004zm2.978 2.033c-.61 0-.912-.196-1.317-.638l.294-.274c.312.344.565.524 1.04.524.986 0 1.366-.757 1.366-1.645h-1.93v-.352h1.922c-.04-.835-.474-1.481-1.366-1.481-.463 0-.725.188-1.032.523l-.294-.274c.413-.438.708-.638 1.317-.638 1.13 0 1.817.802 1.817 2.128 0 1.325-.683 2.127-1.817 2.127zm4.833 0c-.618 0-.888-.188-1.183-.585v2.517h-.43v-6.134h.43v.536c.32-.413.581-.585 1.174-.585 1.048 0 1.555.7 1.555 2.136 0 1.436-.515 2.12-1.546 2.12v-.005zm-.033-3.87c-.794 0-1.15.536-1.15 1.739s.348 1.739 1.15 1.739c.802 0 1.15-.536 1.15-1.731s-.348-1.752-1.15-1.752v.005zm5.512 3.413a1.549 1.549 0 01-1.13.457c-.446 0-.842-.163-1.129-.458-.356-.36-.507-.871-.507-1.673s.151-1.31.507-1.67a1.549 1.549 0 011.13-.458c1.047 0 1.636.757 1.636 2.103 0 .827-.151 1.326-.507 1.698zm-.287-3.062a1.165 1.165 0 00-.843-.351c-.319 0-.634.13-.842.351-.262.275-.365.655-.365 1.388 0 .732.094 1.104.365 1.387.212.225.523.352.842.352.32 0 .635-.131.843-.352.262-.275.364-.655.364-1.371s-.094-1.121-.364-1.404zm4.845 3.466V32.48h-2.222v3.785h-.43v-4.153h3.081v4.153h-.43zm4.603-.404a1.549 1.549 0 01-1.13.457c-.445 0-.842-.163-1.129-.458-.356-.36-.507-.871-.507-1.673s.151-1.31.507-1.67a1.549 1.549 0 011.13-.458c1.047 0 1.636.757 1.636 2.103 0 .827-.15 1.326-.507 1.698zm-.286-3.062a1.165 1.165 0 00-.843-.351c-.32 0-.635.13-.843.351-.262.275-.364.655-.364 1.388 0 .732.094 1.104.364 1.387.213.225.524.352.843.352.319 0 .634-.131.843-.352.261-.275.364-.655.364-1.371s-.094-1.121-.364-1.404zm3.805 3.519c-.618 0-.888-.188-1.182-.585v2.517h-.43v-6.134h.43v.536c.319-.413.58-.585 1.174-.585 1.047 0 1.555.7 1.555 2.136 0 1.436-.516 2.12-1.547 2.12v-.005zm-.033-3.87c-.793 0-1.15.536-1.15 1.739s.348 1.739 1.15 1.739c.802 0 1.15-.536 1.15-1.731s-.348-1.752-1.15-1.752v.005zm4.146.036v3.785h-.43v-3.785h-1.47v-.372h3.286v.372H98.24zm6.276-2.606h-.422v7.733h.422v-7.733zm5.426 2.766h-1.252v3.609h1.252v-3.61zm3.871 0h-1.252v3.609h1.252v-3.61z" fill="#fff"/><path d="M111.251 34.3l2.562-1.657v-1.575s-1.707 1.178-2.333 1.583l-.106.074c-.082.057-.098.114-.098.114h-.049s-.017-.057-.099-.114a1.513 1.513 0 00-.106-.074c-.626-.405-2.332-1.583-2.332-1.583v1.575l2.561 1.657z" fill="#E8145A"/><path d="M122.925 33.633l-.515-.655-1.175-1.837h-1.477l1.76 2.504-1.752 2.615h1.477l1.195-1.894.487-.708v-.025z" fill="#fff"/><path d="M121.518 33.645l.413.635 1.301 1.988h1.489s-1.178-1.78-1.583-2.41c-.025-.037-.049-.073-.074-.106-.057-.082-.114-.098-.114-.098v-.049s.057-.017.114-.099c.025-.032.049-.07.074-.106.405-.626 1.583-2.259 1.583-2.259h-1.501l-1.707 2.504h.005z" fill="#E8145A"/><path d="M118.571 34.685l-.008.008c-.401.368-.736.585-1.285.585-.806 0-1.411-.671-1.411-1.563 0-.892.609-1.563 1.411-1.563.553 0 .868.196 1.257.556l.008.009.659-.778-.009-.008c-.425-.425-.949-.818-1.911-.818-1.464 0-2.573 1.12-2.573 2.602 0 .708.258 1.367.72 1.85a2.48 2.48 0 001.808.752c.88 0 1.465-.25 2.022-.855l.008-.008-.704-.77h.008z" fill="#fff"/></g><path opacity=".32" stroke="#fff" d="M174.337.25l-28 48.497"/><path d="M184.126 14.249h-1.32V8.705h.913v4.29h.242l2.431-4.29h1.364v5.544h-.913v-4.29h-.242l-2.475 4.29zm5.437 0V8.705h1.485l1.364 2.53h.242l1.364-2.53h1.463v5.544h-.913V9.794h-.242l-1.287 2.376h-1.034l-1.287-2.376h-.242v4.455h-.913zm12.531-3.102v.319h-4.224c.014.667.172 1.188.473 1.562.3.366.733.55 1.298.55.762 0 1.232-.286 1.408-.858h.946a1.92 1.92 0 01-.759 1.21c-.404.308-.935.462-1.595.462-.844 0-1.504-.275-1.98-.825-.477-.55-.715-1.265-.715-2.145 0-.866.238-1.559.715-2.08.476-.52 1.129-.78 1.958-.78.784 0 1.389.249 1.815.748.425.491.645 1.103.66 1.837zm-2.497-1.771c-.477 0-.858.124-1.144.374a1.526 1.526 0 00-.528.935h3.201a1.375 1.375 0 00-.451-.935c-.272-.25-.631-.374-1.078-.374zm8.891 4.873h-.935v-2.442h-3.069v2.442h-.935V8.705h.935v2.288h3.069V8.705h.935v5.544zm3.128 0h-1.32V8.705h.913v4.29h.242l2.431-4.29h1.364v5.544h-.913v-4.29h-.242l-2.475 4.29z" fill="#fff" fill-opacity=".6"/><path d="M188.207 28.249l-.814-2.41h-3.443l-.814 2.41h-1.012l2.717-7.854h1.672l2.728 7.854h-1.034zm-2.761-6.842l-1.199 3.53h2.838l-1.199-3.53h-.44zm4.912 6.842v-5.544h1.485l1.364 2.53h.242l1.364-2.53h1.463v5.544h-.913v-4.455h-.242l-1.287 2.376H192.8l-1.287-2.376h-.242v4.455h-.913zm12.531-3.102v.319h-4.224c.014.667.172 1.188.473 1.562.3.366.733.55 1.298.55.762 0 1.232-.286 1.408-.858h.946a1.92 1.92 0 01-.759 1.21c-.404.308-.935.462-1.595.462-.844 0-1.504-.275-1.98-.825-.477-.55-.715-1.265-.715-2.145 0-.866.238-1.559.715-2.08.476-.52 1.129-.78 1.958-.78.784 0 1.389.249 1.815.748.425.491.645 1.103.66 1.837zm-2.497-1.771c-.477 0-.858.124-1.144.374a1.526 1.526 0 00-.528.935h3.201a1.375 1.375 0 00-.451-.935c-.272-.25-.631-.374-1.078-.374zm3.198.143v-.814h4.774v.814h-1.914v4.73h-.935v-4.73h-1.925zm8.647 2.09h-3.003v-.825h3.003v.825zm4.666 2.64l-1.375-2.321h-.396l-1.408 2.32h-1.023l1.727-2.837-1.551-2.706h.99l1.276 2.2h.396l1.298-2.2h.979l-1.573 2.673 1.716 2.87h-1.056zm5.893 0v-.583h-.242c-.381.484-.957.726-1.727.726-.608 0-1.092-.176-1.452-.528a1.722 1.722 0 01-.539-1.276c0-.506.176-.939.528-1.298.352-.36.884-.54 1.595-.54h1.804v-.22c0-.351-.11-.63-.33-.835-.22-.213-.561-.32-1.023-.32-.806 0-1.235.268-1.287.804h-.935c.037-.506.253-.902.649-1.188.404-.286.921-.43 1.551-.43.712 0 1.269.166 1.672.496.411.33.616.803.616 1.419v3.773h-.88zm-1.738-.671c.462 0 .862-.15 1.199-.451.338-.308.506-.682.506-1.122v-.506h-1.661c-.887 0-1.331.352-1.331 1.056 0 .315.11.564.33.748.228.183.547.275.957.275zm9.269.67h-.935v-2.441h-3.069v2.442h-.935v-5.544h.935v2.288h3.069v-2.288h.935v5.544zm5.338 0v-.582h-.242c-.381.484-.957.726-1.727.726-.608 0-1.092-.176-1.452-.528a1.722 1.722 0 01-.539-1.276c0-.506.176-.939.528-1.298.352-.36.884-.54 1.595-.54h1.804v-.22c0-.351-.11-.63-.33-.835-.22-.213-.561-.32-1.023-.32-.806 0-1.235.268-1.287.804h-.935c.037-.506.253-.902.649-1.188.404-.286.921-.43 1.551-.43.712 0 1.269.166 1.672.496.411.33.616.803.616 1.419v3.773h-.88zm-1.738-.67c.462 0 .862-.15 1.199-.451.338-.308.506-.682.506-1.122v-.506h-1.661c-.887 0-1.331.352-1.331 1.056 0 .315.11.564.33.748.228.183.547.275.957.275zm-45.72 12.438h1.045c-.168.726-.52 1.305-1.056 1.738-.535.425-1.221.638-2.057.638-1.144 0-2.035-.378-2.673-1.133-.638-.756-.957-1.735-.957-2.937 0-1.203.323-2.182.968-2.937.646-.756 1.537-1.133 2.673-1.133.792 0 1.452.198 1.98.594.528.388.873.924 1.034 1.606h-1.045c-.308-.866-.964-1.298-1.969-1.298-.865 0-1.521.304-1.969.913-.447.608-.671 1.36-.671 2.255 0 .902.22 1.657.66 2.266.448.601 1.104.902 1.969.902.543 0 .99-.129 1.342-.385.352-.264.594-.627.726-1.09zm3.991 4.433h-.946l1.144-2.717-2.365-5.027h1.001l1.694 3.652h.275l1.54-3.652h.979l-3.322 7.744zm3.495-2.2v-.88h.187c.389 0 .667-.18.836-.54.169-.366.253-1.026.253-1.98v-2.144h4.246v5.544h-.946v-4.73h-2.431v1.353c0 1.254-.154 2.13-.462 2.629-.301.498-.799.748-1.496.748h-.187zm6.747-4.73v-.814h4.774v.814H205.3v4.73h-.935v-4.73h-1.925zm9.539 4.73v-.583h-.242c-.381.484-.957.726-1.727.726-.609 0-1.093-.176-1.452-.528a1.722 1.722 0 01-.539-1.276c0-.506.176-.939.528-1.298.352-.36.884-.54 1.595-.54h1.804v-.22c0-.351-.11-.63-.33-.835-.22-.213-.561-.32-1.023-.32-.807 0-1.236.268-1.287.804h-.935c.037-.506.253-.902.649-1.188.403-.286.92-.43 1.551-.43.711 0 1.269.166 1.672.496.411.33.616.803.616 1.419v3.773h-.88zm-1.738-.671c.462 0 .862-.15 1.199-.451.337-.308.506-.682.506-1.122v-.506h-1.661c-.887 0-1.331.352-1.331 1.056 0 .315.11.564.33.748.227.183.546.275.957.275zm9.269.67h-.935v-2.441h-3.069v2.442h-.935v-5.544h.935v2.288h3.069v-2.288h.935v5.544zm5.338 0v-.582h-.242c-.381.484-.957.726-1.727.726-.609 0-1.093-.176-1.452-.528a1.722 1.722 0 01-.539-1.276c0-.506.176-.939.528-1.298.352-.36.884-.54 1.595-.54h1.804v-.22c0-.351-.11-.63-.33-.835-.22-.213-.561-.32-1.023-.32-.807 0-1.236.268-1.287.804h-.935c.037-.506.253-.902.649-1.188.403-.286.92-.43 1.551-.43.711 0 1.269.166 1.672.496.411.33.616.803.616 1.419v3.773h-.88zm-1.738-.67c.462 0 .862-.15 1.199-.451.337-.308.506-.682.506-1.122v-.506h-1.661c-.887 0-1.331.352-1.331 1.056 0 .315.11.564.33.748.227.183.546.275.957.275z" fill="#fff"/><defs><clipPath id="clip0_695_251"><path fill="#fff" transform="translate(0 10.249)" d="M0 0h145.904v28H0z"/></clipPath></defs></svg>