<svg width="230" height="45" viewBox="0 0 230 45" fill="none" xmlns="http://www.w3.org/2000/svg">
<g clip-path="url(#clip0_277_196)">
<path d="M116.632 14.0575C115.71 14.1539 112.897 14.3918 111.852 14.3918C108.395 14.3918 107.157 13.4852 106.524 13.003C104.654 11.582 104.396 9.55011 104.396 7.85904V0.625366H109.401V6.44444C109.401 7.41536 109.401 8.48273 110.388 9.2929C110.93 9.71084 112.323 9.86517 113.884 9.86517C114.805 9.86625 115.724 9.79098 116.632 9.64012V0.638219H121.373V22.1013H116.632V14.0575Z" fill="#4E106F"/>
<path d="M21.5565 6.93954H16.3254V22.0756H21.5565V6.93954Z" fill="#4E106F"/>
<path d="M5.23108 6.93954H0V22.0756H5.23108V6.93954Z" fill="#4E106F"/>
<path d="M10.7782 13.8839L21.5565 6.93956V0.32959C21.5565 0.32959 14.3839 5.2742 11.7393 6.9717C11.591 7.06815 11.4361 7.17746 11.2942 7.28034C11.1064 7.39052 10.961 7.56032 10.8814 7.76259H10.6815C10.6007 7.55907 10.4528 7.38901 10.2622 7.28034C10.1268 7.17746 9.97196 7.06815 9.81715 6.9717C7.17903 5.2742 0 0.32959 0 0.32959V6.93956L10.7782 13.8839Z" fill="#E8145A"/>
<path d="M191.312 7.77544H191.428C191.5 8.17079 191.629 8.55394 191.809 8.91353L197.265 22.0949H202.954L193.731 0.593201H188.893L179.663 22.0692H185.345L190.809 8.88782C190.989 8.52824 191.117 8.14507 191.189 7.74971H191.305" fill="#4E106F"/>
<path d="M67.1204 11.0483L64.9661 8.29627L60.0252 0.606079H53.8137L61.2121 11.0997L53.8331 22.0563H60.0446L65.0822 14.1218L67.1204 11.1512V11.0483Z" fill="#4E106F"/>
<path d="M61.212 11.1061L62.96 13.7553L68.4427 22.1142H74.6993C74.6993 22.1142 69.7456 14.649 68.0363 12.0128C67.9396 11.8649 67.8299 11.7041 67.7267 11.5691C67.6194 11.3816 67.451 11.2364 67.2494 11.1576V10.9583C67.4504 10.8752 67.6182 10.7283 67.7267 10.5403C67.8299 10.4053 67.9396 10.251 68.0363 10.0966C69.7456 7.4668 74.6993 0.625366 74.6993 0.625366H68.3846L61.212 11.1254V11.1061Z" fill="#E8145A"/>
<path d="M135.408 11.1061L142.639 22.0949H148.444C148.444 22.0949 143.484 14.6297 141.781 11.9935C141.684 11.8456 141.575 11.6848 141.471 11.5498C141.361 11.3625 141.191 11.2177 140.988 11.1383V10.939C141.19 10.8551 141.359 10.7085 141.471 10.521C141.575 10.386 141.684 10.2317 141.781 10.0774C143.484 7.44751 148.444 0.606079 148.444 0.606079H142.555L135.408 11.1061Z" fill="#4E106F"/>
<path d="M135.092 0.760406H130.145V22.1078H135.092V0.760406Z" fill="#4E106F"/>
<path d="M44.8932 22.0692H49.9888L40.7522 0.593201H35.921L26.6714 22.0692H31.7477L33.7731 17.1246H42.8614L44.8932 22.0692ZM35.463 13.0223L37.8367 7.23533C38.016 6.8732 38.1441 6.48802 38.2172 6.0908H38.4623C38.5329 6.48784 38.6588 6.87309 38.8365 7.23533L41.2037 13.0223H35.463Z" fill="#4E106F"/>
<path d="M101.764 22.0692L92.5276 0.593201H87.6964L78.4662 22.0692H83.5425C83.5425 22.0692 84.4907 19.7608 85.6324 16.9638V17.1246H94.6626L96.6751 22.0692H101.764ZM87.2385 13.0223L89.6121 7.23533C89.7915 6.8732 89.9196 6.48802 89.9927 6.0908H90.2378C90.3083 6.48784 90.4343 6.87309 90.6119 7.23533C90.6119 7.28677 91.7278 9.96805 92.9791 13.0223H87.2385Z" fill="#4E106F"/>
<path d="M170.6 22.0692H175.67L166.434 0.593201H161.602L152.372 22.0692H157.449L159.474 17.1246H168.575L170.6 22.0692ZM161.17 13.0223L163.544 7.23533C163.723 6.8732 163.851 6.48802 163.925 6.0908H164.17C164.24 6.48784 164.366 6.87309 164.544 7.23533L166.911 13.0223H161.17Z" fill="#4E106F"/>
<path d="M224.911 22.0692H230.006L220.77 0.593201H215.939L206.708 22.0692H211.791L213.817 17.1246H222.905L224.911 22.0692ZM215.481 13.0223L217.854 7.23533C218.034 6.8732 218.162 6.48802 218.235 6.0908H218.48C218.551 6.48784 218.676 6.87309 218.854 7.23533L221.221 13.0223H215.481Z" fill="#4E106F"/>
<path d="M7.44995 41.2111V33.2701L4.57963 39.8608H3.85722L0.928835 33.2701V41.2111H0.225769V31.5662H0.941738L4.24422 38.9992L7.4693 31.5662H8.19173V41.2111H7.44995Z" fill="#4E106F"/>
<path d="M11.2297 38.099C11.213 38.5701 11.2897 39.0399 11.4555 39.4814C11.5957 39.8569 11.8547 40.1766 12.1934 40.3924C12.532 40.6081 12.9318 40.7082 13.3325 40.6774C13.6438 40.6822 13.9529 40.6253 14.242 40.5102C14.5672 40.3566 14.857 40.1377 15.0934 39.8672L15.5965 40.2787C15.2982 40.6144 14.9308 40.8819 14.5193 41.0632C14.1337 41.215 13.7212 41.2872 13.3067 41.2754C11.5007 41.2754 10.5525 40.1244 10.5525 37.8932C10.5525 35.8357 11.5265 34.5883 13.1326 34.5883C14.7386 34.5883 15.7126 35.7906 15.7126 37.7711V38.0797L11.2297 38.099ZM14.8934 36.6137C14.805 36.2434 14.602 35.9103 14.3131 35.6615C14.0242 35.4127 13.664 35.2609 13.2837 35.2274C12.9034 35.194 12.5222 35.2807 12.1941 35.4753C11.866 35.6698 11.6076 35.9624 11.4555 36.3115C11.2996 36.7042 11.2229 37.1237 11.2297 37.546H15.0096C15.0139 37.2314 14.9748 36.9177 14.8934 36.6137Z" fill="#4E106F"/>
<path d="M20.905 37.8289V34.6911H21.5887V37.8289L24.5816 34.6911H25.4588L22.4659 37.7903L25.762 41.2175H24.8331L21.6081 37.8546V41.2111H20.9243V37.8482L17.6412 41.2111H16.7059L20.0084 37.7839L17.0155 34.6847H17.8928L20.905 37.8289Z" fill="#4E106F"/>
<path d="M32.0702 43.2494V41.2111H26.9101V43.2429H26.2328V40.6324H27.0133C27.51 39.9186 27.9486 38.9799 27.9486 36.5815V34.6911H31.7542V40.6324H32.754V43.2494H32.0702ZM31.0769 35.2698H28.6065V36.7615C28.6065 38.9541 28.2195 40.0215 27.7938 40.6195H31.0834L31.0769 35.2698Z" fill="#4E106F"/>
<path d="M35.7856 42.9921C35.709 43.2792 35.5577 43.5409 35.3469 43.7509C35.0115 44.0401 34.5773 44.1898 34.1343 44.1688H33.8182V43.5258H34.0698C34.7148 43.5258 34.9857 43.3394 35.2437 42.6321L35.7597 41.1853L33.4183 34.659H34.1666L36.1016 40.3687L38.0367 34.659H38.7784L35.7856 42.9921Z" fill="#4E106F"/>
<path d="M44.4223 41.2111V38.1247H40.9263V41.2111H40.249V34.6911H40.9263V37.546H44.4223V34.6911H45.106V41.2111H44.4223Z" fill="#4E106F"/>
<path d="M51.453 41.2111V40.5681C50.9163 41.0194 50.2431 41.278 49.5413 41.3025C48.8396 41.327 48.1499 41.1159 47.5829 40.7031C47.2692 40.3488 47.101 39.8896 47.112 39.4171C47.112 38.2211 47.9505 37.5331 49.3502 37.5331H51.4272V36.8001C51.4272 35.7585 50.9176 35.2055 49.6147 35.2055C49.2721 35.1612 48.924 35.2151 48.611 35.3609C48.298 35.5066 48.0331 35.7382 47.8473 36.0285L47.3507 35.5977C47.6028 35.2431 47.9461 34.9628 48.3445 34.7863C48.7429 34.6097 49.1817 34.5435 49.6147 34.5947C51.3046 34.5947 52.1044 35.3663 52.1044 36.7358V41.2111H51.453ZM51.453 38.0925H49.4534C48.3505 38.0925 47.8215 38.5426 47.8215 39.3785C47.8215 40.2144 48.3376 40.6645 49.4986 40.6645C49.7845 40.6943 50.0734 40.6651 50.3475 40.5788C50.6215 40.4925 50.8749 40.351 51.0918 40.163C51.3732 39.8113 51.5032 39.3627 51.453 38.9156V38.0925Z" fill="#4E106F"/>
<path d="M57.2 41.2947C56.8344 41.3281 56.4667 41.2598 56.1377 41.0975C55.8086 40.9352 55.5311 40.6852 55.336 40.3752V44.3296H54.6587V34.6847H55.336V35.5206C55.5306 35.2132 55.8061 34.9649 56.1325 34.8028C56.4589 34.6406 56.8237 34.5709 57.1871 34.6011C58.8384 34.6011 59.6382 35.7006 59.6382 37.9575C59.6382 40.2144 58.8255 41.2947 57.2 41.2947ZM57.1484 35.2184C55.8971 35.2184 55.336 36.0543 55.336 37.9511C55.336 39.8479 55.8842 40.6903 57.1484 40.6903C58.4127 40.6903 58.9609 39.8479 58.9609 37.964C58.9609 36.08 58.4127 35.2184 57.1484 35.2184Z" fill="#4E106F"/>
<path d="M65.8368 40.5681C65.3567 41.026 64.7178 41.2815 64.0533 41.2815C63.3889 41.2815 62.75 41.026 62.2699 40.5681C61.7152 39.9958 61.4765 39.1985 61.4765 37.9383C61.4765 36.678 61.7152 35.8807 62.2699 35.3148C62.5032 35.0804 62.7819 34.8956 63.089 34.7718C63.3962 34.648 63.7253 34.5878 64.0566 34.5947C65.7078 34.5947 66.6366 35.7842 66.6366 37.8997C66.6624 39.2114 66.398 39.9958 65.8368 40.5681ZM65.3853 35.7585C65.2108 35.5833 65.0033 35.4443 64.7747 35.3494C64.5461 35.2546 64.301 35.2057 64.0533 35.2057C63.8057 35.2057 63.5606 35.2546 63.332 35.3494C63.1034 35.4443 62.8959 35.5833 62.7214 35.7585C62.315 36.1957 62.1538 36.7873 62.1538 37.9383C62.1538 39.0892 62.2957 39.6743 62.7214 40.118C62.895 40.2947 63.1022 40.4351 63.3309 40.531C63.5596 40.6268 63.8052 40.6762 64.0533 40.6762C64.3014 40.6762 64.5471 40.6268 64.7758 40.531C65.0045 40.4351 65.2117 40.2947 65.3853 40.118C65.7981 39.6872 65.9594 39.0892 65.9594 37.964C65.9594 36.8387 65.811 36.2215 65.3724 35.7714L65.3853 35.7585Z" fill="#4E106F"/>
<path d="M73.7577 43.2494V41.2111H68.5975V43.2429H67.888V40.6324H68.6749C69.1651 39.9186 69.6037 38.9799 69.6037 36.5815V34.6911H73.4093V40.6324H74.4027V43.2494H73.7577ZM72.7579 35.2698H70.281V36.7615C70.281 38.9541 69.9004 40.0215 69.4747 40.6195H72.7579V35.2698Z" fill="#4E106F"/>
<path d="M80.3562 41.2111V38.1247H76.8602V41.2111H76.1829V34.6911H76.8602V37.546H80.3562V34.6911H81.0399V41.2111H80.3562Z" fill="#4E106F"/>
<path d="M86.3097 41.2111H83.62V34.6911H84.265V37.3531H86.2774C86.7906 37.3531 87.2828 37.5563 87.6457 37.9181C88.0086 38.2798 88.2125 38.7705 88.2125 39.2821C88.2125 39.7937 88.0086 40.2843 87.6457 40.6461C87.2828 41.0078 86.7906 41.2111 86.2774 41.2111H86.3097ZM86.2 37.9447H84.265V40.6259H86.2C86.3845 40.6387 86.5696 40.6135 86.7438 40.5519C86.9181 40.4903 87.0778 40.3936 87.2129 40.2678C87.3481 40.1421 87.4559 39.99 87.5296 39.821C87.6033 39.6519 87.6413 39.4696 87.6413 39.2853C87.6413 39.101 87.6033 38.9187 87.5296 38.7496C87.4559 38.5806 87.3481 38.4285 87.2129 38.3028C87.0778 38.177 86.9181 38.0803 86.7438 38.0187C86.5696 37.9571 86.3845 37.9319 86.2 37.9447ZM89.3929 41.2111V34.6911H90.0766V41.2111H89.3929Z" fill="#4E106F"/>
<path d="M97.0234 41.2111V35.6813L93.3339 41.2111H92.6566V34.6911H93.3339V40.2144L97.0234 34.6911H97.7007V41.2111H97.0234ZM95.1851 33.3987C94.0692 33.3987 93.4177 32.8972 93.321 31.7719H93.9983C94.0289 32.0645 94.1671 32.3353 94.3863 32.5321C94.6055 32.729 94.8901 32.838 95.1851 32.838C95.4801 32.838 95.7647 32.729 95.9839 32.5321C96.203 32.3353 96.3413 32.0645 96.3719 31.7719H97.0492C96.9782 32.9036 96.3332 33.4051 95.1851 33.4051V33.3987Z" fill="#4E106F"/>
<path d="M107.44 41.2111V40.5681C106.904 41.0194 106.231 41.278 105.529 41.3025C104.827 41.327 104.137 41.1159 103.57 40.7031C103.263 40.3453 103.098 39.8879 103.106 39.4171C103.106 38.2211 103.944 37.5331 105.344 37.5331H107.415V36.8001C107.415 35.7585 106.911 35.2055 105.609 35.2055C105.265 35.1615 104.916 35.2155 104.602 35.3612C104.288 35.5068 104.022 35.7382 103.835 36.0285L103.345 35.5977C103.597 35.2431 103.94 34.9628 104.338 34.7863C104.737 34.6097 105.176 34.5435 105.609 34.5947C107.298 34.5947 108.098 35.3663 108.098 36.7358V41.2111H107.44ZM107.44 38.0925H105.447C104.344 38.0925 103.809 38.5426 103.809 39.3785C103.809 40.2144 104.331 40.6645 105.486 40.6645C105.773 40.6948 106.063 40.6659 106.338 40.5796C106.613 40.4933 106.868 40.3515 107.086 40.163C107.364 39.81 107.492 39.3617 107.44 38.9156V38.0925Z" fill="#4E106F"/>
<path d="M112.143 41.2947C111.741 41.3094 111.342 41.2263 110.98 41.0526C110.618 40.879 110.304 40.62 110.066 40.298L110.53 39.8608C110.717 40.1196 110.963 40.3299 111.248 40.4743C111.533 40.6186 111.849 40.6927 112.168 40.6903C113.723 40.6903 114.323 39.4943 114.323 38.1183H111.278V37.5653H114.31C114.245 36.2793 113.568 35.2377 112.155 35.2377C111.837 35.2358 111.522 35.3101 111.238 35.4545C110.954 35.5988 110.709 35.8089 110.524 36.0672L110.059 35.6363C110.297 35.3132 110.611 35.053 110.973 34.8782C111.335 34.7034 111.734 34.6193 112.136 34.6333C113.916 34.6333 114.994 35.9193 114.994 37.9768C114.994 40.0344 113.923 41.2947 112.143 41.2947Z" fill="#4E106F"/>
<path d="M119.754 41.2947C119.388 41.3296 119.02 41.262 118.69 41.0996C118.361 40.9371 118.084 40.6862 117.89 40.3752V44.3296H117.212V34.6847H117.89V35.5206C118.084 35.2132 118.36 34.9649 118.686 34.8028C119.013 34.6406 119.377 34.5709 119.741 34.6011C121.392 34.6011 122.192 35.7006 122.192 37.9575C122.192 40.2144 121.379 41.2947 119.754 41.2947ZM119.702 35.2184C118.451 35.2184 117.89 36.0543 117.89 37.9511C117.89 39.8479 118.438 40.6903 119.702 40.6903C120.966 40.6903 121.508 39.8479 121.508 37.964C121.508 36.08 120.966 35.2184 119.702 35.2184Z" fill="#4E106F"/>
<path d="M128.391 40.5681C127.91 41.026 127.272 41.2815 126.607 41.2815C125.943 41.2815 125.304 41.026 124.824 40.5681C124.269 39.9958 124.024 39.1985 124.024 37.9383C124.024 36.678 124.269 35.8807 124.824 35.3148C125.057 35.0804 125.336 34.8956 125.643 34.7718C125.95 34.648 126.279 34.5878 126.61 34.5947C128.262 34.5947 129.19 35.7842 129.19 37.8997C129.19 39.2114 128.952 39.9958 128.391 40.5681ZM127.939 35.7585C127.765 35.5833 127.557 35.4443 127.328 35.3494C127.1 35.2546 126.855 35.2057 126.607 35.2057C126.359 35.2057 126.114 35.2546 125.886 35.3494C125.657 35.4443 125.45 35.5833 125.275 35.7585C124.862 36.1957 124.707 36.7873 124.707 37.9383C124.707 39.0892 124.849 39.6743 125.275 40.118C125.449 40.2947 125.656 40.4351 125.885 40.531C126.113 40.6268 126.359 40.6762 126.607 40.6762C126.855 40.6762 127.101 40.6268 127.33 40.531C127.558 40.4351 127.765 40.2947 127.939 40.118C128.352 39.6872 128.513 39.0892 128.513 37.964C128.513 36.8387 128.365 36.2215 127.939 35.7714V35.7585Z" fill="#4E106F"/>
<path d="M135.576 41.2111V35.2634H132.08V41.2111H131.403V34.6911H136.26V41.2111H135.576Z" fill="#4E106F"/>
<path d="M142.832 40.5681C142.352 41.026 141.713 41.2815 141.049 41.2815C140.385 41.2815 139.746 41.026 139.266 40.5681C138.704 39.9958 138.466 39.1985 138.466 37.9383C138.466 36.678 138.704 35.8807 139.266 35.3148C139.499 35.0804 139.778 34.8956 140.085 34.7718C140.392 34.648 140.721 34.5878 141.052 34.5947C142.697 34.5947 143.632 35.7842 143.632 37.8997C143.632 39.2114 143.419 39.9958 142.832 40.5681ZM142.381 35.7585C142.206 35.5833 141.999 35.4443 141.77 35.3494C141.542 35.2546 141.297 35.2057 141.049 35.2057C140.801 35.2057 140.556 35.2546 140.328 35.3494C140.099 35.4443 139.891 35.5833 139.717 35.7585C139.304 36.1957 139.143 36.7873 139.143 37.9383C139.143 39.0892 139.291 39.6743 139.717 40.118C139.891 40.2947 140.098 40.4351 140.327 40.531C140.555 40.6268 140.801 40.6762 141.049 40.6762C141.297 40.6762 141.543 40.6268 141.771 40.531C142 40.4351 142.207 40.2947 142.381 40.118C142.794 39.6872 142.955 39.0892 142.955 37.964C142.955 36.8387 142.807 36.2215 142.381 35.7714V35.7585Z" fill="#4E106F"/>
<path d="M148.38 41.2947C148.015 41.3291 147.648 41.2612 147.319 41.0988C146.991 40.9363 146.715 40.6857 146.522 40.3752V44.3296H145.838V34.6847H146.522V35.5206C146.715 35.2132 146.989 34.9647 147.315 34.8025C147.64 34.6403 148.004 34.5706 148.367 34.6011C150.018 34.6011 150.818 35.7006 150.818 37.9575C150.818 40.2144 150.005 41.2947 148.38 41.2947ZM148.328 35.2184C147.077 35.2184 146.522 36.0543 146.522 37.9511C146.522 39.8479 147.064 40.6902 148.328 40.6902C149.592 40.6902 150.141 39.8479 150.141 37.964C150.141 36.08 149.592 35.2184 148.328 35.2184Z" fill="#4E106F"/>
<path d="M154.862 35.2698V41.2111H154.185V35.2634H151.869V34.6847H157.029V35.2634L154.862 35.2698Z" fill="#4E106F"/>
<path d="M164.757 31.174H164.092V43.3265H164.757V31.174Z" fill="#4E106F"/>
<path d="M173.31 35.5206H171.336V41.1918H173.31V35.5206Z" fill="#4E106F"/>
<path d="M179.411 35.5206H177.438V41.1918H179.411V35.5206Z" fill="#4E106F"/>
<path d="M175.374 38.1311L179.411 35.5592V33.0836C179.411 33.0836 176.722 34.9355 175.735 35.572C175.676 35.6069 175.62 35.6456 175.567 35.6878C175.496 35.7282 175.442 35.7918 175.412 35.8678H175.335C175.306 35.7918 175.251 35.7282 175.18 35.6878C175.127 35.6456 175.071 35.6069 175.012 35.572C174.025 34.9291 171.336 33.0836 171.336 33.0836V35.5592L175.374 38.1311Z" fill="#E8145A"/>
<path d="M193.776 37.0766L192.963 36.0478L191.112 33.1608H188.79L191.557 37.0959L188.796 41.2046H191.125L193.008 38.2276L193.776 37.1152V37.0766Z" fill="#4E106F"/>
<path d="M191.563 37.0959L192.208 38.0926L194.26 41.2175H196.608C196.608 41.2175 194.75 38.4205 194.111 37.4303L193.995 37.2631C193.953 37.1937 193.89 37.1397 193.815 37.1088V37.0381C193.891 37.0059 193.954 36.9494 193.995 36.8773C194.034 36.8323 194.073 36.768 194.111 36.7166C194.756 35.7264 196.608 33.1672 196.608 33.1672H194.247L191.563 37.0959Z" fill="#E8145A"/>
<path d="M186.913 38.7291C186.66 39.0152 186.35 39.2449 186.002 39.4033C185.654 39.5617 185.276 39.6453 184.894 39.6486C184.277 39.5941 183.704 39.3114 183.286 38.8562C182.868 38.401 182.636 37.8062 182.636 37.1891C182.636 36.572 182.868 35.9773 183.286 35.5221C183.704 35.0669 184.277 34.7842 184.894 34.7297C185.266 34.7272 185.635 34.8038 185.976 34.9546C186.316 35.1054 186.62 35.3269 186.868 35.6042L187.913 34.3889C187.536 33.968 187.07 33.6346 186.55 33.4124C186.029 33.1902 185.466 33.0846 184.9 33.1029C184.362 33.094 183.827 33.1941 183.328 33.3971C182.829 33.6001 182.376 33.9018 181.998 34.2841C181.619 34.6663 181.322 35.1211 181.125 35.621C180.928 36.1208 180.834 36.6554 180.85 37.1924C180.834 38.2715 181.242 39.314 181.985 40.0987C182.389 40.4881 182.868 40.7932 183.392 40.9963C183.916 41.1993 184.475 41.2962 185.037 41.2812C185.6 41.2663 186.153 41.1398 186.666 40.9091C187.178 40.6785 187.639 40.3483 188.022 39.9379L186.913 38.7291Z" fill="#4E106F"/>
</g>
<defs>
<clipPath id="clip0_277_196">
<rect width="230" height="44" fill="white" transform="translate(0 0.32959)"/>
</clipPath>
</defs>
</svg>
