<svg width="975" height="563" fill="none" xmlns="http://www.w3.org/2000/svg"><path d="M974.393 302.894L449.72 0 45.255 233.498l62.579 36.127-28.992 16.736 126.926 73.274-16.264 9.389 145.664 84.092 16.264-9.389 126.926 73.274 28.991-16.736 62.579 36.127 404.465-233.498z" fill="#F0F1F7"/><path d="M613.326 281.246L592.113 269l-31.112 17.961 21.213 12.247 31.112-17.962z" fill="#B1E8C1"/><path d="M267.504 285.701l33.234 19.186-94.752 54.7L78 285.701c52.297-30.192 137.207-30.192 189.504 0z" fill="#CCB8B6"/><rect x="183" y="288" width="24" height="24" rx="4" fill="#fff"/><path d="M190.544 305.581l2.538-3.283 1.161 1.58-2.238 3.035c-.857 1.161-2.443-.063-1.461-1.332zm2.964-7.475c.241-.842.13-1.56-.778-2.628l-2.219-2.848c-.315-.394-1.057.185-.747.663l1.775 2.332c.335.435-.288 1.01-.635.563l-1.836-2.412c-.342-.418-1.049.134-.691.612.518.664 1.318 1.749 1.836 2.413.359.389-.187.966-.541.48l-1.822-2.396c-.268-.309-.705-.117-.821.245-.124.387.182.67.391.956l2.034 2.802c.631.78 1.336 1.242 2.157.981.125-.041.279-.123.444-.231l5.464 7.524a.833.833 0 001.231.121l.084-.075c.415-.368.482-1.041.127-1.476l-5.787-7.091c.169-.201.292-.391.334-.535zm1.546 1.64l.9-1.164c-1.157-3.06 3.131-7.138 5.21-5.263 2.526 2.28-1.228 7.775-3.866 6.417l-1.066 1.444-1.178-1.434z" fill="#000"/><path d="M396.116 358.701L301.363 304 188 369.445l94.752 54.7 113.364-65.444z" fill="#89D2EC"/><rect x="280" y="352" width="24" height="24" rx="4" fill="#fff"/><g clip-path="url(#clip0_745_161)" fill="#000"><path d="M296 356h-8c-.85 0-1.5.65-1.5 1.5v14c0 .3.2.5.5.5h1.5c.3 0 .5-.2.5-.5v-11c0-.3.2-.5.5-.5h5c.3 0 .5.2.5.5v11c0 .3.2.5.5.5h1.5c.3 0 .5-.2.5-.5v-14c0-.85-.65-1.5-1.5-1.5zm-5.15 2.35c-.1.1-.2.15-.35.15-.15 0-.25-.05-.35-.15-.1-.1-.15-.2-.15-.35 0-.15.05-.25.15-.35.2-.2.5-.2.7 0 .1.1.15.2.15.35 0 .15-.05.25-.15.35zm1.5 0c-.1.1-.2.15-.35.15-.15 0-.25-.05-.35-.15-.1-.1-.15-.2-.15-.35 0-.15.05-.25.15-.35.2-.2.5-.2.7 0 .1.1.15.2.15.35 0 .15-.05.25-.15.35zm1.5 0c-.1.1-.2.15-.35.15-.15 0-.25-.05-.35-.15-.1-.1-.15-.2-.15-.35 0-.15.05-.25.15-.35.2-.2.5-.2.7 0 .1.1.15.2.15.35 0 .15-.05.25-.15.35zm5.65 5.15h-1c-.3 0-.5.2-.5.5s.2.5.5.5h1c.3 0 .5-.2.5-.5s-.2-.5-.5-.5zm-1.4-.2c.1 0 .2-.05.3-.1l.8-.6c.2-.15.25-.5.1-.7-.15-.2-.45-.25-.7-.1l-.8.6c-.2.15-.25.5-.1.7.1.15.25.2.4.2zm.3 1.45c-.2-.15-.55-.1-.7.1-.15.2-.1.55.1.7l.8.6c.1.05.2.1.3.1.15 0 .3-.05.4-.2.15-.2.1-.55-.1-.7l-.8-.6zM286 364c0-.3-.2-.5-.5-.5h-1c-.3 0-.5.2-.5.5s.2.5.5.5h1c.3 0 .5-.2.5-.5zm-.6-2.15c-.2-.15-.55-.1-.7.1-.15.2-.1.55.1.7l.8.6c.1.05.2.1.3.1.15 0 .3-.05.4-.2.15-.2.1-.55-.1-.7l-.8-.6zm.2 2.9l-.8.6c-.2.15-.25.5-.1.7.1.15.25.2.4.2.1 0 .2-.05.3-.1l.8-.6c.2-.15.25-.5.1-.7-.15-.2-.45-.25-.7-.1z"/><path d="M294.1 364c-.45-.1-.9-.2-1.35-.2.45-.25.75-.75.75-1.3 0-.85-.65-1.5-1.5-1.5s-1.5.65-1.5 1.5c0 .55.3 1.05.75 1.3-.45.05-.9.1-1.35.2-.2.05-.4.25-.4.5v3.5c0 .3.2.5.5.5h.5v3c0 .3.2.5.5.5h2c.3 0 .5-.2.5-.5v-3h.5c.3 0 .5-.2.5-.5v-3.5c0-.25-.15-.45-.4-.5z"/></g><path d="M265.187 198.72l26.87-15.512L239.731 153l-16.97 9.797-9.9 5.715-28.991 16.737-13.435 7.756L157 200.761l52.326 30.208 26.87-15.512-25.456-14.696 28.991-16.737 25.456 14.696z" fill="#B1E8C1"/><rect x="201" y="165" width="24" height="24" rx="4" fill="#fff"/><g clip-path="url(#clip1_745_161)" fill="#000"><path d="M213.658 169.579h-.936v14.813h.936v-14.813zm-5.319 2.475a1.237 1.237 0 100-2.475 1.237 1.237 0 000 2.475zm2.412 1.765c-.251-.847-.812-1.408-1.445-1.408h-1.934c-.633 0-1.195.561-1.446 1.408l-.911 3.233a.51.51 0 00.371.617.502.502 0 00.613-.365l.908-3.223h.268l-1.581 5.606h1.49v4.159a.576.576 0 001.152 0v-4.159h.317v4.159a.575.575 0 001.151 0v-4.159h1.379l-1.58-5.606h.267l.909 3.223a.5.5 0 00.612.365.509.509 0 00.371-.617l-.911-3.233zm7.473-1.765a1.238 1.238 0 100-2.475 1.238 1.238 0 000 2.475zm1.524.349h-3.252c-.599 0-1.252.653-1.252 1.252v4.16a.544.544 0 001.086 0v-3.42h.25v9.283a.714.714 0 101.427 0v-5.387h.23v5.387a.714.714 0 101.427 0v-9.283h.25v3.42a.544.544 0 001.086 0v-4.16c0-.599-.653-1.252-1.252-1.252z"/></g><path d="M295.347 129.411L259.991 109 231 125.737l35.355 20.41 28.992-16.736z" fill="#A349A5"/><path d="M462.379 197.991l36.77-21.227L381.769 109 345 130.227l117.379 67.764z" fill="#FFF204"/><path d="M550.196 147.512L523.326 132l-50.834 29.346 26.871 15.512 50.833-29.346z" fill="#B1E8C1"/><path d="M619.199 148l-53.033 30.616 18.385 10.613-96.167 55.517 73.54 42.455 149.199-86.133L619.199 148z" fill="#B5CAE3"/><rect x="591" y="199" width="24" height="24" rx="4" fill="#fff"/><g clip-path="url(#clip2_745_161)"><path d="M606.604 206.587h-1.829v-2.18c.316-.071.527-.352.527-.704a.705.705 0 00-.703-.703h-3.2a.705.705 0 00-.703.703.72.72 0 00.563.704v2.215h-1.829c-.598 0-1.055.492-1.055 1.055v8.791c0 .598.457 1.055 1.055 1.055h.563v.422c0 .598.492 1.055 1.055 1.055.597 0 1.054-.492 1.054-1.055v-.422h1.794v.422c0 .598.492 1.055 1.055 1.055.598 0 1.055-.492 1.055-1.055v-.422h.562c.598 0 1.055-.492 1.055-1.055v-8.791a1.016 1.016 0 00-1.019-1.09zm-1.864 2.848c.457 0 .844.387.844.844a.856.856 0 01-.844.844.856.856 0 01-.844-.844c-.035-.492.352-.844.844-.844zm-2.462-5.028h1.442v2.18h-1.442v-2.18zm-1.477 11.393c-.597 0-1.09-.492-1.09-1.09 0-.598.493-1.09 1.09-1.09.598 0 1.09.492 1.09 1.09 0 .598-.492 1.09-1.09 1.09zm0-4.149l-.879-2.638 2.321-.773.879 2.637-2.321.774zm4.959 3.2a1.205 1.205 0 01-.528.773c-.281.176-.598.246-.914.176a1.211 1.211 0 01-.95-1.442l.317-1.547 2.391.527-.316 1.513z" fill="#000"/></g><path d="M607.09 312.58L488.296 244 419 284.005l118.794 68.58 69.296-40.005z" fill="#88ACD4"/><rect x="505" y="282" width="24" height="24" rx="4" fill="#fff"/><path d="M511.237 299.512v1.175c0 .363.3.663.663.663h4.812c.363 0 .663-.3.663-.663v-1.175h-6.138zm-.862-6.137h-.313c-.362 0-.662.3-.662.663v4.812c0 .363.3.662.662.662h1.175v-6.137h-.862zm7.825 6.663v1.312h5.938v-1.85H518.2v.538zm3.987-10.2v-1.163h-4.275l.788 1.163h3.487zm-3.475.462l-.712.925h.975c0 .888.712 1.6 1.6 1.6.887 0 1.6-.712 1.6-1.6v-.925h-3.463zm5.426 8.388v-4.25c0-.588-.475-1.063-1.063-1.063h-.137l-2.263 3.063-1.662 2.25h5.125zm-5.938-3.25v2.975l3.725-5.038h-3.938c-.35 0-.85.275-1.1.613-.25.337-.45.612-.45.612l-2.162 2.912a.703.703 0 00.15.988l.075.05c.312.225.75.162.987-.15l2.713-3.65v.688z" fill="#000"/><path d="M586.551 189.614L568.166 179l-96.167 55.517 18.385 10.613 96.167-55.516z" fill="#77C5B3"/><rect x="514" y="192" width="24" height="24" rx="4" fill="#fff"/><path d="M521.391 197.946h3.756a.46.46 0 00.422-.29l.594-1.488a.125.125 0 00-.013-.114.122.122 0 00-.1-.054h-4.659a.447.447 0 00-.446.454v1.028a.456.456 0 00.446.464zm1.899 3.701a2.363 2.363 0 002.34-2.091h.426c.046 0 .089-.021.109-.063a.108.108 0 00-.017-.122l-.59-.695-4.162.008a.447.447 0 00-.452.4 2.347 2.347 0 002.346 2.563zm3.597 8.709h-4.86a.52.52 0 010-1.039h3.42a.185.185 0 00.166-.095.183.183 0 00-.013-.191s-4.516-6.461-4.531-6.499l-.226-.003a1.162 1.162 0 00-1.173 1.141l-.122 6.712a1.091 1.091 0 001.083 1.112.46.46 0 00.456.506h5.463a.458.458 0 00.455-.506l-.118-1.138zm3.427-5.645a.961.961 0 00-.705.226l-.769.652-2.722-2.71a1.164 1.164 0 00-.82-.338h-2.978l4.219 6.027a.086.086 0 00.1.032.087.087 0 00.055-.089l-.275-2.627 1.372 1.401a1.424 1.424 0 001.935.09l1.134-.961a.967.967 0 00-.546-1.703zm1.267-5.86h-2.052a.868.868 0 00-.868.869v3.092c0 .48.388.869.868.869h.102a.614.614 0 00.233.412.545.545 0 00.516.084s1.48-.537 1.522-.556c.342-.159.55-.441.55-.808v-3.092a.871.871 0 00-.871-.87zm-1.559.973a.601.601 0 00-.388.575v2.611h-.116a.19.19 0 01-.186-.185v-3.094c0-.099.087-.176.186-.176h1.261l-.757.269z" fill="#000"/><path d="M651.823 357.797l-16.263 9.389-16.971-9.797-35.355 20.411 16.97 9.797-33.234 19.186 35.356 20.41 84.852-48.985-35.355-20.411z" fill="#CCB8B6"/><rect x="613" y="364" width="24" height="24" rx="4" fill="#fff"/><path d="M620.543 381.581l2.538-3.283 1.161 1.58-2.237 3.035c-.857 1.161-2.443-.063-1.462-1.332zm2.964-7.475c.242-.842.131-1.56-.777-2.628l-2.22-2.848c-.315-.394-1.057.185-.747.663l1.775 2.332c.336.435-.288 1.01-.635.563l-1.836-2.412c-.341-.418-1.048.134-.69.612.517.664 1.318 1.749 1.836 2.413.358.389-.187.966-.541.48l-1.823-2.396c-.267-.309-.704-.117-.82.245-.125.387.182.67.39.956l2.034 2.802c.631.78 1.337 1.242 2.157.981.126-.041.28-.123.445-.231l5.464 7.524a.831.831 0 001.23.121l.084-.075c.415-.368.483-1.041.127-1.476l-5.786-7.091c.168-.201.292-.391.333-.535zm1.547 1.64l.9-1.164c-1.158-3.06 3.131-7.138 5.21-5.263 2.525 2.28-1.228 7.775-3.866 6.417l-1.066 1.444-1.178-1.434z" fill="#000"/><path d="M705.974 457.473L647.991 424 619 440.737l57.983 33.473 28.991-16.737zm199.172-166.715L857.062 263l-36.272 20.94 48.083 27.759 36.273-20.941z" fill="#89D2EC"/><path d="M810.508 290.155l-48.083-27.759L732 279.961l48.083 27.758 30.425-17.564z" fill="#B5CAE3"/><path d="M820.982 260.512L794.112 245 763 262.961l26.87 15.512 31.112-17.961z" fill="#77C5B3"/><path d="M841.326 272.246L820.112 260 789 277.961l21.213 12.247 31.113-17.962z" fill="#B1E8C1"/><path d="M756.718 294.059l-69.7 40.237 44.901 25.922 52.631-30.384 26.87 15.512-52.631 30.384 44.902 25.921 69.699-40.237-116.672-67.355z" fill="#88ACD4"/><path d="M756.789 294.053L687 334.236l44.901 25.922 52.172-30.119 17.21-10.181-44.494-25.805z" fill="#436BA0"/><path d="M869.095 311.758L821.012 284 780 307.676l48.083 27.759 41.012-23.677z" fill="#77C5B3"/><path d="M811.78 345.106l-26.87-15.512-53.121 30.667 26.87 15.512 53.121-30.667z" fill="#B1E8C1"/><path d="M729.206 309.836L712.168 300 670 324.343l17.038 9.836 42.168-24.343z" fill="#F3E621"/><rect x="682" y="294" width="24" height="24" rx="4" fill="#fff"/><g clip-path="url(#clip3_745_161)"><path d="M693.969 298.125a1.413 1.413 0 101.413 1.414c0-.779-.634-1.414-1.413-1.414zm1.781 3.125h-3.562c-.975 0-1.75.838-1.75 1.812v2h1.25v-1.687c0-.107.08-.187.187-.187s.187.08.187.187v1.687h3.813v-1.687c0-.107.081-.187.187-.187.107 0 .188.08.188.187v1.687h1.25v-2c0-.968-.782-1.812-1.75-1.812zm-9 4.125v1.687h1.438v6.813h11.562v-6.813h1.5v-1.687h-14.5zm9.842 4.922h-1.82l-1.492 2.515h-.681l.807-2.539h-1.357l-.459.589h-.541l.285-.918-.285-.911h.537l.463.593 1.362.005-.797-2.569h.68l1.502 2.579 1.782-.005c.482.005.506.661.014.661z" fill="#000"/></g><rect x="410" y="134" width="24" height="24" rx="4" fill="#fff"/><g clip-path="url(#clip4_745_161)"><path d="M421.969 138.125a1.413 1.413 0 101.413 1.414c0-.779-.634-1.414-1.413-1.414zm1.781 3.125h-3.562c-.975 0-1.75.838-1.75 1.812v2h1.25v-1.687c0-.107.08-.187.187-.187s.187.08.187.187v1.687h3.813v-1.687c0-.107.081-.187.187-.187.107 0 .188.08.188.187v1.687h1.25v-2c0-.968-.782-1.812-1.75-1.812zm-9 4.125v1.687h1.438v6.813h11.562v-6.813h1.5v-1.687h-14.5zm9.842 4.922h-1.82l-1.492 2.515h-.681l.807-2.539h-1.357l-.459.589h-.541l.285-.918-.285-.911h.537l.463.593 1.362.005-.797-2.569h.68l1.502 2.579 1.782-.005c.482.005.506.661.014.661z" fill="#000"/></g><rect x="253" y="104" width="24" height="24" rx="4" fill="#fff"/><g clip-path="url(#clip5_745_161)"><path d="M259 112a1.334 1.334 0 00-1.333 1.333V121a1.333 1.333 0 001.333 1.333h1V112h-1zm12 0h-1v10.333h1a1.334 1.334 0 001.333-1.333v-7.667A1.332 1.332 0 00271 112zm-3-1.333a1.334 1.334 0 00-1.333-1.334h-3.334a1.335 1.335 0 00-1.333 1.334V112h-.667v10.333h7.334V112H268v-1.333zm-4.667 0h3.334V112h-3.334v-1.333zm3.334 7h-1v1a.666.666 0 01-1.334 0v-1h-1a.666.666 0 010-1.334h1v-1a.667.667 0 011.334 0v1h1a.668.668 0 010 1.334z" fill="#000"/></g><rect x="803" y="354" width="24" height="24" rx="4" fill="#fff"/><path d="M809.237 371.512v1.175c0 .363.3.663.663.663h4.812c.363 0 .663-.3.663-.663v-1.175h-6.138zm-.862-6.137h-.312c-.363 0-.663.3-.663.663v4.812c0 .363.3.662.663.662h1.175v-6.137h-.863zm7.825 6.663v1.312h5.938v-1.85H816.2v.538zm3.987-10.2v-1.163h-4.275l.788 1.163h3.487zm-3.475.462l-.712.925h.975c0 .888.712 1.6 1.6 1.6.887 0 1.6-.712 1.6-1.6v-.925h-3.463zm5.426 8.388v-4.25c0-.588-.475-1.063-1.063-1.063h-.137l-2.263 3.063-1.662 2.25h5.125zm-5.938-3.25v2.975l3.725-5.038h-3.938c-.35 0-.85.275-1.1.613-.25.337-.45.612-.45.612l-2.162 2.912a.703.703 0 00.15.988l.075.05c.312.225.75.162.987-.15l2.713-3.65v.688z" fill="#000"/><rect x="732" y="308" width="24" height="24" rx="4" fill="#fff"/><path d="M738.237 325.512v1.175c0 .363.3.663.663.663h4.812c.363 0 .663-.3.663-.663v-1.175h-6.138zm-.862-6.137h-.312c-.363 0-.663.3-.663.663v4.812c0 .363.3.662.663.662h1.175v-6.137h-.863zm7.825 6.663v1.312h5.938v-1.85H745.2v.538zm3.987-10.2v-1.163h-4.275l.788 1.163h3.487zm-3.475.462l-.712.925h.975c0 .888.712 1.6 1.6 1.6.887 0 1.6-.712 1.6-1.6v-.925h-3.463zm5.426 8.388v-4.25c0-.588-.475-1.063-1.063-1.063h-.137l-2.263 3.063-1.662 2.25h5.125zm-5.938-3.25v2.975l3.725-5.038h-3.938c-.35 0-.85.275-1.1.613-.25.337-.45.612-.45.612l-2.162 2.912a.703.703 0 00.15.988l.075.05c.312.225.75.162.987-.15l2.713-3.65v.688z" fill="#000"/><rect x="429" y="281" width="24" height="24" rx="4" fill="#fff"/><path d="M441.124 287.366c0 .842.635 1.413 1.42 1.413.784 0 1.421-.571 1.421-1.413 0-.842-.636-1.413-1.421-1.413-.784 0-1.42.571-1.42 1.413zm-3.076 4.821c0 .167-.03.582.004.831l1.24-1.491c.256-.281.553-.478.704-.425.152.053.235.232.186.398l-2.052 6.795c-.236.794.211 1.574 1.3 1.752 1.594 0 2.542-1.079 3.474-2.478 0-.167.055-.606.022-.856l-1.24 1.491c-.257.281-.575.477-.727.425-.14-.049-.222-.205-.195-.361l2.066-6.826c.172-.867-.295-1.656-1.282-1.757-1.038 0-2.568 1.104-3.5 2.502z" fill="#000"/><rect x="658" y="427" width="24" height="24" rx="4" fill="#fff"/><g clip-path="url(#clip6_745_161)" fill="#000"><path d="M674 431h-8c-.85 0-1.5.65-1.5 1.5v14c0 .3.2.5.5.5h1.5c.3 0 .5-.2.5-.5v-11c0-.3.2-.5.5-.5h5c.3 0 .5.2.5.5v11c0 .3.2.5.5.5h1.5c.3 0 .5-.2.5-.5v-14c0-.85-.65-1.5-1.5-1.5zm-5.15 2.35c-.1.1-.2.15-.35.15-.15 0-.25-.05-.35-.15-.1-.1-.15-.2-.15-.35 0-.15.05-.25.15-.35.2-.2.5-.2.7 0 .1.1.15.2.15.35 0 .15-.05.25-.15.35zm1.5 0c-.1.1-.2.15-.35.15-.15 0-.25-.05-.35-.15-.1-.1-.15-.2-.15-.35 0-.15.05-.25.15-.35.2-.2.5-.2.7 0 .1.1.15.2.15.35 0 .15-.05.25-.15.35zm1.5 0c-.1.1-.2.15-.35.15-.15 0-.25-.05-.35-.15-.1-.1-.15-.2-.15-.35 0-.15.05-.25.15-.35.2-.2.5-.2.7 0 .1.1.15.2.15.35 0 .15-.05.25-.15.35zm5.65 5.15h-1c-.3 0-.5.2-.5.5s.2.5.5.5h1c.3 0 .5-.2.5-.5s-.2-.5-.5-.5zm-1.4-.2c.1 0 .2-.05.3-.1l.8-.6c.2-.15.25-.5.1-.7-.15-.2-.45-.25-.7-.1l-.8.6c-.2.15-.25.5-.1.7.1.15.25.2.4.2zm.3 1.45c-.2-.15-.55-.1-.7.1-.15.2-.1.55.1.7l.8.6c.1.05.2.1.3.1.15 0 .3-.05.4-.2.15-.2.1-.55-.1-.7l-.8-.6zM664 439c0-.3-.2-.5-.5-.5h-1c-.3 0-.5.2-.5.5s.2.5.5.5h1c.3 0 .5-.2.5-.5zm-.6-2.15c-.2-.15-.55-.1-.7.1-.15.2-.1.55.1.7l.8.6c.1.05.2.1.3.1.15 0 .3-.05.4-.2.15-.2.1-.55-.1-.7l-.8-.6zm.2 2.9l-.8.6c-.2.15-.25.5-.1.7.1.15.25.2.4.2.1 0 .2-.05.3-.1l.8-.6c.2-.15.25-.5.1-.7-.15-.2-.45-.25-.7-.1z"/><path d="M672.1 439c-.45-.1-.9-.2-1.35-.2.45-.25.75-.75.75-1.3 0-.85-.65-1.5-1.5-1.5s-1.5.65-1.5 1.5c0 .55.3 1.05.75 1.3-.45.05-.9.1-1.35.2-.2.05-.4.25-.4.5v3.5c0 .3.2.5.5.5h.5v3c0 .3.2.5.5.5h2c.3 0 .5-.2.5-.5v-3h.5c.3 0 .5-.2.5-.5v-3.5c0-.25-.15-.45-.4-.5z"/></g><rect x="852" y="271" width="24" height="24" rx="4" fill="#fff"/><g clip-path="url(#clip7_745_161)" fill="#000"><path d="M868 275h-8c-.85 0-1.5.65-1.5 1.5v14c0 .3.2.5.5.5h1.5c.3 0 .5-.2.5-.5v-11c0-.3.2-.5.5-.5h5c.3 0 .5.2.5.5v11c0 .3.2.5.5.5h1.5c.3 0 .5-.2.5-.5v-14c0-.85-.65-1.5-1.5-1.5zm-5.15 2.35c-.1.1-.2.15-.35.15-.15 0-.25-.05-.35-.15-.1-.1-.15-.2-.15-.35 0-.15.05-.25.15-.35.2-.2.5-.2.7 0 .1.1.15.2.15.35 0 .15-.05.25-.15.35zm1.5 0c-.1.1-.2.15-.35.15-.15 0-.25-.05-.35-.15-.1-.1-.15-.2-.15-.35 0-.15.05-.25.15-.35.2-.2.5-.2.7 0 .1.1.15.2.15.35 0 .15-.05.25-.15.35zm1.5 0c-.1.1-.2.15-.35.15-.15 0-.25-.05-.35-.15-.1-.1-.15-.2-.15-.35 0-.15.05-.25.15-.35.2-.2.5-.2.7 0 .1.1.15.2.15.35 0 .15-.05.25-.15.35zm5.65 5.15h-1c-.3 0-.5.2-.5.5s.2.5.5.5h1c.3 0 .5-.2.5-.5s-.2-.5-.5-.5zm-1.4-.2c.1 0 .2-.05.3-.1l.8-.6c.2-.15.25-.5.1-.7-.15-.2-.45-.25-.7-.1l-.8.6c-.2.15-.25.5-.1.7.1.15.25.2.4.2zm.3 1.45c-.2-.15-.55-.1-.7.1-.15.2-.1.55.1.7l.8.6c.1.05.2.1.3.1.15 0 .3-.05.4-.2.15-.2.1-.55-.1-.7l-.8-.6zM858 283c0-.3-.2-.5-.5-.5h-1c-.3 0-.5.2-.5.5s.2.5.5.5h1c.3 0 .5-.2.5-.5zm-.6-2.15c-.2-.15-.55-.1-.7.1-.15.2-.1.55.1.7l.8.6c.1.05.2.1.3.1.15 0 .3-.05.4-.2.15-.2.1-.55-.1-.7l-.8-.6zm.2 2.9l-.8.6c-.2.15-.25.5-.1.7.1.15.25.2.4.2.1 0 .2-.05.3-.1l.8-.6c.2-.15.25-.5.1-.7-.15-.2-.45-.25-.7-.1z"/><path d="M866.1 283c-.45-.1-.9-.2-1.35-.2.45-.25.75-.75.75-1.3 0-.85-.65-1.5-1.5-1.5s-1.5.65-1.5 1.5c0 .55.3 1.05.75 1.3-.45.05-.9.1-1.35.2-.2.05-.4.25-.4.5v3.5c0 .3.2.5.5.5h.5v3c0 .3.2.5.5.5h2c.3 0 .5-.2.5-.5v-3h.5c.3 0 .5-.2.5-.5v-3.5c0-.25-.15-.45-.4-.5z"/></g><rect x="492" y="132" width="24" height="24" rx="4" fill="#fff"/><g clip-path="url(#clip8_745_161)" fill="#000"><path d="M504.658 136.579h-.936v14.813h.936v-14.813zm-5.319 2.475a1.237 1.237 0 100-2.475 1.237 1.237 0 000 2.475zm2.412 1.765c-.251-.847-.812-1.408-1.445-1.408h-1.934c-.633 0-1.195.561-1.446 1.408l-.911 3.233a.51.51 0 00.371.617.502.502 0 00.613-.365l.908-3.223h.268l-1.581 5.606h1.49v4.159a.576.576 0 001.152 0v-4.159h.317v4.159a.575.575 0 001.151 0v-4.159h1.379l-1.58-5.606h.267l.909 3.223a.5.5 0 00.612.365.509.509 0 00.371-.617l-.911-3.233zm7.473-1.765a1.238 1.238 0 100-2.475 1.238 1.238 0 000 2.475zm1.524.349h-3.252c-.599 0-1.252.653-1.252 1.252v4.16a.544.544 0 001.086 0v-3.42h.25v9.283a.714.714 0 101.427 0v-5.387h.23v5.387a.714.714 0 101.427 0v-9.283h.25v3.42a.544.544 0 001.086 0v-4.16c0-.599-.653-1.252-1.252-1.252z"/></g><rect x="575" y="264" width="24" height="24" rx="4" fill="#fff"/><g clip-path="url(#clip9_745_161)" fill="#000"><path d="M587.658 268.579h-.936v14.813h.936v-14.813zm-5.319 2.475a1.237 1.237 0 100-2.475 1.237 1.237 0 000 2.475zm2.412 1.765c-.251-.847-.812-1.408-1.445-1.408h-1.934c-.633 0-1.195.561-1.446 1.408l-.911 3.233a.51.51 0 00.371.617.502.502 0 00.613-.365l.908-3.223h.268l-1.581 5.606h1.49v4.159a.576.576 0 001.152 0v-4.159h.317v4.159a.575.575 0 001.151 0v-4.159h1.379l-1.58-5.606h.267l.909 3.223a.5.5 0 00.612.365.509.509 0 00.371-.617l-.911-3.233zm7.473-1.765a1.237 1.237 0 100-2.474 1.237 1.237 0 000 2.474zm1.524.349h-3.252c-.599 0-1.252.653-1.252 1.252v4.16a.544.544 0 001.086 0v-3.42h.25v9.283a.714.714 0 101.427 0v-5.387h.23v5.387a.714.714 0 101.427 0v-9.283h.25v3.42a.544.544 0 001.086 0v-4.16c0-.599-.653-1.252-1.252-1.252z"/></g><rect x="765" y="330" width="24" height="24" rx="4" fill="#fff"/><g clip-path="url(#clip10_745_161)" fill="#000"><path d="M777.658 334.579h-.936v14.813h.936v-14.813zm-5.319 2.475a1.237 1.237 0 100-2.475 1.237 1.237 0 000 2.475zm2.412 1.765c-.251-.847-.812-1.408-1.445-1.408h-1.934c-.633 0-1.195.561-1.446 1.408l-.911 3.233a.51.51 0 00.371.617.502.502 0 00.613-.365l.908-3.223h.268l-1.581 5.606h1.49v4.159a.576.576 0 001.152 0v-4.159h.317v4.159a.575.575 0 001.151 0v-4.159h1.379l-1.58-5.606h.267l.909 3.223a.5.5 0 00.612.365.509.509 0 00.371-.617l-.911-3.233zm7.473-1.765a1.237 1.237 0 100-2.474 1.237 1.237 0 000 2.474zm1.524.349h-3.252c-.599 0-1.252.653-1.252 1.252v4.16a.544.544 0 001.086 0v-3.42h.25v9.283a.714.714 0 101.427 0v-5.387h.23v5.387a.714.714 0 101.427 0v-9.283h.25v3.42a.544.544 0 001.086 0v-4.16c0-.599-.653-1.252-1.252-1.252z"/></g><rect x="804" y="252" width="24" height="24" rx="4" fill="#fff"/><g clip-path="url(#clip11_745_161)" fill="#000"><path d="M816.658 256.579h-.936v14.813h.936v-14.813zm-5.319 2.475a1.237 1.237 0 100-2.475 1.237 1.237 0 000 2.475zm2.412 1.765c-.251-.847-.812-1.408-1.445-1.408h-1.934c-.633 0-1.195.561-1.446 1.408l-.911 3.233a.51.51 0 00.371.617.502.502 0 00.613-.365l.908-3.223h.268l-1.581 5.606h1.49v4.159a.576.576 0 001.152 0v-4.159h.317v4.159a.575.575 0 001.151 0v-4.159h1.379l-1.58-5.606h.267l.909 3.223a.5.5 0 00.612.365.509.509 0 00.371-.617l-.911-3.233zm7.473-1.765a1.237 1.237 0 100-2.474 1.237 1.237 0 000 2.474zm1.524.349h-3.252c-.599 0-1.252.653-1.252 1.252v4.16a.544.544 0 001.086 0v-3.42h.25v9.283a.714.714 0 101.427 0v-5.387h.23v5.387a.714.714 0 101.427 0v-9.283h.25v3.42a.544.544 0 001.086 0v-4.16c0-.599-.653-1.252-1.252-1.252z"/></g><rect x="765" y="271" width="24" height="24" rx="4" fill="#fff"/><g clip-path="url(#clip12_745_161)"><path d="M780.604 278.587h-1.829v-2.18c.316-.071.527-.352.527-.704a.705.705 0 00-.703-.703h-3.2a.705.705 0 00-.703.703.72.72 0 00.563.704v2.215h-1.829c-.598 0-1.055.492-1.055 1.055v8.791c0 .598.457 1.055 1.055 1.055h.563v.422c0 .598.492 1.055 1.055 1.055.597 0 1.054-.492 1.054-1.055v-.422h1.794v.422c0 .598.492 1.055 1.055 1.055.598 0 1.055-.492 1.055-1.055v-.422h.562c.598 0 1.055-.492 1.055-1.055v-8.791a1.016 1.016 0 00-1.019-1.09zm-1.864 2.848c.457 0 .844.387.844.844a.856.856 0 01-.844.844.856.856 0 01-.844-.844c-.035-.492.352-.844.844-.844zm-2.462-5.028h1.442v2.18h-1.442v-2.18zm-1.477 11.393c-.597 0-1.09-.492-1.09-1.09 0-.598.493-1.09 1.09-1.09.598 0 1.09.492 1.09 1.09 0 .598-.492 1.09-1.09 1.09zm0-4.149l-.879-2.638 2.321-.773.879 2.637-2.321.774zm4.959 3.2a1.205 1.205 0 01-.528.773 1.21 1.21 0 01-.914.176 1.211 1.211 0 01-.95-1.442l.317-1.547 2.391.527-.316 1.513z" fill="#000"/></g><rect x="777" y="237" width="24" height="24" rx="4" fill="#fff"/><path d="M784.391 242.946h3.756a.46.46 0 00.422-.29l.594-1.488a.125.125 0 00-.013-.114.122.122 0 00-.1-.054h-4.659a.447.447 0 00-.446.454v1.028a.456.456 0 00.446.464zm1.899 3.701a2.363 2.363 0 002.34-2.091h.426c.046 0 .089-.021.109-.063a.108.108 0 00-.017-.122l-.59-.695-4.162.008a.447.447 0 00-.452.4 2.347 2.347 0 002.346 2.563zm3.597 8.709h-4.86a.52.52 0 010-1.039h3.42a.185.185 0 00.166-.095.183.183 0 00-.013-.191s-4.516-6.461-4.531-6.499l-.226-.003a1.162 1.162 0 00-1.173 1.141l-.122 6.712a1.091 1.091 0 001.083 1.112.46.46 0 00.456.506h5.463a.458.458 0 00.455-.506l-.118-1.138zm3.427-5.645a.961.961 0 00-.705.226l-.769.652-2.722-2.71a1.164 1.164 0 00-.82-.338h-2.978l4.219 6.027a.086.086 0 00.1.032.087.087 0 00.055-.089l-.275-2.627 1.372 1.401a1.424 1.424 0 001.935.09l1.134-.961a.967.967 0 00-.546-1.703zm1.267-5.86h-2.052a.868.868 0 00-.868.869v3.092c0 .48.388.869.868.869h.102a.614.614 0 00.233.412.545.545 0 00.516.084s1.48-.537 1.522-.556c.342-.159.55-.441.55-.808v-3.092a.871.871 0 00-.871-.87zm-1.559.973a.601.601 0 00-.388.575v2.611h-.116a.19.19 0 01-.186-.185v-3.094c0-.099.087-.176.186-.176h1.261l-.757.269z" fill="#000"/><rect x="813" y="290" width="24" height="24" rx="4" fill="#fff"/><path d="M820.391 295.946h3.756a.46.46 0 00.422-.29l.594-1.488a.125.125 0 00-.013-.114.122.122 0 00-.1-.054h-4.659a.447.447 0 00-.446.454v1.028a.456.456 0 00.446.464zm1.899 3.701a2.363 2.363 0 002.34-2.091h.426c.046 0 .089-.021.109-.063a.108.108 0 00-.017-.122l-.59-.695-4.162.008a.447.447 0 00-.452.4 2.347 2.347 0 002.346 2.563zm3.597 8.709h-4.86a.52.52 0 010-1.039h3.42a.185.185 0 00.166-.095.183.183 0 00-.013-.191s-4.516-6.461-4.531-6.499l-.226-.003a1.162 1.162 0 00-1.173 1.141l-.122 6.712a1.091 1.091 0 001.083 1.112.46.46 0 00.456.506h5.463a.458.458 0 00.455-.506l-.118-1.138zm3.427-5.645a.961.961 0 00-.705.226l-.769.652-2.722-2.71a1.164 1.164 0 00-.82-.338h-2.978l4.219 6.027a.086.086 0 00.1.032.087.087 0 00.055-.089l-.275-2.627 1.372 1.401a1.424 1.424 0 001.935.09l1.134-.961a.967.967 0 00-.546-1.703zm1.267-5.86h-2.052a.868.868 0 00-.868.869v3.092c0 .48.388.869.868.869h.102a.614.614 0 00.233.412.545.545 0 00.516.084s1.48-.537 1.522-.556c.342-.159.55-.441.55-.808v-3.092a.871.871 0 00-.871-.87zm-1.559.973a.601.601 0 00-.388.575v2.611h-.116a.19.19 0 01-.186-.185v-3.094c0-.099.087-.176.186-.176h1.261l-.757.269z" fill="#000"/><rect x="212" y="371" width="24" height="24" rx="4" fill="#fff"/><g clip-path="url(#clip13_745_161)" fill="#10752E"><path d="M227.094 378.622a1.27 1.27 0 10-.001-2.54 1.27 1.27 0 00.001 2.54zm4.825 3.642l-.842-1.266a2.342 2.342 0 00-.791-.723l-1.65-.925c-.303-.141-.532-.231-.819-.192l-.79.107c-.294.04-.562.19-.751.42l-1.503 1.599-1.376.508a.523.523 0 00-.319.645l.007.02c.081.261.35.415.616.354l1.122-.259c.279-.064.545-.18.783-.34l.78-.525.276 2.095a.708.708 0 01-.088.444l-2.336 4.058a.607.607 0 00.22.827l.02.011a.607.607 0 00.803-.176l2.611-3.735.791 1.579c.059.117.136.223.23.314l1.755 1.716a.592.592 0 00.804.022l.028-.024a.595.595 0 00.051-.842l-1.482-1.651-.805-2.914-.003.003-.231-2.28.816.367 1.305 1.374c.164.173.43.201.626.065l.013-.009a.485.485 0 00.129-.667z"/><path d="M220.035 378.158l-2.682-1.832h6.858v-1.047H216v13.61h1.353l2.682 1.832v-1.832h3.271v-1.047h-3.271v-9.684z"/></g><rect x="248" y="395" width="24" height="24" rx="4" fill="#fff"/><g clip-path="url(#clip14_745_161)" fill="#10752E"><path d="M263.094 402.622a1.27 1.27 0 10-.001-2.54 1.27 1.27 0 00.001 2.54zm4.825 3.642l-.842-1.266a2.342 2.342 0 00-.791-.723l-1.65-.925c-.303-.141-.532-.231-.819-.192l-.79.107c-.294.04-.562.19-.751.42l-1.503 1.599-1.376.508a.523.523 0 00-.319.645l.007.02c.081.261.35.415.616.354l1.122-.259c.279-.064.545-.18.783-.34l.78-.525.276 2.095a.708.708 0 01-.088.444l-2.336 4.058a.607.607 0 00.22.827l.02.011a.607.607 0 00.803-.176l2.611-3.735.791 1.579c.059.117.136.223.23.314l1.755 1.716a.592.592 0 00.804.022l.028-.024a.595.595 0 00.051-.842l-1.482-1.651-.805-2.914-.003.003-.231-2.28.816.367 1.305 1.374c.164.173.43.201.626.065l.013-.009a.485.485 0 00.129-.667z"/><path d="M256.035 402.158l-2.682-1.832h6.858v-1.047H252v13.61h1.353l2.682 1.832v-1.832h3.271v-1.047h-3.271v-9.684z"/></g><rect x="682" y="451" width="24" height="24" rx="4" fill="#fff"/><g clip-path="url(#clip15_745_161)" fill="#10752E"><path d="M697.094 458.622a1.27 1.27 0 10-.001-2.54 1.27 1.27 0 00.001 2.54zm4.825 3.642l-.842-1.266a2.342 2.342 0 00-.791-.723l-1.65-.925c-.303-.141-.532-.231-.819-.192l-.79.107c-.294.04-.562.19-.751.42l-1.503 1.599-1.376.508a.523.523 0 00-.319.645l.007.02c.081.261.35.415.616.354l1.122-.259c.279-.064.545-.18.783-.34l.78-.525.276 2.095a.708.708 0 01-.088.444l-2.336 4.058a.607.607 0 00.22.827l.02.011a.607.607 0 00.803-.176l2.611-3.735.791 1.579c.059.117.136.223.23.314l1.755 1.716a.592.592 0 00.804.022l.028-.024a.595.595 0 00.051-.842l-1.482-1.651-.805-2.914-.003.003-.231-2.28.816.367 1.305 1.374c.164.173.43.201.626.065l.013-.009a.485.485 0 00.129-.667z"/><path d="M690.035 458.158l-2.682-1.832h6.858v-1.047H686v13.61h1.353l2.682 1.832v-1.832h3.271v-1.047h-3.271v-9.684z"/></g><rect x="299" y="424" width="24" height="24" rx="4" fill="#fff"/><g clip-path="url(#clip16_745_161)" fill="#3F48CC"><path d="M307.906 431.622a1.27 1.27 0 11.001-2.54 1.27 1.27 0 01-.001 2.54zm-4.825 3.642l.842-1.266c.204-.299.475-.546.791-.723l1.65-.925c.303-.141.532-.231.819-.192l.79.107c.294.04.562.19.751.42l1.503 1.599 1.376.508a.523.523 0 01.319.645l-.007.02a.523.523 0 01-.616.354l-1.122-.259a2.346 2.346 0 01-.783-.34l-.78-.525-.276 2.095c-.02.154.011.31.088.444l2.336 4.058a.607.607 0 01-.22.827l-.02.011a.607.607 0 01-.803-.176l-2.611-3.735-.791 1.579a1.166 1.166 0 01-.23.314l-1.755 1.716a.592.592 0 01-.804.022l-.028-.024a.595.595 0 01-.051-.842l1.482-1.651.805-2.914.003.003.231-2.28-.816.367-1.305 1.374a.483.483 0 01-.626.065l-.013-.009a.485.485 0 01-.129-.667z"/><path d="M314.965 431.158l2.682-1.832h-6.858v-1.047H319v13.61h-1.353l-2.682 1.832v-1.832h-3.271v-1.047h3.271v-9.684z"/></g><rect x="729" y="423" width="24" height="24" rx="4" fill="#fff"/><g clip-path="url(#clip17_745_161)" fill="#3F48CC"><path d="M737.906 430.622a1.27 1.27 0 11.001-2.54 1.27 1.27 0 01-.001 2.54zm-4.825 3.642l.842-1.266c.204-.299.475-.546.791-.723l1.65-.925c.303-.141.532-.231.819-.192l.79.107c.294.04.562.19.751.42l1.503 1.599 1.376.508a.523.523 0 01.319.645l-.007.02a.523.523 0 01-.616.354l-1.122-.259a2.346 2.346 0 01-.783-.34l-.78-.525-.276 2.095c-.02.154.011.31.088.444l2.336 4.058a.607.607 0 01-.22.827l-.02.011a.607.607 0 01-.803-.176l-2.611-3.735-.791 1.579a1.166 1.166 0 01-.23.314l-1.755 1.716a.592.592 0 01-.804.022l-.028-.024a.595.595 0 01-.051-.842l1.482-1.651.805-2.914.003.003.231-2.28-.816.367-1.305 1.374a.483.483 0 01-.626.065l-.013-.009a.485.485 0 01-.129-.667z"/><path d="M744.965 430.158l2.682-1.832h-6.858v-1.047H749v13.61h-1.353l-2.682 1.832v-1.832h-3.271v-1.047h3.271v-9.684z"/></g><defs><clipPath id="clip0_745_161"><path fill="#fff" transform="translate(284 356)" d="M0 0h16v16H0z"/></clipPath><clipPath id="clip1_745_161"><path fill="#fff" transform="translate(205 169)" d="M0 0h16v16H0z"/></clipPath><clipPath id="clip2_745_161"><path fill="#fff" transform="translate(595 203)" d="M0 0h16v16H0z"/></clipPath><clipPath id="clip3_745_161"><path fill="#fff" transform="translate(686 298)" d="M0 0h16v16H0z"/></clipPath><clipPath id="clip4_745_161"><path fill="#fff" transform="translate(414 138)" d="M0 0h16v16H0z"/></clipPath><clipPath id="clip5_745_161"><path fill="#fff" transform="translate(257 108)" d="M0 0h16v16H0z"/></clipPath><clipPath id="clip6_745_161"><path fill="#fff" transform="translate(662 431)" d="M0 0h16v16H0z"/></clipPath><clipPath id="clip7_745_161"><path fill="#fff" transform="translate(856 275)" d="M0 0h16v16H0z"/></clipPath><clipPath id="clip8_745_161"><path fill="#fff" transform="translate(496 136)" d="M0 0h16v16H0z"/></clipPath><clipPath id="clip9_745_161"><path fill="#fff" transform="translate(579 268)" d="M0 0h16v16H0z"/></clipPath><clipPath id="clip10_745_161"><path fill="#fff" transform="translate(769 334)" d="M0 0h16v16H0z"/></clipPath><clipPath id="clip11_745_161"><path fill="#fff" transform="translate(808 256)" d="M0 0h16v16H0z"/></clipPath><clipPath id="clip12_745_161"><path fill="#fff" transform="translate(769 275)" d="M0 0h16v16H0z"/></clipPath><clipPath id="clip13_745_161"><path fill="#fff" transform="translate(216 375)" d="M0 0h16v16H0z"/></clipPath><clipPath id="clip14_745_161"><path fill="#fff" transform="translate(252 399)" d="M0 0h16v16H0z"/></clipPath><clipPath id="clip15_745_161"><path fill="#fff" transform="translate(686 455)" d="M0 0h16v16H0z"/></clipPath><clipPath id="clip16_745_161"><path fill="#fff" transform="matrix(-1 0 0 1 319 428)" d="M0 0h16v16H0z"/></clipPath><clipPath id="clip17_745_161"><path fill="#fff" transform="matrix(-1 0 0 1 749 427)" d="M0 0h16v16H0z"/></clipPath></defs></svg>