<?xml version="1.0" encoding="utf-8"?><svg viewBox="0 0 24 25" xmlns="http://www.w3.org/2000/svg" xmlns:xlink="http://www.w3.org/1999/xlink"><style>:root>svg{display:none}:root>svg:target{display:block}</style><svg fill="none" viewBox="0 0 7 11" id="icon-arrow-link" xmlns="http://www.w3.org/2000/svg"><path d="M1.243 1.087L5.485 5.33 1.243 9.572" stroke="#E8145A" stroke-width="2"/></svg><svg fill="none" viewBox="0 0 10 16" id="icon-arrow-more" xmlns="http://www.w3.org/2000/svg"><path d="M1.636 1.636L8 8l-6.364 6.364" stroke="#E8145A" stroke-width="2"/></svg><svg fill="none" viewBox="0 0 21 12" id="icon-arrow-next" xmlns="http://www.w3.org/2000/svg"><path d="M20.53 6.53a.75.75 0 000-1.06L15.757.697a.75.75 0 00-1.06 1.06L18.939 6l-4.242 4.243a.75.75 0 001.06 1.06L20.53 6.53zM0 6.75h20v-1.5H0v1.5z" fill="currentColor"/></svg><svg fill="none" viewBox="0 0 21 12" id="icon-arrow-prev" xmlns="http://www.w3.org/2000/svg"><path d="M.47 5.47a.75.75 0 000 1.06l4.773 4.773a.75.75 0 101.06-1.06L2.061 6l4.242-4.243a.75.75 0 10-1.06-1.06L.47 5.47zM21 5.25H1v1.5h20v-1.5z" fill="currentColor"/></svg><svg fill="none" viewBox="0 0 10 16" id="icon-caret" xmlns="http://www.w3.org/2000/svg"><path d="M1.071 1l7.071 7.071-7.07 7.071" stroke="#E8145A" stroke-width="2"/></svg><svg fill="none" viewBox="0 0 10 16" id="icon-caret-dark" xmlns="http://www.w3.org/2000/svg"><path d="M1.071 1l7.071 7.071-7.07 7.071" stroke="#4F176C" stroke-width="2"/></svg><svg fill="none" viewBox="0 0 24 25" id="icon-close-square" xmlns="http://www.w3.org/2000/svg"><path d="M16.396 8.737a1 1 0 010 1.415l-2.982 2.981 2.676 2.675a1 1 0 11-1.415 1.415L12 14.547l-2.675 2.676a1 1 0 01-1.415-1.415l2.676-2.675-2.982-2.981A1 1 0 119.02 8.736L12 11.72l2.981-2.982a1 1 0 011.415 0z" fill="#4E106F"/><path fill-rule="evenodd" clip-rule="evenodd" d="M4 1.98a3 3 0 00-3 3v16a3 3 0 003 3h16a3 3 0 003-3v-16a3 3 0 00-3-3H4zm16 2H4a1 1 0 00-1 1v16a1 1 0 001 1h16a1 1 0 001-1v-16a1 1 0 00-1-1z" fill="#4E106F"/></svg><svg fill="none" viewBox="0 0 24 24" id="icon-hamburger" xmlns="http://www.w3.org/2000/svg"><path d="M4 4h4v4H4V4zM4 10h4v4H4v-4zM8 16H4v4h4v-4zM10 4h4v4h-4V4zM14 10h-4v4h4v-4zM10 16h4v4h-4v-4zM20 4h-4v4h4V4zM16 10h4v4h-4v-4zM20 16h-4v4h4v-4z" fill="#E8145A"/></svg><svg fill="none" viewBox="0 0 20 20" id="icon-location" xmlns="http://www.w3.org/2000/svg"><path fill-rule="evenodd" clip-rule="evenodd" d="M13.56 8.56a3.333 3.333 0 11-6.667 0 3.333 3.333 0 016.667 0zm-1.667 0a1.667 1.667 0 11-3.333 0 1.667 1.667 0 013.333 0z" fill="#000"/><path fill-rule="evenodd" clip-rule="evenodd" d="M4.828 13.765a7.5 7.5 0 1110.604-.26l-5.172 5.432-5.432-5.172zm9.397-1.41l-4.022 4.226-4.225-4.023a5.833 5.833 0 118.247-.202z" fill="#000"/></svg><svg fill="none" viewBox="0 0 20 20" id="icon-search" xmlns="http://www.w3.org/2000/svg"><path fill-rule="evenodd" clip-rule="evenodd" d="M14.057 12.881a6.668 6.668 0 10-1.176 1.176.83.83 0 00.035.038l3.536 3.536a.833.833 0 001.178-1.179l-3.535-3.536a.83.83 0 00-.038-.035zm-1.73-7.625a5 5 0 11-7.071 7.071 5 5 0 017.071-7.07z" fill="#4E106F"/></svg></svg>