<?xml version="1.0" encoding="utf-8"?><svg viewBox="0 0 298 50" xmlns="http://www.w3.org/2000/svg" xmlns:xlink="http://www.w3.org/1999/xlink"><style>:root>svg{display:none}:root>svg:target{display:block}</style><svg fill="none" viewBox="0 0 32 32" id="icon-arrival" xmlns="http://www.w3.org/2000/svg"><g clip-path="url(#aaclip0_277_79)" fill="currentColor"><path d="M26.178 31.086h-32V32h32v-.914zM-3.488 10.385l.12 3.3c.02.527.214 1.032.55 1.438.254.3.58.532.947.673l5.205 2.065 16.854 6.673c.227.074.458.135.692.184 1.677.334 3.183-.118 3.567-1.168.384-1.05-.328-2.112-1.536-2.912a4.06 4.06 0 00-.984-.547l-6.05-2.204-4.47-15.44-3.34-1.22s.558 8.602.603 12.324c.028 1.6.54 1.755.54 1.755l-.06.17-9.082-2.632-1.498-6.322-2.258-.814c.047.056.075 2.323.165 4.635"/></g><defs><clipPath id="aaclip0_277_79"><rect width="32" height="32" rx="4" fill="#fff"/></clipPath></defs></svg><svg fill="none" viewBox="0 0 10 15" id="icon-arrow-board" xmlns="http://www.w3.org/2000/svg"><path d="M1.636 1.136L8 7.5l-6.364 6.364" stroke="#E8145A" stroke-width="2"/></svg><svg fill="none" viewBox="0 0 7 11" id="icon-arrow-link" xmlns="http://www.w3.org/2000/svg"><path d="M1.243 1.087L5.485 5.33 1.243 9.572" stroke="#E8145A" stroke-width="2"/></svg><svg fill="none" viewBox="0 0 298 50" id="icon-arrow-long" xmlns="http://www.w3.org/2000/svg"><path d="M297.53 25.53a.75.75 0 000-1.06l-4.773-4.773a.75.75 0 10-1.06 1.06L295.939 25l-4.242 4.243a.75.75 0 101.06 1.06l4.773-4.773zM24 25.75h273v-1.5H24v1.5z" fill="#E8145A"/><path d="M47.5 33.37A23.994 23.994 0 0142.889 41C38.494 45.91 32.108 49 25 49 11.745 49 1 38.255 1 25S11.745 1 25 1c7.108 0 13.494 3.09 17.889 8a23.994 23.994 0 014.611 7.63" stroke="#E8145A" stroke-width="1.5"/></svg><svg fill="none" viewBox="0 0 10 16" id="icon-arrow-more" xmlns="http://www.w3.org/2000/svg"><path d="M1.636 1.636L8 8l-6.364 6.364" stroke="#E8145A" stroke-width="2"/></svg><svg fill="none" viewBox="0 0 21 12" id="icon-arrow-next" xmlns="http://www.w3.org/2000/svg"><path d="M20.53 6.53a.75.75 0 000-1.06L15.757.697a.75.75 0 00-1.06 1.06L18.939 6l-4.242 4.243a.75.75 0 001.06 1.06L20.53 6.53zM0 6.75h20v-1.5H0v1.5z" fill="currentColor"/></svg><svg fill="none" viewBox="0 0 21 12" id="icon-arrow-prev" xmlns="http://www.w3.org/2000/svg"><path d="M.47 5.47a.75.75 0 000 1.06l4.773 4.773a.75.75 0 101.06-1.06L2.061 6l4.242-4.243a.75.75 0 10-1.06-1.06L.47 5.47zM21 5.25H1v1.5h20v-1.5z" fill="currentColor"/></svg><svg fill="none" viewBox="0 0 17 17" id="icon-calendar" xmlns="http://www.w3.org/2000/svg"><path d="M13.003 2.5H3a1.5 1.5 0 00-1.5 1.501v9.002a1.5 1.5 0 001.5 1.5h10.002a1.5 1.5 0 001.5-1.5V4.001a1.5 1.5 0 00-1.5-1.5z" stroke="#000" stroke-width="1.002" stroke-linejoin="round"/><path d="M9.256 8.01a.754.754 0 100-1.508.754.754 0 000 1.507zM11.755 8.01a.754.754 0 100-1.508.754.754 0 000 1.507zM9.256 10.51a.754.754 0 100-1.508.754.754 0 000 1.508zM11.755 10.51a.754.754 0 100-1.508.754.754 0 000 1.508zM4.255 10.51a.754.754 0 100-1.508.754.754 0 000 1.508zM6.755 10.51a.754.754 0 100-1.508.754.754 0 000 1.508zM4.255 13.01a.754.754 0 100-1.507.754.754 0 000 1.507zM6.755 13.01a.754.754 0 100-1.507.754.754 0 000 1.507zM9.256 13.01a.754.754 0 100-1.507.754.754 0 000 1.507z" fill="#000"/><path d="M4 1.5v1.01M12.003 1.5v1.01" stroke="#000" stroke-width="1.002" stroke-linecap="round" stroke-linejoin="round"/><path d="M14.503 5.001H1.5" stroke="#000" stroke-width="1.002" stroke-linejoin="round"/></svg><svg fill="none" viewBox="0 0 10 16" id="icon-caret" xmlns="http://www.w3.org/2000/svg"><path d="M1.071 1l7.071 7.071-7.07 7.071" stroke="#E8145A" stroke-width="2"/></svg><svg fill="none" viewBox="0 0 10 16" id="icon-caret-dark" xmlns="http://www.w3.org/2000/svg"><path d="M1.071 1l7.071 7.071-7.07 7.071" stroke="#4E106F" stroke-width="2"/></svg><svg fill="none" viewBox="0 0 24 25" id="icon-close-square" xmlns="http://www.w3.org/2000/svg"><path d="M16.396 8.737a1 1 0 010 1.415l-2.982 2.981 2.676 2.675a1 1 0 11-1.415 1.415L12 14.547l-2.675 2.676a1 1 0 01-1.415-1.415l2.676-2.675-2.982-2.981A1 1 0 119.02 8.736L12 11.72l2.981-2.982a1 1 0 011.415 0z" fill="currentColor"/><path fill-rule="evenodd" clip-rule="evenodd" d="M4 1.98a3 3 0 00-3 3v16a3 3 0 003 3h16a3 3 0 003-3v-16a3 3 0 00-3-3H4zm16 2H4a1 1 0 00-1 1v16a1 1 0 001 1h16a1 1 0 001-1v-16a1 1 0 00-1-1z" fill="currentColor"/></svg><svg fill="none" viewBox="0 0 32 32" id="icon-departure" xmlns="http://www.w3.org/2000/svg"><g clip-path="url(#alclip0_277_70)" fill="currentColor"><path d="M26.178 31.086h-32V32h32v-.914zM-2.11 22.025l2.606 2.03c.416.323.927.5 1.454.503.393-.002.78-.102 1.124-.293l4.928-2.66 15.946-8.622c.202-.126.397-.264.585-.412 1.334-1.07 1.956-2.514 1.398-3.483-.557-.97-1.828-1.106-3.218-.695a4.06 4.06 0 00-1.051.402l-5.577 3.219-14.702-6.5-3.081 1.773s6.948 5.102 9.828 7.46c1.244 1.006 1.692.714 1.692.714l.091.155-7.853 5.266-5.806-2.916-2.076 1.207c.074 0 1.829 1.435 3.658 2.852"/></g><defs><clipPath id="alclip0_277_70"><path fill="#fff" d="M0 0h32v32H0z"/></clipPath></defs></svg><svg fill="none" viewBox="0 0 25 24" id="icon-download" xmlns="http://www.w3.org/2000/svg"><path d="M19.5 15v2a2 2 0 01-2 2h-10a2 2 0 01-2-2v-2m7-10v10m0 0l-2-2m2 2l2-2" stroke="currentColor" stroke-width="2" stroke-linecap="round" stroke-linejoin="round"/></svg><svg fill="none" viewBox="0 0 25 24" id="icon-email" xmlns="http://www.w3.org/2000/svg"><path d="M4.5 7l6.2 4.65a3 3 0 003.6 0L20.5 7" stroke="currentColor" stroke-width="2" stroke-linecap="round" stroke-linejoin="round"/><rect x="3.5" y="5" width="18" height="14" rx="2" stroke="currentColor" stroke-width="2" stroke-linecap="round"/></svg><svg fill="none" viewBox="0 0 20 20" id="icon-eye" xmlns="http://www.w3.org/2000/svg"><path d="M11.667 10a1.667 1.667 0 11-3.334 0 1.667 1.667 0 013.334 0z" fill="#616161"/><path fill-rule="evenodd" clip-rule="evenodd" d="M10 2.5C5.34 2.5 1.425 5.687.315 10c1.11 4.313 5.025 7.5 9.685 7.5s8.575-3.187 9.685-7.5C18.575 5.687 14.66 2.5 10 2.5zm3.333 7.5a3.333 3.333 0 11-6.666 0 3.333 3.333 0 016.666 0z" fill="#616161"/></svg><svg fill="none" viewBox="0 0 24 24" id="icon-hamburger" xmlns="http://www.w3.org/2000/svg"><path d="M4 4h4v4H4V4zM4 10h4v4H4v-4zM8 16H4v4h4v-4zM10 4h4v4h-4V4zM14 10h-4v4h4v-4zM10 16h4v4h-4v-4zM20 4h-4v4h4V4zM16 10h4v4h-4v-4zM20 16h-4v4h4v-4z" fill="#E8145A"/></svg><svg fill="none" viewBox="0 0 18 16" id="icon-home" xmlns="http://www.w3.org/2000/svg"><path fill-rule="evenodd" clip-rule="evenodd" d="M15.75 5.848l-5.234-4.653c-.88-.78-2.304-.78-3.182 0L2.25 5.715v9.675H7.5v-4c0-.736.672-1.333 1.5-1.333s1.5.597 1.5 1.333v4h5.25V5.848zm-7.356-3.71L3.75 6.266v7.791H6V11.39c0-1.472 1.343-2.666 3-2.666s3 1.194 3 2.666v2.667h2.25V6.4L9.455 2.138a.818.818 0 00-1.06 0z" fill="#E8145A"/></svg><svg fill="none" viewBox="0 0 24 24" id="icon-info-secondary" xmlns="http://www.w3.org/2000/svg"><path d="M12 .001c-6.656 0-12 5.39-12 12 0 6.656 5.344 12 12 12 6.61 0 12-5.344 12-12 0-6.61-5.39-12-12-12zm0 22.5c-5.813 0-10.5-4.688-10.5-10.5 0-5.766 4.688-10.5 10.5-10.5 5.766 0 10.5 4.734 10.5 10.5 0 5.813-4.734 10.5-10.5 10.5zm0-13.875a1.11 1.11 0 001.125-1.125A1.14 1.14 0 0012 6.376a1.11 1.11 0 00-1.125 1.125c0 .656.469 1.125 1.125 1.125zm2.25 7.875h-1.5v-5.25c0-.375-.375-.75-.75-.75h-1.5c-.422 0-.75.375-.75.75 0 .422.328.75.75.75h.75v4.5h-1.5c-.422 0-.75.375-.75.75 0 .422.328.75.75.75h4.5c.375 0 .75-.328.75-.75 0-.375-.375-.75-.75-.75z" fill="#510C76"/></svg><svg fill="none" viewBox="0 0 24 24" id="icon-info-white" xmlns="http://www.w3.org/2000/svg"><path d="M12 .001c-6.656 0-12 5.39-12 12 0 6.656 5.344 12 12 12 6.61 0 12-5.344 12-12 0-6.61-5.39-12-12-12zm0 22.5c-5.813 0-10.5-4.688-10.5-10.5 0-5.766 4.688-10.5 10.5-10.5 5.766 0 10.5 4.734 10.5 10.5 0 5.813-4.734 10.5-10.5 10.5zm0-13.875a1.11 1.11 0 001.125-1.125A1.14 1.14 0 0012 6.376a1.11 1.11 0 00-1.125 1.125c0 .656.469 1.125 1.125 1.125zm2.25 7.875h-1.5v-5.25c0-.375-.375-.75-.75-.75h-1.5c-.422 0-.75.375-.75.75 0 .422.328.75.75.75h.75v4.5h-1.5c-.422 0-.75.375-.75.75 0 .422.328.75.75.75h4.5c.375 0 .75-.328.75-.75 0-.375-.375-.75-.75-.75z" fill="#fff"/></svg><svg fill="none" viewBox="0 0 20 20" id="icon-location" xmlns="http://www.w3.org/2000/svg"><path fill-rule="evenodd" clip-rule="evenodd" d="M13.56 8.56a3.333 3.333 0 11-6.667 0 3.333 3.333 0 016.667 0zm-1.667 0a1.667 1.667 0 11-3.333 0 1.667 1.667 0 013.333 0z" fill="currentColor"/><path fill-rule="evenodd" clip-rule="evenodd" d="M4.828 13.765a7.5 7.5 0 1110.604-.26l-5.172 5.432-5.432-5.172zm9.397-1.41l-4.022 4.226-4.225-4.023a5.833 5.833 0 118.247-.202z" fill="currentColor"/></svg><svg fill="none" viewBox="0 0 16 16" id="icon-scheme-customs-check" xmlns="http://www.w3.org/2000/svg"><path d="M2.237 13.512V14.688c0 .362.3.662.663.662h4.812c.363 0 .663-.3.663-.662V13.512H2.237z" fill="currentColor"/><path d="M1.375 7.375h-.312c-.363 0-.663.3-.663.662v4.813c0 .363.3.662.663.662h1.175V7.375h-.863zM9.2 14.037v1.313h5.938V13.5H9.2v.537zM13.187 3.838V2.675H8.912L9.7 3.838h3.487zM9.713 4.3L9 5.225h.975c0 .888.713 1.6 1.6 1.6.888 0 1.6-.712 1.6-1.6V4.3H9.712zM15.138 12.688V8.436c0-.587-.475-1.062-1.063-1.062h-.137l-2.263 3.063-1.662 2.25h5.125zM9.2 9.438v2.974l3.725-5.037H8.987c-.35 0-.85.275-1.1.612-.25.338-.45.613-.45.613l-2.162 2.912a.703.703 0 00.15.988l.075.05c.312.225.75.162.987-.15L9.2 8.75v.688z" fill="currentColor"/></svg><svg fill="none" viewBox="0 0 16 16" id="icon-scheme-enter" xmlns="http://www.w3.org/2000/svg"><g clip-path="url(#avclip0_583_802)" fill="currentColor"><path d="M11.094 3.622a1.27 1.27 0 100-2.539 1.27 1.27 0 000 2.539zM15.919 7.264l-.842-1.266a2.352 2.352 0 00-.791-.723l-1.65-.925c-.303-.14-.532-.23-.819-.192l-.79.107c-.294.04-.562.19-.75.42l-1.504 1.6-1.376.507c-.261.096-.401.38-.319.645l.007.02c.08.261.35.415.616.354l1.122-.259c.28-.064.545-.18.783-.34l.78-.525.276 2.095c.02.154-.01.31-.088.444l-2.336 4.058a.606.606 0 00.22.827l.02.011a.607.607 0 00.803-.176l2.611-3.735.791 1.579c.059.117.136.223.23.314l1.755 1.716a.593.593 0 00.804.022l.028-.024a.592.592 0 00.05-.842l-1.481-1.65-.805-2.915-.003.003-.231-2.28.816.367 1.305 1.374c.164.173.43.2.626.065l.013-.009a.484.484 0 00.129-.667z"/><path d="M4.035 3.158L1.353 1.326H8.21V.28H0v13.61h1.353l2.682 1.832v-1.832h3.271v-1.047h-3.27V3.158z"/></g><defs><clipPath id="avclip0_583_802"><path fill="#fff" d="M0 0h16v16H0z"/></clipPath></defs></svg><svg fill="none" viewBox="0 0 16 16" id="icon-scheme-exit" xmlns="http://www.w3.org/2000/svg"><g clip-path="url(#awclip0_583_807)" fill="currentColor"><path d="M4.906 3.622a1.27 1.27 0 110-2.539 1.27 1.27 0 010 2.539zM.081 7.264l.842-1.266c.204-.299.475-.546.791-.723l1.65-.925c.303-.14.532-.23.819-.192l.79.107c.294.04.562.19.75.42l1.504 1.6 1.376.507c.261.096.401.38.319.645l-.007.02a.522.522 0 01-.616.354l-1.122-.259a2.347 2.347 0 01-.783-.34l-.78-.525-.276 2.095c-.02.154.01.31.088.444l2.336 4.058a.606.606 0 01-.22.827l-.02.011a.607.607 0 01-.803-.176l-2.611-3.735-.791 1.579a1.171 1.171 0 01-.23.314L1.332 13.82a.593.593 0 01-.804.022L.5 13.818a.592.592 0 01-.05-.842l1.481-1.65.805-2.915.003.003.231-2.28-.816.367L.849 7.876a.484.484 0 01-.626.065L.21 7.931a.484.484 0 01-.129-.667z"/><path d="M11.965 3.158l2.682-1.832H7.79V.28H16v13.61h-1.353l-2.682 1.832v-1.832H8.694v-1.047h3.27V3.158z"/></g><defs><clipPath id="awclip0_583_807"><path fill="#fff" transform="matrix(-1 0 0 1 16 0)" d="M0 0h16v16H0z"/></clipPath></defs></svg><svg fill="none" viewBox="0 0 16 16" id="icon-scheme-food" xmlns="http://www.w3.org/2000/svg"><g clip-path="url(#axclip0_583_725)"><path d="M3.78 13.58l2.707-3.282 1.239 1.58-2.387 3.035c-.914 1.161-2.605-.063-1.559-1.332zm3.162-7.474c.258-.842.14-1.56-.83-2.628L3.745.63c-.336-.394-1.127.185-.797.663l1.894 2.332c.358.435-.308 1.01-.677.563L2.206 1.776c-.364-.418-1.118.134-.737.612.552.664 1.406 1.749 1.959 2.413.382.39-.2.966-.577.48L.907 2.885c-.285-.31-.752-.117-.875.245-.133.387.194.67.416.956l2.17 2.802c.673.78 1.425 1.242 2.3.98.135-.04.299-.122.474-.23l5.828 7.524c.314.404.92.447 1.313.12l.09-.074c.443-.368.514-1.041.135-1.476L6.586 6.64c.18-.2.312-.39.356-.535zm1.65 1.64l.96-1.164c-1.235-3.06 3.34-7.138 5.557-5.263 2.694 2.28-1.31 7.775-4.124 6.417L9.848 9.18 8.592 7.746z" fill="currentColor"/></g><defs><clipPath id="axclip0_583_725"><path fill="#fff" d="M0 0h16v16H0z"/></clipPath></defs></svg><svg fill="none" viewBox="0 0 16 16" id="icon-scheme-info" xmlns="http://www.w3.org/2000/svg"><path d="M8.123 2.366c0 .842.636 1.413 1.42 1.413.785 0 1.421-.571 1.421-1.413 0-.842-.636-1.413-1.42-1.413-.785 0-1.42.571-1.42 1.413zM5.048 7.187c0 .167-.03.582.004.831l1.24-1.491c.256-.281.552-.478.704-.425.151.053.235.232.185.398L5.13 13.295c-.237.794.21 1.574 1.3 1.752 1.594 0 2.541-1.079 3.473-2.478 0-.167.056-.606.022-.856l-1.24 1.491c-.256.281-.575.477-.727.425-.14-.049-.222-.205-.194-.36L9.83 6.441c.172-.867-.295-1.656-1.282-1.757-1.038 0-2.568 1.104-3.5 2.502z" fill="currentColor"/></svg><svg fill="none" viewBox="0 0 16 16" id="icon-scheme-luggare" xmlns="http://www.w3.org/2000/svg"><g clip-path="url(#azclip0_583_730)"><path d="M11.604 3.587H9.775v-2.18c.316-.07.527-.352.527-.704A.705.705 0 009.6 0H6.4a.705.705 0 00-.703.703c0 .352.246.633.563.704v2.215h-1.83c-.597 0-1.054.492-1.054 1.055v8.791c0 .598.457 1.055 1.055 1.055h.563v.422c0 .598.492 1.055 1.055 1.055.597 0 1.054-.492 1.054-1.055v-.422h1.794v.422c0 .598.492 1.055 1.055 1.055.598 0 1.055-.492 1.055-1.055v-.422h.562c.598 0 1.055-.492 1.055-1.055V4.677a1.016 1.016 0 00-1.02-1.09zM9.74 6.435c.457 0 .844.387.844.844a.856.856 0 01-.844.844.856.856 0 01-.844-.844c-.035-.492.352-.844.844-.844zM7.278 1.407H8.72v2.18H7.278v-2.18zM5.801 12.8c-.597 0-1.09-.492-1.09-1.09 0-.598.493-1.09 1.09-1.09.598 0 1.09.492 1.09 1.09 0 .598-.492 1.09-1.09 1.09zm0-4.15l-.879-2.637 2.321-.773.88 2.637L5.8 8.65zm4.959 3.2a1.2 1.2 0 01-.528.774 1.21 1.21 0 01-.914.176 1.21 1.21 0 01-.95-1.442l.317-1.547 2.391.527-.316 1.513z" fill="currentColor"/></g><defs><clipPath id="azclip0_583_730"><path fill="#fff" d="M0 0h16v16H0z"/></clipPath></defs></svg><svg fill="none" viewBox="0 0 15 14" id="icon-scheme-medical" xmlns="http://www.w3.org/2000/svg"><path d="M1.333 3.167A1.333 1.333 0 000 4.5v7.667A1.333 1.333 0 001.333 13.5h1V3.167h-1zm12 0h-1V13.5h1a1.333 1.333 0 001.334-1.333V4.5a1.333 1.333 0 00-1.334-1.333zm-3-1.334A1.333 1.333 0 009 .5H5.667a1.333 1.333 0 00-1.334 1.333v1.334h-.666V13.5H11V3.167h-.667V1.833zm-4.666 0H9v1.334H5.667V1.833zm3.333 7H8v1a.667.667 0 01-1.333 0v-1h-1a.667.667 0 110-1.333h1v-1A.667.667 0 118 6.5v1h1a.667.667 0 010 1.333z" fill="currentColor"/></svg><svg fill="none" viewBox="0 0 16 16" id="icon-scheme-pass-control" xmlns="http://www.w3.org/2000/svg"><path d="M3.391 1.946h3.756a.458.458 0 00.422-.29L8.163.168A.124.124 0 008.05 0H3.391a.447.447 0 00-.446.454v1.028c0 .251.195.464.446.464zM5.29 5.647a2.363 2.363 0 002.34-2.091h.426c.046 0 .09-.02.109-.063a.109.109 0 00-.017-.122l-.59-.695-4.162.008a.446.446 0 00-.452.4A2.348 2.348 0 005.29 5.647zM8.887 14.356h-4.86a.52.52 0 010-1.04h3.42c.07 0 .133-.033.166-.094a.18.18 0 00-.013-.19s-4.516-6.462-4.531-6.5l-.226-.003A1.162 1.162 0 001.67 7.67l-.122 6.712a1.09 1.09 0 001.083 1.112.457.457 0 00.456.506H8.55a.456.456 0 00.455-.506l-.118-1.138zM12.314 8.71a.965.965 0 00-.706.227l-.769.652-2.721-2.71a1.162 1.162 0 00-.82-.338H4.32l4.219 6.027a.085.085 0 00.155-.057l-.275-2.627 1.372 1.4a1.422 1.422 0 001.935.091l1.134-.961a.97.97 0 00.113-1.364.963.963 0 00-.659-.34zM13.58 2.851h-2.05c-.48 0-.869.39-.869.87v3.091c0 .48.388.87.868.87h.102c.02.163.104.313.233.411.15.115.341.145.516.084 0 0 1.48-.537 1.522-.556.342-.159.55-.441.55-.808V3.72a.87.87 0 00-.871-.87zm-1.558.973a.601.601 0 00-.388.575V7.01h-.116a.19.19 0 01-.186-.185V3.73c0-.099.087-.175.186-.175h1.26l-.756.268z" fill="currentColor"/></svg><svg fill="none" viewBox="0 0 16 16" id="icon-scheme-security" xmlns="http://www.w3.org/2000/svg"><g clip-path="url(#bcclip0_583_734)" fill="currentColor"><path d="M12 0H4c-.85 0-1.5.65-1.5 1.5v14c0 .3.2.5.5.5h1.5c.3 0 .5-.2.5-.5v-11c0-.3.2-.5.5-.5h5c.3 0 .5.2.5.5v11c0 .3.2.5.5.5H13c.3 0 .5-.2.5-.5v-14C13.5.65 12.85 0 12 0zM6.85 2.35c-.1.1-.2.15-.35.15-.15 0-.25-.05-.35-.15-.1-.1-.15-.2-.15-.35 0-.15.05-.25.15-.35.2-.2.5-.2.7 0 .1.1.15.2.15.35 0 .15-.05.25-.15.35zm1.5 0c-.1.1-.2.15-.35.15-.15 0-.25-.05-.35-.15-.1-.1-.15-.2-.15-.35 0-.15.05-.25.15-.35.2-.2.5-.2.7 0 .1.1.15.2.15.35 0 .15-.05.25-.15.35zm1.5 0c-.1.1-.2.15-.35.15-.15 0-.25-.05-.35-.15-.1-.1-.15-.2-.15-.35 0-.15.05-.25.15-.35.2-.2.5-.2.7 0 .1.1.15.2.15.35 0 .15-.05.25-.15.35zM15.5 7.5h-1c-.3 0-.5.2-.5.5s.2.5.5.5h1c.3 0 .5-.2.5-.5s-.2-.5-.5-.5zM14.1 7.3c.1 0 .2-.05.3-.1l.8-.6c.2-.15.25-.5.1-.7-.15-.2-.45-.25-.7-.1l-.8.6c-.2.15-.25.5-.1.7.1.15.25.2.4.2zM14.4 8.75c-.2-.15-.55-.1-.7.1-.15.2-.1.55.1.7l.8.6c.1.05.2.1.3.1.15 0 .3-.05.4-.2.15-.2.1-.55-.1-.7l-.8-.6zM2 8c0-.3-.2-.5-.5-.5h-1c-.3 0-.5.2-.5.5s.2.5.5.5h1c.3 0 .5-.2.5-.5zM1.4 5.85c-.2-.15-.55-.1-.7.1-.15.2-.1.55.1.7l.8.6c.1.05.2.1.3.1.15 0 .3-.05.4-.2.15-.2.1-.55-.1-.7l-.8-.6zM1.6 8.75l-.8.6c-.2.15-.25.5-.1.7.1.15.25.2.4.2.1 0 .2-.05.3-.1l.8-.6c.2-.15.25-.5.1-.7-.15-.2-.45-.25-.7-.1z"/><path d="M10.1 8c-.45-.1-.9-.2-1.35-.2.45-.25.75-.75.75-1.3C9.5 5.65 8.85 5 8 5s-1.5.65-1.5 1.5c0 .55.3 1.05.75 1.3-.45.05-.9.1-1.35.2-.2.05-.4.25-.4.5V12c0 .3.2.5.5.5h.5v3c0 .3.2.5.5.5h2c.3 0 .5-.2.5-.5v-3h.5c.3 0 .5-.2.5-.5V8.5c0-.25-.15-.45-.4-.5z"/></g><defs><clipPath id="bcclip0_583_734"><path fill="#fff" d="M0 0h16v16H0z"/></clipPath></defs></svg><svg fill="none" viewBox="0 0 16 16" id="icon-scheme-toilets" xmlns="http://www.w3.org/2000/svg"><g clip-path="url(#bdclip0_583_718)" fill="currentColor"><path d="M8.658.579h-.936v14.813h.936V.579zM3.339 3.054a1.238 1.238 0 100-2.475 1.238 1.238 0 000 2.475zM5.751 4.819c-.25-.847-.812-1.408-1.445-1.408H3.34h-.967c-.633 0-1.195.561-1.446 1.408L.015 8.052a.51.51 0 00.371.617A.501.501 0 001 8.304l.908-3.223h.268l-1.58 5.606h1.49v4.159a.575.575 0 001.15 0v-4.159h.318v4.159a.576.576 0 001.15 0v-4.159h1.38l-1.58-5.606h.268l.908 3.223c.067.273.34.432.612.365a.51.51 0 00.371-.617l-.91-3.233zM13.224 3.054a1.237 1.237 0 100-2.475 1.237 1.237 0 000 2.475zM14.748 3.403h-3.252c-.6 0-1.252.653-1.252 1.252v4.16a.543.543 0 001.086 0v-3.42h.25v9.283a.713.713 0 101.427 0V9.291h.23v5.387a.713.713 0 101.427 0V5.395h.25v3.42a.543.543 0 001.086 0v-4.16c0-.6-.653-1.252-1.252-1.252z"/></g><defs><clipPath id="bdclip0_583_718"><path fill="#fff" d="M0 0h16v16H0z"/></clipPath></defs></svg><svg fill="none" viewBox="0 0 16 16" id="icon-scheme-travel-agent" xmlns="http://www.w3.org/2000/svg"><g clip-path="url(#beclip0_583_743)"><path d="M7.969.125c-.78 0-1.415.635-1.415 1.414 0 .78.63 1.414 1.415 1.414A1.42 1.42 0 009.382 1.54C9.383.76 8.748.125 7.97.125zM9.75 3.25H6.187c-.974 0-1.75.838-1.75 1.813v2h1.25V5.375c0-.107.081-.188.188-.188s.188.081.188.188v1.688h3.812V5.375c0-.107.08-.188.188-.188.106 0 .187.081.187.188v1.688h1.25v-2c0-.969-.782-1.813-1.75-1.813zm-9 4.125v1.688h1.438v6.812H13.75V9.062h1.5V7.375H.75zm9.842 4.922h-1.82L7.28 14.812H6.6l.806-2.539H6.049l-.459.589h-.54l.284-.918-.285-.912h.537l.463.594 1.362.005-.797-2.569h.68l1.502 2.579 1.782-.005c.482.005.506.66.014.66z" fill="currentColor"/></g><defs><clipPath id="beclip0_583_743"><path fill="#fff" d="M0 0h16v16H0z"/></clipPath></defs></svg><svg fill="none" viewBox="0 0 20 20" id="icon-search" xmlns="http://www.w3.org/2000/svg"><path fill-rule="evenodd" clip-rule="evenodd" d="M14.057 12.881a6.668 6.668 0 10-1.176 1.176.83.83 0 00.035.038l3.536 3.536a.833.833 0 001.178-1.179l-3.535-3.536a.83.83 0 00-.038-.035zm-1.73-7.625a5 5 0 11-7.071 7.071 5 5 0 017.071-7.07z" fill="#4E106F"/></svg><svg fill="none" viewBox="0 0 17 17" id="icon-weather" xmlns="http://www.w3.org/2000/svg"><g clip-path="url(#bgclip0_2302_682)" stroke="#000" stroke-width="1.002" stroke-linejoin="round"><path d="M2.831 9.591a.502.502 0 00.419-.414c.378-2.295 2.051-3.676 4-3.676 1.812 0 3.02 1.18 3.508 2.43a.495.495 0 00.381.309c1.563.255 2.863 1.298 2.863 3.113 0 1.856-1.519 3.15-3.375 3.15H3.312C1.766 14.503.5 13.731.5 12.028c0-1.515 1.21-2.258 2.332-2.437z"/><path d="M12.027 8.484a2.5 2.5 0 10-3.862-2.876M14.503 6.502h1.009M10.502 1.5v1.01M6.966 2.966l.714.714M14.045 2.966l-.714.714" stroke-linecap="round"/></g><defs><clipPath id="bgclip0_2302_682"><path fill="#fff" d="M0 0h16.003v16.003H0z"/></clipPath></defs></svg></svg>