<?xml version="1.0" encoding="utf-8"?><svg viewBox="0 0 298 50" xmlns="http://www.w3.org/2000/svg" xmlns:xlink="http://www.w3.org/1999/xlink"><style>:root>svg{display:none}:root>svg:target{display:block}</style><svg fill="none" viewBox="0 0 32 32" id="icon-arrival" xmlns="http://www.w3.org/2000/svg"><g clip-path="url(#aclip0_277_79)" fill="#E8145A"><path d="M26.178 31.086h-32V32h32v-.914zM-3.488 10.385l.12 3.3c.02.527.214 1.032.55 1.438.254.3.58.532.947.673l5.205 2.065 16.854 6.673c.227.074.458.135.692.184 1.677.334 3.183-.118 3.567-1.168.384-1.05-.328-2.112-1.536-2.912a4.06 4.06 0 00-.984-.547l-6.05-2.204-4.47-15.44-3.34-1.22s.558 8.602.603 12.324c.028 1.6.54 1.755.54 1.755l-.06.17-9.082-2.632-1.498-6.322-2.258-.814c.047.056.075 2.323.165 4.635"/></g><defs><clipPath id="aclip0_277_79"><rect width="32" height="32" rx="4" fill="#fff"/></clipPath></defs></svg><svg fill="none" viewBox="0 0 7 11" id="icon-arrow-link" xmlns="http://www.w3.org/2000/svg"><path d="M1.243 1.087L5.485 5.33 1.243 9.572" stroke="#E8145A" stroke-width="2"/></svg><svg fill="none" viewBox="0 0 298 50" id="icon-arrow-long" xmlns="http://www.w3.org/2000/svg"><path d="M297.53 25.53a.75.75 0 000-1.06l-4.773-4.773a.75.75 0 10-1.06 1.06L295.939 25l-4.242 4.243a.75.75 0 101.06 1.06l4.773-4.773zM24 25.75h273v-1.5H24v1.5z" fill="#E8145A"/><path d="M47.5 33.37A23.994 23.994 0 0142.889 41C38.494 45.91 32.108 49 25 49 11.745 49 1 38.255 1 25S11.745 1 25 1c7.108 0 13.494 3.09 17.889 8a23.994 23.994 0 014.611 7.63" stroke="#E8145A" stroke-width="1.5"/></svg><svg fill="none" viewBox="0 0 10 16" id="icon-arrow-more" xmlns="http://www.w3.org/2000/svg"><path d="M1.636 1.636L8 8l-6.364 6.364" stroke="#E8145A" stroke-width="2"/></svg><svg fill="none" viewBox="0 0 21 12" id="icon-arrow-next" xmlns="http://www.w3.org/2000/svg"><path d="M20.53 6.53a.75.75 0 000-1.06L15.757.697a.75.75 0 00-1.06 1.06L18.939 6l-4.242 4.243a.75.75 0 001.06 1.06L20.53 6.53zM0 6.75h20v-1.5H0v1.5z" fill="currentColor"/></svg><svg fill="none" viewBox="0 0 21 12" id="icon-arrow-prev" xmlns="http://www.w3.org/2000/svg"><path d="M.47 5.47a.75.75 0 000 1.06l4.773 4.773a.75.75 0 101.06-1.06L2.061 6l4.242-4.243a.75.75 0 10-1.06-1.06L.47 5.47zM21 5.25H1v1.5h20v-1.5z" fill="currentColor"/></svg><svg fill="none" viewBox="0 0 10 16" id="icon-caret" xmlns="http://www.w3.org/2000/svg"><path d="M1.071 1l7.071 7.071-7.07 7.071" stroke="#E8145A" stroke-width="2"/></svg><svg fill="none" viewBox="0 0 10 16" id="icon-caret-dark" xmlns="http://www.w3.org/2000/svg"><path d="M1.071 1l7.071 7.071-7.07 7.071" stroke="#4F176C" stroke-width="2"/></svg><svg fill="none" viewBox="0 0 24 25" id="icon-close-square" xmlns="http://www.w3.org/2000/svg"><path d="M16.396 8.737a1 1 0 010 1.415l-2.982 2.981 2.676 2.675a1 1 0 11-1.415 1.415L12 14.547l-2.675 2.676a1 1 0 01-1.415-1.415l2.676-2.675-2.982-2.981A1 1 0 119.02 8.736L12 11.72l2.981-2.982a1 1 0 011.415 0z" fill="#4E106F"/><path fill-rule="evenodd" clip-rule="evenodd" d="M4 1.98a3 3 0 00-3 3v16a3 3 0 003 3h16a3 3 0 003-3v-16a3 3 0 00-3-3H4zm16 2H4a1 1 0 00-1 1v16a1 1 0 001 1h16a1 1 0 001-1v-16a1 1 0 00-1-1z" fill="#4E106F"/></svg><svg fill="none" viewBox="0 0 32 32" id="icon-departure" xmlns="http://www.w3.org/2000/svg"><g clip-path="url(#jclip0_277_70)" fill="#E8145A"><path d="M26.178 31.086h-32V32h32v-.914zM-2.11 22.025l2.606 2.03c.416.323.927.5 1.454.503.393-.002.78-.102 1.124-.293l4.928-2.66 15.946-8.622c.202-.126.397-.264.585-.412 1.334-1.07 1.956-2.514 1.398-3.483-.557-.97-1.828-1.106-3.218-.695a4.06 4.06 0 00-1.051.402l-5.577 3.219-14.702-6.5-3.081 1.773s6.948 5.102 9.828 7.46c1.244 1.006 1.692.714 1.692.714l.091.155-7.853 5.266-5.806-2.916-2.076 1.207c.074 0 1.829 1.435 3.658 2.852"/></g><defs><clipPath id="jclip0_277_70"><path fill="#fff" d="M0 0h32v32H0z"/></clipPath></defs></svg><svg fill="none" viewBox="0 0 24 24" id="icon-hamburger" xmlns="http://www.w3.org/2000/svg"><path d="M4 4h4v4H4V4zM4 10h4v4H4v-4zM8 16H4v4h4v-4zM10 4h4v4h-4V4zM14 10h-4v4h4v-4zM10 16h4v4h-4v-4zM20 4h-4v4h4V4zM16 10h4v4h-4v-4zM20 16h-4v4h4v-4z" fill="#E8145A"/></svg><svg fill="none" viewBox="0 0 18 16" id="icon-home" xmlns="http://www.w3.org/2000/svg"><path fill-rule="evenodd" clip-rule="evenodd" d="M15.75 5.848l-5.234-4.653c-.88-.78-2.304-.78-3.182 0L2.25 5.715v9.675H7.5v-4c0-.736.672-1.333 1.5-1.333s1.5.597 1.5 1.333v4h5.25V5.848zm-7.356-3.71L3.75 6.266v7.791H6V11.39c0-1.472 1.343-2.666 3-2.666s3 1.194 3 2.666v2.667h2.25V6.4L9.455 2.138a.818.818 0 00-1.06 0z" fill="#E8145A"/></svg><svg fill="none" viewBox="0 0 24 24" id="icon-info-secondary" xmlns="http://www.w3.org/2000/svg"><path d="M12 .001c-6.656 0-12 5.39-12 12 0 6.656 5.344 12 12 12 6.61 0 12-5.344 12-12 0-6.61-5.39-12-12-12zm0 22.5c-5.813 0-10.5-4.688-10.5-10.5 0-5.766 4.688-10.5 10.5-10.5 5.766 0 10.5 4.734 10.5 10.5 0 5.813-4.734 10.5-10.5 10.5zm0-13.875a1.11 1.11 0 001.125-1.125A1.14 1.14 0 0012 6.376a1.11 1.11 0 00-1.125 1.125c0 .656.469 1.125 1.125 1.125zm2.25 7.875h-1.5v-5.25c0-.375-.375-.75-.75-.75h-1.5c-.422 0-.75.375-.75.75 0 .422.328.75.75.75h.75v4.5h-1.5c-.422 0-.75.375-.75.75 0 .422.328.75.75.75h4.5c.375 0 .75-.328.75-.75 0-.375-.375-.75-.75-.75z" fill="#510C76"/></svg><svg fill="none" viewBox="0 0 24 24" id="icon-info-white" xmlns="http://www.w3.org/2000/svg"><path d="M12 .001c-6.656 0-12 5.39-12 12 0 6.656 5.344 12 12 12 6.61 0 12-5.344 12-12 0-6.61-5.39-12-12-12zm0 22.5c-5.813 0-10.5-4.688-10.5-10.5 0-5.766 4.688-10.5 10.5-10.5 5.766 0 10.5 4.734 10.5 10.5 0 5.813-4.734 10.5-10.5 10.5zm0-13.875a1.11 1.11 0 001.125-1.125A1.14 1.14 0 0012 6.376a1.11 1.11 0 00-1.125 1.125c0 .656.469 1.125 1.125 1.125zm2.25 7.875h-1.5v-5.25c0-.375-.375-.75-.75-.75h-1.5c-.422 0-.75.375-.75.75 0 .422.328.75.75.75h.75v4.5h-1.5c-.422 0-.75.375-.75.75 0 .422.328.75.75.75h4.5c.375 0 .75-.328.75-.75 0-.375-.375-.75-.75-.75z" fill="#fff"/></svg><svg fill="none" viewBox="0 0 20 20" id="icon-location" xmlns="http://www.w3.org/2000/svg"><path fill-rule="evenodd" clip-rule="evenodd" d="M13.56 8.56a3.333 3.333 0 11-6.667 0 3.333 3.333 0 016.667 0zm-1.667 0a1.667 1.667 0 11-3.333 0 1.667 1.667 0 013.333 0z" fill="#000"/><path fill-rule="evenodd" clip-rule="evenodd" d="M4.828 13.765a7.5 7.5 0 1110.604-.26l-5.172 5.432-5.432-5.172zm9.397-1.41l-4.022 4.226-4.225-4.023a5.833 5.833 0 118.247-.202z" fill="#000"/></svg><svg fill="none" viewBox="0 0 20 20" id="icon-search" xmlns="http://www.w3.org/2000/svg"><path fill-rule="evenodd" clip-rule="evenodd" d="M14.057 12.881a6.668 6.668 0 10-1.176 1.176.83.83 0 00.035.038l3.536 3.536a.833.833 0 001.178-1.179l-3.535-3.536a.83.83 0 00-.038-.035zm-1.73-7.625a5 5 0 11-7.071 7.071 5 5 0 017.071-7.07z" fill="#4E106F"/></svg></svg>